<svg width="173" height="65" viewBox="0 0 173 65" fill="none" xmlns="http://www.w3.org/2000/svg">
<g clip-path="url(#clip0_1567_14)">
<path d="M65.336 31.336H68.504C70.256 31.336 71.588 30.904 72.5 30.04C73.436 29.176 73.904 28.036 73.904 26.62C73.904 25.132 73.436 23.956 72.5 23.092C71.564 22.228 70.208 21.796 68.432 21.796H65.336V31.336ZM61.628 18.736H68.576C71.36 18.736 73.568 19.48 75.2 20.968C76.832 22.432 77.648 24.316 77.648 26.62C77.648 28.924 76.82 30.796 75.164 32.236C73.532 33.676 71.408 34.396 68.792 34.396H65.336V43H61.628V18.736ZM84.805 24.748V27.952C85.693 25.696 87.289 24.568 89.593 24.568C89.929 24.568 90.301 24.604 90.709 24.676V28.132C90.205 27.916 89.641 27.808 89.017 27.808C87.793 27.808 86.785 28.348 85.993 29.428C85.201 30.508 84.805 31.792 84.805 33.28V43H81.277V24.748H84.805ZM101.108 43.324C98.4202 43.324 96.3082 42.448 94.7722 40.696C93.2362 38.944 92.4682 36.724 92.4682 34.036C92.4682 31.3 93.2602 29.032 94.8442 27.232C96.4282 25.408 98.5162 24.496 101.108 24.496C103.892 24.496 106.04 25.384 107.552 27.16C109.064 28.912 109.82 31.156 109.82 33.892C109.82 36.628 109.04 38.884 107.48 40.66C105.944 42.436 103.82 43.324 101.108 43.324ZM101.072 27.484C99.5122 27.484 98.3002 28.108 97.4362 29.356C96.5722 30.58 96.1402 32.104 96.1402 33.928C96.1402 35.728 96.5842 37.252 97.4722 38.5C98.3602 39.724 99.5722 40.336 101.108 40.336C102.74 40.336 103.976 39.736 104.816 38.536C105.68 37.336 106.112 35.812 106.112 33.964C106.112 32.068 105.704 30.52 104.888 29.32C104.072 28.096 102.8 27.484 101.072 27.484ZM118.477 43L111.997 24.748H115.705L118.189 32.452C118.765 34.228 119.245 35.764 119.629 37.06C120.037 38.356 120.289 39.208 120.385 39.616L120.529 40.228C120.745 39.052 121.537 36.46 122.905 32.452L125.461 24.748H129.133L122.509 43H118.477ZM132.433 43V24.748H135.997V43H132.433ZM132.613 20.752C132.205 20.32 132.001 19.792 132.001 19.168C132.001 18.544 132.205 18.016 132.613 17.584C133.045 17.152 133.573 16.936 134.197 16.936C134.821 16.936 135.349 17.152 135.781 17.584C136.213 18.016 136.429 18.544 136.429 19.168C136.429 19.768 136.213 20.284 135.781 20.716C135.349 21.148 134.821 21.364 134.197 21.364C133.573 21.364 133.045 21.16 132.613 20.752ZM151.517 25.36V28.564C150.341 27.868 148.829 27.52 146.981 27.52C146.141 27.52 145.469 27.712 144.965 28.096C144.485 28.48 144.245 28.984 144.245 29.608C144.245 29.776 144.257 29.944 144.281 30.112C144.329 30.256 144.401 30.412 144.497 30.58C144.593 30.724 144.677 30.856 144.749 30.976C144.845 31.072 144.989 31.18 145.181 31.3C145.373 31.42 145.517 31.528 145.613 31.624C145.733 31.696 145.913 31.792 146.153 31.912C146.417 32.032 146.609 32.128 146.729 32.2C146.849 32.248 147.053 32.344 147.341 32.488C147.653 32.608 147.869 32.692 147.989 32.74C149.405 33.364 150.509 34.072 151.301 34.864C152.117 35.632 152.525 36.664 152.525 37.96C152.525 39.592 151.949 40.876 150.797 41.812C149.645 42.724 148.085 43.18 146.117 43.18C143.957 43.18 142.157 42.82 140.717 42.1V38.752C142.397 39.784 144.137 40.3 145.937 40.3C146.873 40.3 147.593 40.108 148.097 39.724C148.625 39.34 148.889 38.836 148.889 38.212C148.889 37.684 148.685 37.216 148.277 36.808C147.869 36.376 147.449 36.064 147.017 35.872C146.609 35.656 145.901 35.332 144.893 34.9C142.037 33.724 140.609 31.996 140.609 29.716C140.609 28.108 141.209 26.848 142.409 25.936C143.609 25.024 145.109 24.568 146.909 24.568C148.877 24.568 150.413 24.832 151.517 25.36ZM167.535 32.56V31.912C167.487 30.544 167.115 29.464 166.419 28.672C165.723 27.856 164.727 27.448 163.431 27.448C162.231 27.448 161.199 27.892 160.335 28.78C159.471 29.644 158.931 30.904 158.715 32.56H167.535ZM169.803 38.86V42.028C168.459 42.796 166.683 43.18 164.475 43.18C161.643 43.18 159.387 42.328 157.707 40.624C156.027 38.92 155.187 36.688 155.187 33.928C155.187 31 155.955 28.708 157.491 27.052C159.027 25.372 160.983 24.532 163.359 24.532C165.687 24.532 167.535 25.264 168.903 26.728C170.271 28.168 170.955 30.256 170.955 32.992C170.955 33.736 170.883 34.516 170.739 35.332H158.751C158.991 36.916 159.663 38.128 160.767 38.968C161.871 39.808 163.263 40.228 164.943 40.228C166.887 40.228 168.507 39.772 169.803 38.86Z" fill="#646CAB"/>
<path d="M0 30.2532C0 16.8584 10.5831 6 23.6382 6C36.6933 6 47.2765 16.8584 47.2765 30.2532C47.2765 43.6479 36.6933 54.5064 23.6382 54.5064C22.4375 54.5064 21.2554 54.4148 20.1031 54.2356L15.6275 58L16.5196 53.3851C16.5173 53.3843 16.515 53.3836 16.5128 53.3829L19.151 39.7771H24.541C28.5002 39.7771 31.8008 38.7529 34.4466 36.7045C37.0886 34.656 38.7768 31.7658 39.5111 28.0336C40.1811 24.5963 39.5225 21.7759 37.5353 19.5723C35.5481 17.3687 32.7396 16.2669 29.1172 16.2669H8.75711L7.50803 22.6682H27.8719C29.4352 22.6682 30.5139 23.1531 31.1044 24.1269C31.6949 25.1007 31.8311 26.4197 31.5132 28.0841C31.2104 29.6049 30.5404 30.8657 29.4995 31.8705C28.4624 32.8753 27.2247 33.3758 25.7863 33.3758H20.3963L21.8725 25.8727H13.8519L9.23443 49.5501C3.58761 45.1386 0 38.1523 0 30.2532Z" fill="#646CAB"/>
</g>
<defs>
<clipPath id="clip0_1567_14">
<rect width="173" height="65" fill="white"/>
</clipPath>
</defs>
</svg>
