<svg width="145" height="65" viewBox="0 0 145 65" fill="none" xmlns="http://www.w3.org/2000/svg">
<path d="M7.51213 40.8842C6.58399 40.8842 5.67518 40.778 4.78572 40.5656C3.89625 40.3532 3.0938 40.0153 2.37836 39.552C1.66292 39.0693 1.08283 38.4514 0.638096 37.6985C0.212699 36.9455 0 36.038 0 34.9761H4.06061C4.06061 35.092 4.09928 35.2754 4.17663 35.5264C4.27331 35.7581 4.44733 36.0091 4.69871 36.2794C4.96941 36.5497 5.34647 36.7814 5.82987 36.9744C6.33262 37.1482 6.99972 37.2351 7.83117 37.2351C8.19856 37.2351 8.57562 37.2061 8.96235 37.1482C9.34907 37.0903 9.67779 36.9744 9.94849 36.8007C10.2192 36.6076 10.3546 36.318 10.3546 35.9319C10.3546 35.5264 10.1612 35.2078 9.77447 34.9761C9.40708 34.7445 8.914 34.561 8.29525 34.4259C7.69582 34.2714 7.02872 34.117 6.29394 33.9625C5.5785 33.8081 4.86306 33.615 4.14762 33.3833C3.43218 33.1516 2.77475 32.8427 2.17533 32.4566C1.59524 32.0511 1.14084 31.5395 0.812122 30.9216C0.502742 30.2845 0.377057 29.4929 0.435065 28.5468C0.531746 27.1181 1.20851 26.008 2.46537 25.2164C3.72222 24.4055 5.47215 24 7.71516 24C8.914 24 10.0355 24.2124 11.0797 24.6371C12.1432 25.0619 13.0036 25.7087 13.661 26.5775C14.3378 27.4463 14.6762 28.5468 14.6762 29.879H10.7606C10.7606 29.2805 10.5576 28.8365 10.1515 28.5468C9.7648 28.2379 9.29106 28.0352 8.73031 27.9387C8.1889 27.8421 7.69582 27.7939 7.25109 27.7939C6.53565 27.7939 5.93622 27.8807 5.45282 28.0545C4.98875 28.2283 4.75671 28.5662 4.75671 29.0681C4.75671 29.5122 4.95008 29.8597 5.3368 30.1107C5.72353 30.3424 6.22627 30.5355 6.84503 30.6899C7.46379 30.8251 8.14055 30.9699 8.87533 31.1244C9.62945 31.2595 10.3739 31.4333 11.1087 31.6457C11.8434 31.858 12.5009 32.1573 13.081 32.5434C13.6804 32.9103 14.1445 33.4026 14.4732 34.0204C14.8212 34.6383 14.9566 35.4299 14.8792 36.3952C14.7826 37.8047 14.0671 38.9052 12.7329 39.6968C11.418 40.4884 9.67779 40.8842 7.51213 40.8842Z" fill="#646CAB"/>
<path d="M28.8299 40.8842C27.283 40.8842 25.8714 40.5752 24.5952 39.9574C23.319 39.3396 22.3039 38.4128 21.5498 37.1772C20.7957 35.9415 20.4283 34.4066 20.4476 32.5724C20.4669 30.7768 20.844 29.2419 21.5788 27.9676C22.3329 26.674 23.348 25.6894 24.6242 25.0136C25.9004 24.3379 27.3313 24 28.9169 24C30.5605 24 31.943 24.2993 33.0645 24.8978C34.186 25.477 35.0561 26.2493 35.6749 27.2147C36.313 28.1607 36.7191 29.184 36.8931 30.2845H32.7165C32.6198 29.5508 32.3394 29.0102 31.8753 28.6627C31.4306 28.3152 30.9279 28.0931 30.3671 27.9966C29.8257 27.8808 29.3423 27.8228 28.9169 27.8228C27.4087 27.8228 26.2872 28.2186 25.5524 29.0102C24.8176 29.7825 24.4502 30.8637 24.4502 32.2538C24.4502 33.7791 24.8079 34.9665 25.5234 35.816C26.2388 36.6655 27.3603 37.0903 28.8879 37.0903C29.3326 37.0903 29.8354 37.0324 30.3961 36.9165C30.9569 36.7814 31.4596 36.5207 31.9043 36.1346C32.3684 35.7484 32.6488 35.1692 32.7455 34.3969H36.9511C36.7577 35.5361 36.342 36.6076 35.7039 37.6116C35.0658 38.5963 34.1763 39.3878 33.0355 39.9864C31.914 40.5849 30.5121 40.8842 28.8299 40.8842Z" fill="#646CAB"/>
<path d="M50.2176 41C47.5106 41 45.4416 40.2374 44.0107 38.7121C42.5798 37.1675 41.8644 35.092 41.8644 32.4855C41.8644 30.7672 42.1738 29.2805 42.7925 28.0256C43.4113 26.7513 44.3394 25.7666 45.5769 25.0716C46.8145 24.3572 48.3614 24 50.2176 24C52.9247 24 54.984 24.7723 56.3956 26.3169C57.8071 27.8421 58.5129 29.8984 58.5129 32.4855C58.5129 34.1652 58.1938 35.6519 57.5557 36.9455C56.937 38.2198 56.0088 39.2141 54.7713 39.9284C53.5531 40.6428 52.0352 41 50.2176 41ZM50.1596 37.0903C51.1458 37.0903 51.9579 36.8876 52.596 36.4821C53.2534 36.0574 53.7368 35.4974 54.0462 34.8024C54.3749 34.088 54.5393 33.3157 54.5393 32.4855C54.5393 31.636 54.3749 30.8541 54.0462 30.1397C53.7368 29.4253 53.2534 28.8558 52.596 28.431C51.9579 28.0062 51.1458 27.7939 50.1596 27.7939C48.7481 27.7939 47.6653 28.2379 46.9111 29.1261C46.1764 30.0142 45.809 31.134 45.809 32.4855C45.809 33.2964 45.9637 34.0591 46.273 34.7734C46.6018 35.4685 47.0852 36.0284 47.7233 36.4532C48.3614 36.8779 49.1735 37.0903 50.1596 37.0903Z" fill="#646CAB"/>
<path d="M68.6975 40.5945H64.6369V24.2896H71.5399C73.3962 24.2896 74.8561 24.7723 75.9196 25.7376C77.0024 26.6837 77.5438 28.1124 77.5438 30.0239C77.5438 31.6457 76.9927 32.9296 75.8906 33.8756C74.7884 34.8024 73.3382 35.2658 71.5399 35.2658H68.6975V40.5945ZM70.9308 27.5332H68.6975V32.4276H70.9308C71.7429 32.4276 72.439 32.2249 73.0191 31.8194C73.5992 31.3947 73.8893 30.7768 73.8893 29.9659C73.8893 29.1357 73.5992 28.5275 73.0191 28.1414C72.4584 27.7359 71.7623 27.5332 70.9308 27.5332Z" fill="#646CAB"/>
<path d="M83.7027 40.5945V24.2896H90.3447C92.4717 24.2896 94.1539 24.6661 95.3915 25.4191C96.629 26.1721 97.2477 27.4367 97.2477 29.2129C97.2477 30.6803 96.919 31.8194 96.2616 32.6303C95.6235 33.4412 94.7534 33.8467 93.6512 33.8467C94.1926 33.8467 94.5987 33.9722 94.8694 34.2232C95.1594 34.4549 95.3625 34.7638 95.4785 35.1499C95.6138 35.5168 95.7202 35.8932 95.7975 36.2794C95.8749 36.6655 95.9812 37.0131 96.1166 37.322C96.2519 37.6116 96.4646 37.8047 96.7547 37.9012C97.064 37.9784 97.4991 37.9012 98.0599 37.6695V39.8705C97.5184 40.3339 96.919 40.6332 96.2616 40.7683C95.6042 40.9228 94.9757 40.8842 94.3763 40.6525C93.7962 40.4401 93.3128 40.025 92.9261 39.4072C92.5394 38.77 92.346 37.9108 92.346 36.8296C92.346 36.3663 92.3073 35.9512 92.23 35.5843C92.172 35.1982 91.998 34.8796 91.7079 34.6286C91.4179 34.3776 90.9635 34.2135 90.3447 34.1363C89.7259 34.0397 88.8655 34.0397 87.7633 34.1363V40.5945H83.7027ZM87.7633 31.2981H89.7936C90.6831 31.2981 91.4082 31.2885 91.9689 31.2692C92.5297 31.2499 92.9454 31.1244 93.2161 30.8927C93.5062 30.6417 93.6512 30.1976 93.6512 29.5605C93.6512 28.8461 93.4772 28.3538 93.1291 28.0835C92.8004 27.7939 92.3073 27.6298 91.6499 27.5911C91.0118 27.5525 90.219 27.5332 89.2715 27.5332H87.7633V31.2981Z" fill="#646CAB"/>
<path d="M111.783 41C109.346 41 107.5 40.3629 106.243 39.0886C105.005 37.795 104.386 35.9801 104.386 33.644V24.2896H108.737V33.615C108.737 34.4259 108.843 35.0727 109.056 35.5554C109.269 36.0187 109.53 36.3663 109.839 36.598C110.168 36.8296 110.506 36.9841 110.854 37.0613C111.202 37.1192 111.512 37.1482 111.783 37.1482C112.227 37.1482 112.682 37.0806 113.146 36.9455C113.629 36.8103 114.035 36.4918 114.364 35.9898C114.693 35.4878 114.857 34.6962 114.857 33.615V24.2896H119.208V33.644C119.208 36.0187 118.589 37.8433 117.351 39.1175C116.133 40.3725 114.277 41 111.783 41Z" fill="#646CAB"/>
<path d="M126.118 40.5945V24.2896H133.166L135.574 38.9148H135.632L137.981 24.2896H145V40.5945H140.794L141.084 25.9983H141.055L138.503 40.5945H132.615L130.121 25.9983H130.063L130.324 40.5945H126.118Z" fill="#646CAB"/>
</svg>
