<svg width="146" height="65" viewBox="0 0 146 65" fill="none" xmlns="http://www.w3.org/2000/svg">
<path fill-rule="evenodd" clip-rule="evenodd" d="M42.2425 23.813C41.009 22.197 39.3846 20.9274 37.3691 20.0042C35.0289 18.8942 32.3205 18.3393 29.244 18.3393H15.6364V45.4419H29.244C32.3205 45.4419 35.0289 44.8998 37.3691 43.8157C39.3841 42.8707 41.0084 41.5888 42.2418 39.9701C39.0269 48.061 31.1267 53.7811 21.8905 53.7811C9.80073 53.7811 0 43.9804 0 31.8905C0 19.8007 9.80073 10 21.8905 10C31.1275 10 39.0282 15.721 42.2425 23.813ZM33.6221 36.6529C32.4388 37.7628 30.848 38.3178 28.8496 38.3178H24.9448V25.4634H28.8496C30.848 25.4634 32.4388 26.0313 33.6221 27.167C34.8317 28.2769 35.4364 29.8514 35.4364 31.8906C35.4364 33.9297 34.8317 35.5172 33.6221 36.6529Z" fill="#646CAB"/>
<path d="M65.6308 36.8733C65.6308 36.9775 65.5995 37.53 65.5369 38.5307H53.6535C53.9037 39.177 54.3206 39.6774 54.9044 40.0318C55.4881 40.3654 56.2178 40.5322 57.0934 40.5322C57.844 40.5322 58.4694 40.4383 58.9698 40.2507C59.491 40.0631 60.0539 39.7399 60.6585 39.2813L64.3486 43.0027C62.6807 44.8373 60.1894 45.7546 56.8745 45.7546C54.8106 45.7546 52.9968 45.3793 51.4332 44.6288C49.8696 43.8574 48.6604 42.7942 47.8056 41.439C46.9508 40.0839 46.5234 38.562 46.5234 36.8733C46.5234 35.1638 46.9404 33.6418 47.7743 32.3076C48.6291 30.9524 49.7862 29.8996 51.2455 29.1491C52.7258 28.3985 54.3832 28.0233 56.2178 28.0233C57.9482 28.0233 59.5223 28.3673 60.9399 29.0553C62.3784 29.7432 63.5147 30.7544 64.3486 32.0887C65.2034 33.4229 65.6308 35.0178 65.6308 36.8733ZM56.2804 32.8392C55.5507 32.8392 54.9461 33.0372 54.4666 33.4334C53.9871 33.8295 53.6743 34.3924 53.5284 35.1221H59.0323C58.8864 34.4132 58.5737 33.8608 58.0942 33.4646C57.6146 33.0477 57.0101 32.8392 56.2804 32.8392Z" fill="#646CAB"/>
<path d="M74.4393 28.0233C77.4414 28.0233 79.7347 28.7008 81.3191 30.056C82.9036 31.3902 83.6958 33.4542 83.6958 36.2479V45.4419H77.1287V43.1903C76.3156 44.8998 74.6999 45.7546 72.2815 45.7546C70.9263 45.7546 69.7693 45.5253 68.8103 45.0666C67.8721 44.5871 67.1528 43.9512 66.6525 43.159C66.173 42.3459 65.9332 41.439 65.9332 40.4383C65.9332 38.7496 66.5795 37.4675 67.8721 36.5919C69.1647 35.7162 71.1244 35.2784 73.7513 35.2784H76.597C76.3677 33.9441 75.294 33.277 73.376 33.277C72.6046 33.277 71.8228 33.4021 71.0306 33.6523C70.2384 33.8816 69.5608 34.2047 68.9979 34.6217L66.7463 29.9621C67.7262 29.3576 68.9041 28.8885 70.2801 28.5549C71.6769 28.2005 73.0633 28.0233 74.4393 28.0233ZM74.408 41.5016C74.9083 41.5016 75.3566 41.3661 75.7527 41.0951C76.1488 40.824 76.4407 40.4175 76.6283 39.8754V38.6871H74.8771C73.4385 38.6871 72.7193 39.1666 72.7193 40.1256C72.7193 40.5217 72.8652 40.8553 73.1571 41.1263C73.4698 41.3765 73.8868 41.5016 74.408 41.5016Z" fill="#646CAB"/>
<path d="M86.1248 22.2379H93.1923V45.4419H86.1248V22.2379Z" fill="#646CAB"/>
<path d="M104.737 45.7546C102.84 45.7546 101.13 45.3793 99.6085 44.6288C98.1074 43.8574 96.9295 42.8046 96.0747 41.4703C95.22 40.1152 94.7926 38.5829 94.7926 36.8733C94.7926 35.1638 95.22 33.6418 96.0747 32.3076C96.9295 30.9524 98.1074 29.8996 99.6085 29.1491C101.13 28.3985 102.84 28.0233 104.737 28.0233C106.655 28.0233 108.365 28.3985 109.866 29.1491C111.388 29.8996 112.566 30.9524 113.4 32.3076C114.254 33.6418 114.682 35.1638 114.682 36.8733C114.682 38.5829 114.254 40.1152 113.4 41.4703C112.566 42.8046 111.388 43.8574 109.866 44.6288C108.365 45.3793 106.655 45.7546 104.737 45.7546ZM104.737 40.2507C105.55 40.2507 106.217 39.9588 106.739 39.3751C107.26 38.7705 107.52 37.9366 107.52 36.8733C107.52 35.81 107.26 34.9865 106.739 34.4028C106.217 33.8191 105.55 33.5272 104.737 33.5272C103.924 33.5272 103.257 33.8191 102.736 34.4028C102.215 34.9865 101.954 35.81 101.954 36.8733C101.954 37.9366 102.215 38.7705 102.736 39.3751C103.257 39.9588 103.924 40.2507 104.737 40.2507Z" fill="#646CAB"/>
<path d="M138.909 28.0233C140.973 28.0233 142.62 28.6591 143.85 29.9309C145.101 31.2026 145.727 33.1206 145.727 35.685V45.4419H138.659V36.9046C138.659 34.9449 138.023 33.965 136.752 33.965C136.084 33.965 135.542 34.2152 135.125 34.7155C134.729 35.2159 134.531 36.0081 134.531 37.0922V45.4419H127.464V36.9046C127.464 34.9449 126.828 33.965 125.556 33.965C124.889 33.965 124.347 34.2152 123.93 34.7155C123.534 35.2159 123.336 36.0081 123.336 37.0922V45.4419H116.268V28.336H122.992V29.9309C124.264 28.6591 125.879 28.0233 127.839 28.0233C128.986 28.0233 130.018 28.2422 130.935 28.68C131.852 29.097 132.603 29.7432 133.187 30.6189C133.875 29.7849 134.708 29.1491 135.688 28.7113C136.668 28.2526 137.742 28.0233 138.909 28.0233Z" fill="#646CAB"/>
</svg>
