<svg width="169" height="65" viewBox="0 0 169 65" fill="none" xmlns="http://www.w3.org/2000/svg">
<path d="M90.3712 20.7777C89.9833 20.8128 89.6131 20.8831 89.2605 20.9885C88.9079 21.0939 88.5436 21.2579 88.1675 21.4805C87.6621 21.7733 87.2684 22.0896 86.9863 22.4293C86.716 22.7572 86.4456 23.2141 86.1753 23.7997C85.811 24.608 85.2997 25.791 84.6415 27.3489C83.9833 28.8951 83.2311 30.658 82.3849 32.6376C81.6327 34.4181 80.8159 36.3684 79.9344 38.4885C79.0646 40.6086 78.2302 42.6409 77.431 44.5854H73.8874C72.2419 40.5676 70.5671 36.4855 68.8629 32.3389C67.1587 28.1923 65.9598 25.3108 65.2664 23.6943C64.9961 23.1086 64.7316 22.6694 64.4731 22.3766C64.2262 22.072 63.8266 21.7616 63.2742 21.4453C62.8746 21.2228 62.522 21.0705 62.2165 20.9885C61.9109 20.8948 61.5054 20.8128 61 20.7425V19.372H74.5573V20.7074C73.288 20.8597 72.4241 21.0236 71.9657 21.1993C71.5191 21.3633 71.2958 21.5742 71.2958 21.8319C71.2958 21.9607 71.3134 22.1013 71.3487 22.2536C71.3957 22.3941 71.4603 22.5874 71.5426 22.8334C71.9187 23.8642 72.6004 25.5509 73.5877 27.8936C74.5749 30.2246 76.0382 33.7855 77.9775 38.5764C79.1645 35.6597 80.1518 33.194 80.9393 31.1793C81.7267 29.1645 82.4202 27.3841 83.0196 25.8379C83.3134 25.0882 83.5544 24.3913 83.7424 23.747C83.9422 23.0911 84.0421 22.5991 84.0421 22.2711C84.0421 21.8963 83.7718 21.5859 83.2311 21.3399C82.6905 21.0822 81.6915 20.8948 80.2341 20.7777V19.372H90.3712V20.7777Z" fill="#646CAB"/>
<path d="M101.831 44.3043H90.6885V43.0216C90.9941 42.9982 91.2938 42.9689 91.5877 42.9338C91.8815 42.8986 92.1342 42.8401 92.3457 42.7581C92.7218 42.6175 92.9863 42.4184 93.1391 42.1607C93.2919 41.8913 93.3683 41.5399 93.3683 41.1065V30.8806C93.3683 30.4706 93.2742 30.1133 93.0862 29.8088C92.8981 29.4925 92.6631 29.2407 92.381 29.0533C92.1694 28.9127 91.8462 28.778 91.4114 28.6491C90.9882 28.5203 90.6004 28.4383 90.2478 28.4032V27.1205L98.8864 26.6637L99.1508 26.9273V40.8781C99.1508 41.288 99.239 41.6394 99.4153 41.9323C99.5916 42.2134 99.8443 42.4242 100.173 42.5648C100.408 42.6702 100.667 42.7639 100.949 42.8459C101.231 42.9279 101.525 42.9865 101.831 43.0216V44.3043ZM99.2566 20.3384C99.2566 21.2286 98.9099 21.99 98.2165 22.6225C97.5348 23.2434 96.7238 23.5538 95.7835 23.5538C94.8315 23.5538 94.0088 23.2434 93.3154 22.6225C92.6337 21.99 92.2928 21.2286 92.2928 20.3384C92.2928 19.4482 92.6337 18.6868 93.3154 18.0543C94.0088 17.4217 94.8315 17.1055 95.7835 17.1055C96.7356 17.1055 97.5524 17.4217 98.2341 18.0543C98.9158 18.6868 99.2566 19.4482 99.2566 20.3384Z" fill="#646CAB"/>
<path d="M111.615 44.9017C110.475 44.9017 109.358 44.7318 108.265 44.3921C107.184 44.0641 106.344 43.7127 105.744 43.3379L105.215 44.5327H103.84L103.611 37.979H104.898C105.074 38.5061 105.368 39.1035 105.78 39.7711C106.191 40.4271 106.661 41.0186 107.19 41.5457C107.742 42.0728 108.371 42.518 109.076 42.8811C109.793 43.2442 110.557 43.4257 111.368 43.4257C112.438 43.4257 113.231 43.2208 113.748 42.8108C114.277 42.3891 114.542 41.7449 114.542 40.8781C114.542 40.4095 114.424 40.023 114.189 39.7184C113.954 39.4139 113.631 39.1503 113.219 38.9278C112.761 38.6935 112.256 38.4944 111.703 38.3304C111.163 38.1664 110.493 37.9672 109.693 37.733C108.894 37.4987 108.207 37.2644 107.631 37.0302C107.067 36.7842 106.479 36.4035 105.868 35.8881C105.339 35.4313 104.916 34.8807 104.598 34.2365C104.281 33.5922 104.122 32.825 104.122 31.9348C104.122 30.2832 104.816 28.9478 106.203 27.9288C107.601 26.9097 109.429 26.4001 111.686 26.4001C112.755 26.4001 113.737 26.5114 114.63 26.734C115.535 26.9448 116.293 27.1791 116.904 27.4368L117.274 26.4001H118.614L118.896 32.3916H117.644C117.233 31.1734 116.528 30.125 115.529 29.2465C114.53 28.3563 113.454 27.9112 112.303 27.9112C111.398 27.9112 110.687 28.0986 110.169 28.4734C109.652 28.8483 109.394 29.3695 109.394 30.0372C109.394 30.9274 109.77 31.5717 110.522 31.9699C111.286 32.3682 112.35 32.743 113.713 33.0944C115.817 33.6332 117.357 34.3712 118.332 35.3083C119.308 36.2336 119.795 37.4167 119.795 38.8575C119.795 40.7785 119.037 42.2661 117.521 43.3203C116.017 44.3745 114.048 44.9017 111.615 44.9017Z" fill="#646CAB"/>
<path d="M133.106 44.3043H121.964V43.0216C122.269 42.9982 122.569 42.9689 122.863 42.9338C123.157 42.8986 123.409 42.8401 123.621 42.7581C123.997 42.6175 124.262 42.4184 124.414 42.1607C124.567 41.8913 124.643 41.5399 124.643 41.1065V30.8806C124.643 30.4706 124.549 30.1133 124.361 29.8088C124.173 29.4925 123.938 29.2407 123.656 29.0533C123.445 28.9127 123.121 28.778 122.687 28.6491C122.263 28.5203 121.876 28.4383 121.523 28.4032V27.1205L130.162 26.6637L130.426 26.9273V40.8781C130.426 41.288 130.514 41.6394 130.69 41.9323C130.867 42.2134 131.119 42.4242 131.449 42.5648C131.684 42.6702 131.942 42.7639 132.224 42.8459C132.506 42.9279 132.8 42.9865 133.106 43.0216V44.3043ZM130.532 20.3384C130.532 21.2286 130.185 21.99 129.492 22.6225C128.81 23.2434 127.999 23.5538 127.059 23.5538C126.107 23.5538 125.284 23.2434 124.591 22.6225C123.909 21.99 123.568 21.2286 123.568 20.3384C123.568 19.4482 123.909 18.6868 124.591 18.0543C125.284 17.4217 126.107 17.1055 127.059 17.1055C128.011 17.1055 128.828 17.4217 129.509 18.0543C130.191 18.6868 130.532 19.4482 130.532 20.3384Z" fill="#646CAB"/>
<path d="M147.844 43.496C147.092 43.824 146.287 44.1168 145.429 44.3745C144.571 44.644 143.525 44.7787 142.291 44.7787C140.457 44.7787 139.094 44.3335 138.201 43.4433C137.319 42.5531 136.879 41.2822 136.879 39.6306V28.8424H133.705V26.9448H136.949V21.621H142.679V26.9448H147.615V28.8424H142.714V38.4709C142.714 39.8414 142.902 40.8136 143.278 41.3876C143.666 41.9616 144.354 42.2485 145.341 42.2485C145.658 42.2485 146.099 42.2251 146.663 42.1783C147.227 42.1314 147.621 42.0787 147.844 42.0201V43.496Z" fill="#646CAB"/>
<path d="M169 28.1572C168.471 28.2392 167.954 28.4383 167.449 28.7546C166.955 29.0708 166.544 29.5628 166.214 30.2305C165.204 32.3623 164.164 34.6348 163.094 37.0477C162.024 39.449 160.837 42.0494 159.533 44.8489C158.804 46.4186 158.099 47.6719 157.417 48.609C156.736 49.5461 156.095 50.2664 155.496 50.7701C154.931 51.2387 154.373 51.5784 153.821 51.7892C153.268 52 152.71 52.1055 152.146 52.1055C151.029 52.1055 150.124 51.7951 149.431 51.1742C148.749 50.5534 148.408 49.8565 148.408 49.0834C148.408 48.7554 148.444 48.4508 148.514 48.1697C148.596 47.8886 148.761 47.5958 149.008 47.2912C149.196 47.0335 149.484 46.811 149.872 46.6235C150.271 46.4478 150.718 46.36 151.212 46.36C151.87 46.36 152.499 46.5884 153.098 47.0452C153.697 47.5021 154.32 48.1346 154.967 48.9428C155.355 48.5563 155.831 47.9765 156.395 47.2034C156.971 46.442 157.394 45.6572 157.664 44.8489C156.265 41.9206 155.025 39.3846 153.944 37.241C152.863 35.0857 151.652 32.6845 150.312 30.0372C150.019 29.4749 149.625 29.0415 149.131 28.737C148.638 28.4207 148.115 28.2275 147.562 28.1572V26.8745H158.352V28.1572C157.952 28.1689 157.488 28.2567 156.959 28.4207C156.442 28.5847 156.183 28.7956 156.183 29.0533C156.183 29.147 156.201 29.2524 156.236 29.3695C156.271 29.4749 156.336 29.6331 156.43 29.8439C156.83 30.6639 157.394 31.8059 158.122 33.2701C158.863 34.7226 159.721 36.4269 160.696 38.3831C161.425 36.7198 162.042 35.2907 162.548 34.0959C163.065 32.8894 163.564 31.7064 164.046 30.5467C164.164 30.2539 164.228 30.0255 164.24 29.8615C164.263 29.6858 164.275 29.5687 164.275 29.5101C164.275 29.2992 164.169 29.1177 163.958 28.9654C163.758 28.8014 163.517 28.6609 163.235 28.5437C162.941 28.4266 162.659 28.3387 162.389 28.2802C162.119 28.2216 161.895 28.1806 161.719 28.1572V26.8745H169V28.1572Z" fill="#646CAB"/>
<g clip-path="url(#clip0_1567_10)">
<path d="M12 11.1055C18.6441 11.1055 24 16.952 24 24.1055V33.6055L4.94915 16.4705L19.5275 37.1055H12C5.35593 37.1055 0 31.2589 0 24.1055V11.1055H12Z" fill="#646CAB"/>
<path d="M32 15.1055C23.1186 15.1055 16 22.9527 16 32.6055L16.4555 47.0766L41.4237 22.3277L19.4597 50.1055H32C40.8814 50.1055 48 42.2582 48 32.6055V15.1055H32Z" fill="#646CAB"/>
</g>
<defs>
<clipPath id="clip0_1567_10">
<rect width="48.354" height="39.2876" fill="white" transform="translate(0 11)"/>
</clipPath>
</defs>
</svg>
