<svg width="150" height="65" viewBox="0 0 150 65" fill="none" xmlns="http://www.w3.org/2000/svg">
<g clip-path="url(#clip0_1567_7)">
<path d="M49.6445 25.9364H56.3243V53.7812H49.6445V25.9364Z" fill="#646CAB"/>
<path d="M70.5551 33.2541C73.8574 33.2541 76.3967 34.2298 78.173 36.1812C79.9493 38.1326 80.8374 40.8095 80.8374 44.2119C80.8374 44.7372 80.8249 45.1375 80.7999 45.4127H66.6898C67.0151 46.5635 67.578 47.4517 68.3785 48.0771C69.1791 48.6775 70.1548 48.9778 71.3056 48.9778C72.1812 48.9778 73.0193 48.8026 73.8199 48.4524C74.6455 48.1021 75.396 47.5893 76.0715 46.9138L79.5615 50.4038C78.5107 51.5796 77.2348 52.4802 75.7338 53.1057C74.2577 53.7061 72.5815 54.0063 70.7052 54.0063C68.5286 54.0063 66.6273 53.581 65.0011 52.7304C63.375 51.8798 62.1241 50.679 61.2485 49.1279C60.3979 47.5768 59.9726 45.7755 59.9726 43.724C59.9726 41.6476 60.4104 39.8213 61.286 38.2451C62.1616 36.644 63.4 35.4181 65.0011 34.5675C66.6023 33.6919 68.4536 33.2541 70.5551 33.2541ZM74.3453 41.8477C74.3453 40.6719 73.995 39.7337 73.2945 39.0332C72.619 38.3077 71.7184 37.9449 70.5926 37.9449C69.5419 37.9449 68.6537 38.2952 67.9282 38.9957C67.2277 39.6962 66.7649 40.6468 66.5397 41.8477H74.3453Z" fill="#646CAB"/>
<path d="M83.1869 33.4793L100.975 33.5168V37.5697L91.2176 48.6775H101.35V53.7812H82.8492V49.7283L92.6061 38.6204H83.1869V33.4793Z" fill="#646CAB"/>
<path d="M124.755 33.4793V53.7812H118.075V50.4788C116.699 52.8305 114.535 54.0313 111.583 54.0814C109.381 54.0814 107.618 53.3809 106.292 51.9799C104.991 50.5539 104.34 48.665 104.34 46.3134V33.4793H111.02V44.3995C111.02 45.5503 111.308 46.451 111.883 47.1014C112.483 47.7519 113.284 48.0771 114.285 48.0771C115.461 48.0521 116.386 47.6268 117.062 46.8012C117.737 45.9506 118.075 44.8498 118.075 43.4989V33.4793H124.755Z" fill="#646CAB"/>
<path d="M127.872 33.4793H135.527L138.792 39.1833L142.32 33.4793H149.637L143.22 43.3863L150.088 53.7812H142.395L138.792 47.5893L134.777 53.7812H127.421L134.326 43.3863L127.872 33.4793Z" fill="#646CAB"/>
<path fill-rule="evenodd" clip-rule="evenodd" d="M1.03887 10H25.0143C38.5656 11.0424 44.82 19.3817 44.82 29.8057V53.7811H33.3286C34.4773 53.3652 35.4708 52.825 36.3093 52.1605C38.5244 50.4014 39.6319 47.7791 39.6319 44.2936C39.6319 42.3716 39.1352 40.7429 38.1416 39.4073C37.1481 38.0717 35.7229 37.1596 33.8661 36.671C35.5112 36.052 36.7572 35.0911 37.6041 33.788C38.4511 32.485 38.8745 30.9133 38.8745 29.0728C38.8745 25.8804 37.6774 23.4454 35.2831 21.7678C32.9051 20.0902 29.4277 19.2514 24.8509 19.2514H12.0733V51.0866C6.11789 48.2024 1.66973 42.8067 1.03891 33.9754C0.951387 32.7501 1.03887 10 1.03887 10ZM20.6487 48.227V39.7004H26.6588C29.6069 39.7167 31.0809 41.2071 31.0809 44.1714C31.0809 45.4581 30.6656 46.4598 29.8349 47.1765C29.0043 47.8768 27.8153 48.227 26.2679 48.227H20.6487ZM25.1197 34.0812H20.6487V25.8723H24.8509C26.7729 25.8723 28.1655 26.2062 29.0287 26.874C29.8919 27.5255 30.3236 28.6004 30.3236 30.0989C30.3236 31.4019 29.9245 32.3873 29.1264 33.0551C28.3283 33.7229 26.9927 34.0649 25.1197 34.0812Z" fill="#646CAB"/>
</g>
<defs>
<clipPath id="clip0_1567_7">
<rect width="150" height="65" fill="white"/>
</clipPath>
</defs>
</svg>
