<svg width="165" height="33" viewBox="0 0 165 33" fill="none" xmlns="http://www.w3.org/2000/svg">
<rect y="8.48991" width="20" height="20" transform="rotate(-25.1187 0 8.48991)" fill="#860000"/>
<rect x="5" y="10.3306" width="24" height="24" transform="rotate(-25.4955 5 10.3306)" fill="#333333"/>
<path d="M41.6055 15.8984H39.4609V22.0391C39.4609 22.5547 39.5625 22.8984 39.7656 23.0703C39.9766 23.2422 40.3047 23.3281 40.75 23.3281C40.9609 23.3281 41.1484 23.3203 41.3125 23.3047C41.4766 23.2891 41.6172 23.2695 41.7344 23.2461L41.7227 25.918C41.4336 26.0117 41.1172 26.0859 40.7734 26.1406C40.4375 26.2031 40.0586 26.2344 39.6367 26.2344C38.4961 26.2344 37.5898 25.9414 36.918 25.3555C36.2539 24.7695 35.9219 23.7969 35.9219 22.4375V15.8984H34.1172V13.3203H35.9219V10.1914H39.4609V13.3203H41.6055V15.8984ZM46.9609 26H43.4219V13.3203H46.75L46.8672 14.832C47.1719 14.2852 47.5586 13.8594 48.0273 13.5547C48.4961 13.2422 49.0391 13.0859 49.6562 13.0859C49.8359 13.0859 50.0234 13.1016 50.2188 13.1328C50.4219 13.1562 50.5859 13.1914 50.7109 13.2383L50.6641 16.6484C50.4922 16.625 50.2852 16.6055 50.043 16.5898C49.8086 16.5664 49.6016 16.5547 49.4219 16.5547C48.1641 16.5547 47.3438 16.9648 46.9609 17.7852V26ZM58.9727 17.5508C58.9727 16.9805 58.832 16.5273 58.5508 16.1914C58.2695 15.8555 57.8203 15.6875 57.2031 15.6875C56.6641 15.6875 56.2461 15.8164 55.9492 16.0742C55.6523 16.332 55.5039 16.6914 55.5039 17.1523H51.9648C51.9648 16.4023 52.1875 15.7227 52.6328 15.1133C53.0781 14.4961 53.707 14.0039 54.5195 13.6367C55.332 13.2695 56.2891 13.0859 57.3906 13.0859C58.375 13.0859 59.2539 13.2539 60.0273 13.5898C60.8008 13.918 61.4102 14.4141 61.8555 15.0781C62.3008 15.7422 62.5234 16.5742 62.5234 17.5742V22.8711C62.5234 23.6211 62.5664 24.2148 62.6523 24.6523C62.7461 25.0898 62.875 25.4727 63.0391 25.8008V26H59.4766C59.3359 25.7031 59.2227 25.332 59.1367 24.8867C58.8086 25.2617 58.3867 25.582 57.8711 25.8477C57.3633 26.1055 56.7344 26.2344 55.9844 26.2344C55.1797 26.2344 54.4492 26.0742 53.793 25.7539C53.1445 25.4258 52.6289 24.9766 52.2461 24.4062C51.8633 23.8281 51.6719 23.168 51.6719 22.4258C51.6719 21.0977 52.1641 20.0703 53.1484 19.3438C54.1328 18.6094 55.5977 18.2422 57.543 18.2422H58.9727V17.5508ZM56.7695 23.5508C57.3164 23.5508 57.7773 23.4336 58.1523 23.1992C58.5352 22.957 58.8086 22.6914 58.9727 22.4023V20.2812H57.6484C56.7891 20.2812 56.168 20.4688 55.7852 20.8438C55.4023 21.2109 55.2109 21.6562 55.2109 22.1797C55.2109 22.5781 55.3516 22.9062 55.6328 23.1641C55.9141 23.4219 56.293 23.5508 56.7695 23.5508ZM71.3945 15.8984H69.25V22.0391C69.25 22.5547 69.3516 22.8984 69.5547 23.0703C69.7656 23.2422 70.0938 23.3281 70.5391 23.3281C70.75 23.3281 70.9375 23.3203 71.1016 23.3047C71.2656 23.2891 71.4062 23.2695 71.5234 23.2461L71.5117 25.918C71.2227 26.0117 70.9062 26.0859 70.5625 26.1406C70.2266 26.2031 69.8477 26.2344 69.4258 26.2344C68.2852 26.2344 67.3789 25.9414 66.707 25.3555C66.043 24.7695 65.7109 23.7969 65.7109 22.4375V15.8984H63.9062V13.3203H65.7109V10.1914H69.25V13.3203H71.3945V15.8984ZM79.1289 26.2344C77.793 26.2344 76.6484 25.957 75.6953 25.4023C74.75 24.8477 74.0234 24.1055 73.5156 23.1758C73.0156 22.2461 72.7656 21.2188 72.7656 20.0938V19.6367C72.7656 18.3711 73.0039 17.2461 73.4805 16.2617C73.9648 15.2773 74.6523 14.5039 75.543 13.9414C76.4336 13.3711 77.4961 13.0859 78.7305 13.0859C80.5664 13.0859 81.9648 13.6562 82.9258 14.7969C83.8867 15.9297 84.3672 17.4375 84.3672 19.3203V20.8203H76.3633C76.4883 21.5938 76.8086 22.2148 77.3242 22.6836C77.8477 23.1445 78.5234 23.375 79.3516 23.375C79.9531 23.375 80.5117 23.2656 81.0273 23.0469C81.5508 22.8203 82 22.4688 82.375 21.9922L84.0859 23.9492C83.6875 24.5195 83.0703 25.043 82.2344 25.5195C81.3984 25.9961 80.3633 26.2344 79.1289 26.2344ZM78.707 15.9336C78.0117 15.9336 77.4805 16.168 77.1133 16.6367C76.7461 17.0977 76.5039 17.6992 76.3867 18.4414H80.8867V18.1602C80.8789 17.5117 80.6992 16.9805 80.3477 16.5664C80.0039 16.1445 79.457 15.9336 78.707 15.9336ZM85.7148 19.5664C85.7148 18.2773 85.9219 17.1484 86.3359 16.1797C86.7578 15.2031 87.3555 14.4453 88.1289 13.9062C88.9023 13.3594 89.8203 13.0859 90.8828 13.0859C91.6172 13.0859 92.2422 13.207 92.7578 13.4492C93.2812 13.6914 93.7227 14.0352 94.082 14.4805L94.2227 13.3203H97.4336V25.543C97.4336 26.707 97.1719 27.6953 96.6484 28.5078C96.1328 29.3203 95.4102 29.9375 94.4805 30.3594C93.5508 30.7812 92.4727 30.9922 91.2461 30.9922C90.7227 30.9922 90.1641 30.9219 89.5703 30.7812C88.9766 30.6406 88.4062 30.4258 87.8594 30.1367C87.3203 29.8477 86.8711 29.4805 86.5117 29.0352L88.0586 26.8672C88.4336 27.2891 88.8789 27.6211 89.3945 27.8633C89.9102 28.1133 90.4766 28.2383 91.0938 28.2383C91.9766 28.2383 92.6602 28.0039 93.1445 27.5352C93.6367 27.0742 93.8828 26.4102 93.8828 25.543V24.9219C93.5078 25.3359 93.0703 25.6602 92.5703 25.8945C92.0781 26.1211 91.5078 26.2344 90.8594 26.2344C89.8047 26.2344 88.8906 25.957 88.1172 25.4023C87.3516 24.8398 86.7578 24.0742 86.3359 23.1055C85.9219 22.1367 85.7148 21.0391 85.7148 19.8125V19.5664ZM89.2656 19.8125C89.2656 20.8047 89.4648 21.6445 89.8633 22.332C90.2695 23.0195 90.9023 23.3633 91.7617 23.3633C92.2773 23.3633 92.707 23.2695 93.0508 23.082C93.3945 22.8945 93.6719 22.6328 93.8828 22.2969V17.0117C93.4531 16.3086 92.7539 15.957 91.7852 15.957C90.9336 15.957 90.3008 16.3047 89.8867 17C89.4727 17.6875 89.2656 18.543 89.2656 19.5664V19.8125ZM107.02 13.3203H110.805L105.742 27.8984C105.594 28.3203 105.371 28.7812 105.074 29.2812C104.785 29.7891 104.367 30.2227 103.82 30.582C103.281 30.9414 102.559 31.1211 101.652 31.1211C101.324 31.1211 101.059 31.1016 100.855 31.0625C100.652 31.0312 100.406 30.9766 100.117 30.8984V28.2266C100.281 28.2344 100.453 28.2383 100.633 28.2383C101.289 28.2383 101.77 28.1328 102.074 27.9219C102.387 27.7188 102.621 27.3984 102.777 26.9609L103.129 26.0469L98.6992 13.3203H102.508L104.758 20.9609L107.02 13.3203Z" fill="#333333"/>
<path d="M28.3154 20.4922C28.3154 19.916 28.1934 19.4229 27.9492 19.0127C27.7051 18.6025 27.2559 18.2266 26.6016 17.8848C25.957 17.543 25.0195 17.1816 23.7891 16.8008C22.4414 16.3906 21.2354 15.9072 20.1709 15.3506C19.1162 14.7842 18.2812 14.0908 17.666 13.2705C17.0508 12.4502 16.7432 11.4492 16.7432 10.2676C16.7432 9.11523 17.0654 8.09473 17.71 7.20605C18.3545 6.31738 19.248 5.62402 20.3906 5.12598C21.5332 4.62793 22.8564 4.37891 24.3604 4.37891C25.9521 4.37891 27.3242 4.67188 28.4766 5.25781C29.6387 5.83398 30.5273 6.61523 31.1426 7.60156C31.7676 8.58789 32.0801 9.68652 32.0801 10.8975H28.3008C28.3008 9.88184 27.9736 9.04688 27.3193 8.39258C26.6748 7.72852 25.6738 7.39648 24.3164 7.39648C23.0371 7.39648 22.085 7.6748 21.46 8.23145C20.835 8.77832 20.5225 9.45703 20.5225 10.2676C20.5225 11.0488 20.8936 11.7031 21.6357 12.2305C22.3877 12.748 23.5254 13.2314 25.0488 13.6807C27.4219 14.3838 29.1895 15.2627 30.3516 16.3174C31.5137 17.3623 32.0947 18.7441 32.0947 20.4629C32.0947 22.2695 31.4014 23.6953 30.0146 24.7402C28.6377 25.7754 26.792 26.293 24.4775 26.293C23.4521 26.293 22.4414 26.1562 21.4453 25.8828C20.4492 25.5996 19.5459 25.1797 18.7354 24.623C17.9346 24.0566 17.29 23.3486 16.8018 22.499C16.3232 21.6494 16.084 20.6484 16.084 19.4961H19.8633C19.8633 20.8535 20.3076 21.8252 21.1963 22.4111C22.085 22.9971 23.1787 23.29 24.4775 23.29C25.7471 23.29 26.7041 23.0312 27.3486 22.5137C27.9932 21.9863 28.3154 21.3125 28.3154 20.4922Z" fill="white"/>
<path d="M123.001 26H119.251V7.71875H112.659V4.67188H129.651V7.71875H123.001V26Z" fill="#333333"/>
<path d="M132.184 26.2344C130.848 26.2344 129.703 25.957 128.75 25.4023C127.805 24.8477 127.078 24.1055 126.57 23.1758C126.07 22.2461 125.82 21.2188 125.82 20.0938V19.6367C125.82 18.3711 126.059 17.2461 126.535 16.2617C127.02 15.2773 127.707 14.5039 128.598 13.9414C129.488 13.3711 130.551 13.0859 131.785 13.0859C133.621 13.0859 135.02 13.6562 135.98 14.7969C136.941 15.9297 137.422 17.4375 137.422 19.3203V20.8203H129.418C129.543 21.5938 129.863 22.2148 130.379 22.6836C130.902 23.1445 131.578 23.375 132.406 23.375C133.008 23.375 133.566 23.2656 134.082 23.0469C134.605 22.8203 135.055 22.4688 135.43 21.9922L137.141 23.9492C136.742 24.5195 136.125 25.043 135.289 25.5195C134.453 25.9961 133.418 26.2344 132.184 26.2344ZM131.762 15.9336C131.066 15.9336 130.535 16.168 130.168 16.6367C129.801 17.0977 129.559 17.6992 129.441 18.4414H133.941V18.1602C133.934 17.5117 133.754 16.9805 133.402 16.5664C133.059 16.1445 132.512 15.9336 131.762 15.9336ZM144.57 23.3867C145.172 23.3867 145.656 23.2227 146.023 22.8945C146.398 22.5586 146.59 22.1133 146.598 21.5586H149.926C149.918 22.4727 149.68 23.2812 149.211 23.9844C148.742 24.6875 148.109 25.2383 147.312 25.6367C146.516 26.0352 145.621 26.2344 144.629 26.2344C143.316 26.2344 142.223 25.9531 141.348 25.3906C140.48 24.8203 139.828 24.0508 139.391 23.082C138.961 22.1055 138.746 21.0195 138.746 19.8242V19.5078C138.746 18.3047 138.961 17.2188 139.391 16.25C139.828 15.2812 140.48 14.5117 141.348 13.9414C142.223 13.3711 143.312 13.0859 144.617 13.0859C145.664 13.0859 146.582 13.2891 147.371 13.6953C148.168 14.0938 148.789 14.668 149.234 15.418C149.688 16.1602 149.918 17.0508 149.926 18.0898H146.598C146.59 17.4961 146.414 16.9883 146.07 16.5664C145.727 16.1445 145.219 15.9336 144.547 15.9336C143.922 15.9336 143.445 16.1016 143.117 16.4375C142.797 16.7734 142.578 17.2148 142.461 17.7617C142.344 18.3008 142.285 18.8828 142.285 19.5078V19.8242C142.285 20.457 142.34 21.0469 142.449 21.5938C142.566 22.1328 142.789 22.5664 143.117 22.8945C143.445 23.2227 143.93 23.3867 144.57 23.3867ZM155.27 26H151.719V8H155.27V14.6562C155.684 14.1641 156.172 13.7812 156.734 13.5078C157.297 13.2266 157.918 13.0859 158.598 13.0859C159.848 13.0859 160.859 13.4609 161.633 14.2109C162.414 14.9609 162.805 16.2383 162.805 18.043V26H159.254V18.0195C159.254 17.2305 159.082 16.6914 158.738 16.4023C158.395 16.1055 157.91 15.957 157.285 15.957C156.793 15.957 156.383 16.0469 156.055 16.2266C155.727 16.4062 155.465 16.6523 155.27 16.9648V26Z" fill="#333333"/>
</svg>
