<?xml version="1.0" encoding="utf-8"?>
<!-- Svg Vector Icons : http://www.onlinewebfonts.com/icon -->
<!DOCTYPE svg PUBLIC "-//W3C//DTD SVG 1.1//EN" "http://www.w3.org/Graphics/SVG/1.1/DTD/svg11.dtd">
<svg version="1.1" xmlns="http://www.w3.org/2000/svg" xmlns:xlink="http://www.w3.org/1999/xlink" x="0px" y="0px" viewBox="0 0 1000 1000" enable-background="new 0 0 1000 1000" xml:space="preserve">
<metadata> Svg Vector Icons : http://www.onlinewebfonts.com/icon </metadata>
<g><g transform="translate(0.000000,511.000000) scale(0.100000,-0.100000)"><path d="M7852,4148.7v-248.8h424.9h426.8L7293,2489.2L5880.5,1076.6L4487,2470c-765.6,765.6-1401.1,1391.5-1410.7,1391.5s-685.2-666.1-1496.8-1477.7L100,904.3l338.8-338.8l340.7-340.7l1142.7,1142.7l1144.6,1144.6l1403-1403L5870.9-292L7631.8,1469c968.5,968.5,1766.7,1760.9,1774.3,1760.9c9.6,0,15.3-266.1,15.3-593.4v-593.4h239.3H9900v1177.1v1177.1H8876H7852V4148.7z"/><path d="M8575.5,1861.4l-532.1-520.6v-2758.2v-2760.1h736.9h736.9v2804.1v2804.1h-201h-201l-3.8,476.6l-5.7,474.7L8575.5,1861.4z"/><path d="M3066.8-1264.3v-2913.2h736.9h736.9v2178.2V177l-736.9,736.9l-736.9,736.9V-1264.3z"/><path d="M1449.4,33.4L894.3-521.6L731.6-358.9c-90,90-170.4,162.7-178,162.7c-7.7,0-11.5-893.9-9.6-1984.9l5.7-1986.8h736.9h736.9l5.7,2379.2c1.9,1307.3-1.9,2377.3-11.5,2377.3C2010.2,588.5,1753.7,339.7,1449.4,33.4z"/><path d="M6368.6-425.9l-612.5-612.5l-118.7,118.7l-120.6,118.7v-1688.2v-1688.2h736.9h736.9v2182c0,1200.1-1.9,2182-5.7,2182C6983,186.6,6705.4-89.1,6368.6-425.9z"/></g></g>
</svg>