<svg width="397" height="410" viewBox="0 0 397 410" fill="none" xmlns="http://www.w3.org/2000/svg">
<path d="M10 33.5H73.214C74.5947 33.5 75.714 34.6193 75.714 36V104.054C75.714 105.434 74.5947 106.554 73.214 106.554H10C8.61929 106.554 7.5 105.434 7.5 104.054V36C7.5 34.6193 8.61929 33.5 10 33.5Z" stroke="#8B0000" stroke-width="15"/>
<path d="M166.893 7.5H230.107C231.488 7.5 232.607 8.6193 232.607 10V78.0537C232.607 79.4344 231.488 80.5537 230.107 80.5537H166.893C165.512 80.5537 164.393 79.4344 164.393 78.0537V10C164.393 8.61929 165.512 7.5 166.893 7.5Z" stroke="#696969" stroke-width="15"/>
<path d="M323.786 33.5H387C388.38 33.5 389.5 34.6193 389.5 36V104.054C389.5 105.434 388.38 106.554 387 106.554H323.786C322.405 106.554 321.286 105.434 321.286 104.054V36C321.286 34.6193 322.405 33.5 323.786 33.5Z" stroke="#8B0000" stroke-width="15"/>
<path d="M166.893 306.5H230.107C231.488 306.5 232.607 307.619 232.607 309V377.054C232.607 378.434 231.488 379.554 230.107 379.554H166.893C165.512 379.554 164.393 378.434 164.393 377.054V309C164.393 307.619 165.512 306.5 166.893 306.5Z" stroke="#8B0000" stroke-width="15"/>
<path d="M10 180.856H387C388.381 180.856 389.5 181.975 389.5 183.356V229.396C389.5 230.777 388.381 231.896 387 231.896H10C8.61929 231.896 7.5 230.777 7.5 229.396V183.356C7.5 181.975 8.61929 180.856 10 180.856Z" stroke="#8B0000" stroke-width="15"/>
<path d="M198.5 306L198.5 231M198.5 88L198.5 179" stroke="#8B0000" stroke-width="15"/>
<path d="M29.4717 213.714L81.4804 213.714" stroke="#696969" stroke-width="15" stroke-linecap="round"/>
<path d="M337.991 213.714L368.33 213.714" stroke="#696969" stroke-width="15" stroke-linecap="round"/>
<path d="M353.594 229.307L353.594 197.204" stroke="#696969" stroke-width="15" stroke-linecap="round"/>
<path d="M355.393 106V106C355.393 129.016 336.735 147.673 313.72 147.673H82.4135C59.398 147.673 40.7402 129.016 40.7402 106V106" stroke="#8B0000" stroke-width="15"/>
<path d="M40.7402 332.036V332.036C40.7402 295.056 70.7181 265.078 107.698 265.078L288.436 265.078C325.415 265.078 355.393 295.056 355.393 332.036V332.036" stroke="#8B0000" stroke-width="15"/>
<path d="M10 329.446H73.214C74.5947 329.446 75.714 330.566 75.714 331.946V400C75.714 401.381 74.5947 402.5 73.214 402.5H10C8.61929 402.5 7.5 401.381 7.5 400V331.946C7.5 330.566 8.61929 329.446 10 329.446Z" stroke="#696969" stroke-width="15"/>
<path d="M323.786 329.446H387C388.381 329.446 389.5 330.566 389.5 331.946V400C389.5 401.381 388.381 402.5 387 402.5H323.786C322.405 402.5 321.286 401.381 321.286 400V331.946C321.286 330.566 322.405 329.446 323.786 329.446Z" stroke="#696969" stroke-width="15"/>
</svg>
