<svg width="446" height="450" viewBox="0 0 446 450" fill="none" xmlns="http://www.w3.org/2000/svg">
<path d="M340.077 126.529C374.298 123.213 417.293 133.979 433.99 178.414C440.131 194.758 447.434 256.224 393.41 283.934" stroke="#696969" stroke-width="15" stroke-linecap="square"/>
<path d="M105 102.5C115.392 -25.3487 330.5 -29.3165 340 125.683" stroke="#696969" stroke-width="15" stroke-linecap="square"/>
<path d="M46.0006 281.5C-52.4997 194 60.9996 65.5 156.5 121" stroke="#696969" stroke-width="15" stroke-linecap="square"/>
<path d="M188 175L188 113" stroke="#8B0000" stroke-width="15" stroke-linecap="square" stroke-dasharray="30 30"/>
<path d="M283 196L283 90" stroke="#8B0000" stroke-width="15" stroke-linecap="square" stroke-dasharray="30 30"/>
<path d="M127 294L127 231M127 333L127 310" stroke="#8B0000" stroke-width="15"/>
<path d="M42.5 396.5H399.5V415C399.5 430.188 387.188 442.5 372 442.5H70C54.8122 442.5 42.5 430.188 42.5 415V396.5Z" stroke="#8B0000" stroke-width="15"/>
<path d="M95 420L95 450" stroke="#8B0000" stroke-width="15"/>
<path d="M127 420L127 450" stroke="#8B0000" stroke-width="15"/>
<path d="M362 394.5V221C362 212.716 355.284 206 347 206H337M80 394.5V221C80 212.716 86.7157 206 95 206H134" stroke="#8B0000" stroke-width="15"/>
<rect x="155.5" y="182.5" width="64" height="64" stroke="#8B0000" stroke-width="15"/>
<rect x="250.5" y="208.5" width="64" height="64" stroke="#8B0000" stroke-width="15"/>
<rect x="155.5" y="277.5" width="64" height="64" stroke="#8B0000" stroke-width="15"/>
</svg>
