<svg width="384" height="418" viewBox="0 0 384 418" fill="none" xmlns="http://www.w3.org/2000/svg">
<path d="M8 301.5V8H257V50.9767" stroke="#8B0000" stroke-width="15"/>
<path d="M107.5 103.5H141L162 81.5L191.5 124.5L228 73L256.5 103.5H317.5M328.5 103.5H347M358 103.5H376" stroke="#8B0000" stroke-width="15"/>
<path d="M162.474 339H97M294 82V45H44V257.5M44 331.5V339V346.5M66 339H79M44 316.5V303.5M44 286.5V272.5" stroke="#8B0000" stroke-width="15"/>
<path d="M81 177H148M176 177H161" stroke="#8B0000" stroke-width="15"/>
<path d="M81 207H148" stroke="#8B0000" stroke-width="15"/>
<path d="M170 216L272 140.5L376 216L369 300C361.976 327.765 357.132 341.188 339.5 357L272 408C272 408 221.643 374.176 205.5 357C189.357 339.824 183.045 327.305 176.5 300L170 216Z" stroke="#696969" stroke-width="15"/>
<path d="M307.5 275.5L256.5 324.5L214 282L235 260L256.5 279.5L293 245M323 260L336.5 247" stroke="#696969" stroke-width="15"/>
</svg>
