<svg width="427" height="447" viewBox="0 0 427 447" fill="none" xmlns="http://www.w3.org/2000/svg">
<path d="M88.7252 208H145M69 208H81.7634" stroke="#8B0000" stroke-width="15"/>
<path d="M88.7252 238H145M69 238H81.7634" stroke="#8B0000" stroke-width="15"/>
<path d="M285.938 311.631L260.342 236.489C257.713 228.771 264.928 221.321 272.726 223.7L346.871 246.32C355.134 248.841 355.557 260.382 347.5 263.5L317.08 273.354C313.906 274.383 311.453 276.927 310.542 280.137L301.5 312C298.669 319.179 288.427 318.936 285.938 311.631Z" stroke="#8B0000" stroke-width="15"/>
<path d="M221.174 99H53C44.7157 99 38 105.716 38 114V362C38 370.284 44.7157 377 53 377H375C383.284 377 390 370.284 390 362V147" stroke="#8B0000" stroke-width="15"/>
<line x1="38" y1="347.5" x2="390" y2="347.5" stroke="#8B0000" stroke-width="15"/>
<line x1="69" y1="146.5" x2="145" y2="146.5" stroke="#8B0000" stroke-width="15"/>
<line x1="69" y1="176.5" x2="175" y2="176.5" stroke="#8B0000" stroke-width="15"/>
<path d="M312 439H107M359 439H328.5" stroke="#8B0000" stroke-width="15"/>
<line x1="151.921" y1="436.522" x2="172.921" y2="376.522" stroke="#8B0000" stroke-width="15"/>
<line x1="275.85" y1="441.264" x2="256.85" y2="381.264" stroke="#8B0000" stroke-width="15"/>
<path d="M419.5 280L419.5 168M419.5 314L419.5 292" stroke="#696969" stroke-width="15"/>
<path d="M419.5 280L419.5 168M419.5 314L419.5 292" stroke="#696969" stroke-width="15"/>
<path d="M7.50001 79L7.5 176M7.50002 45L7.50001 67" stroke="#696969" stroke-width="15"/>
<path d="M270.884 183.45L214.803 197.759L226.91 139.855L227.396 137.53L226.455 135.349C221.665 124.248 219.008 112.006 219.008 99.125C219.008 48.5305 260.075 7.5 310.754 7.5C361.433 7.5 402.5 48.5305 402.5 99.125C402.5 149.719 361.433 190.75 310.754 190.75C298.29 190.75 286.424 188.272 275.61 183.789C275.597 183.784 275.585 183.779 275.572 183.774C275.383 183.695 275.194 183.616 275.006 183.536L274.733 182.468L273.303 182.833L270.884 183.45Z" stroke="#696969" stroke-width="15"/>
<path d="M350 91.5L299 140.5L256.5 98L277.5 76L299 95.5L335.5 61M365.5 76L379 63" stroke="#696969" stroke-width="15"/>
</svg>
