<svg width="462" height="427" viewBox="0 0 462 427" fill="none" xmlns="http://www.w3.org/2000/svg">
<path d="M7.5 356.5H454.5V372C454.5 398.234 433.234 419.5 407 419.5H55C28.7665 419.5 7.5 398.234 7.5 372V356.5Z" stroke="#8B0000" stroke-width="15"/>
<path d="M48 354V129C48 104.147 68.1472 84 93 84H96M414 354V129C414 104.147 393.853 84 369 84H364" stroke="#8B0000" stroke-width="15"/>
<circle cx="231" cy="119" r="111.5" stroke="#696969" stroke-width="15"/>
<path d="M285.5 119C285.5 177.263 270.338 204.728 256.807 217.714C249.988 224.258 243.276 227.438 238.403 228.997C235.956 229.78 233.962 230.157 232.646 230.337C231.988 230.427 231.503 230.468 231.218 230.486C231.179 230.489 231.145 230.491 231.114 230.492C231.078 230.489 231.037 230.486 230.992 230.482C230.693 230.454 230.189 230.397 229.51 230.285C228.149 230.061 226.096 229.62 223.579 228.761C218.561 227.049 211.674 223.668 204.695 216.965C190.866 203.686 175.5 176.178 175.5 119C175.5 60.7691 190.893 33.3198 204.65 20.3276C211.589 13.7737 218.429 10.5809 223.409 9.01325C225.908 8.22643 227.946 7.84719 229.296 7.66508C229.97 7.57413 230.469 7.5328 230.764 7.51423C230.868 7.50768 230.946 7.50398 230.998 7.50193C231.047 7.50395 231.12 7.50752 231.218 7.51375C231.503 7.53198 231.988 7.57277 232.646 7.66292C233.962 7.84342 235.956 8.22002 238.403 9.00278C243.276 10.5616 249.988 13.7418 256.807 20.2863C270.338 33.272 285.5 60.7364 285.5 119Z" stroke="#696969" stroke-width="15"/>
<path d="M231 235L231 -1.19209e-07" stroke="#696969" stroke-width="15"/>
<path d="M231 165.5C172.486 165.5 144.875 152.208 131.915 140.446C125.44 134.569 122.373 128.864 120.9 124.852C120.156 122.827 119.806 121.198 119.641 120.154C119.57 119.7 119.534 119.357 119.516 119.143C119.541 118.934 119.589 118.602 119.675 118.161C119.875 117.137 120.281 115.534 121.091 113.538C122.696 109.58 125.943 103.944 132.567 98.1415C145.818 86.5335 173.507 73.5 231 73.5C289.544 73.5 317.176 86.556 330.136 98.1005C336.605 103.862 339.655 109.443 341.116 113.347C341.854 115.319 342.2 116.902 342.362 117.91C342.443 118.415 342.478 118.774 342.492 118.965C342.493 118.979 342.494 118.992 342.495 119.005C342.494 119.021 342.492 119.038 342.491 119.057C342.476 119.259 342.441 119.633 342.359 120.154C342.194 121.198 341.844 122.827 341.1 124.852C339.627 128.864 336.56 134.569 330.085 140.446C317.125 152.208 289.514 165.5 231 165.5Z" stroke="#696969" stroke-width="15"/>
<path d="M81 120V324H381V120" stroke="#8B0000" stroke-width="15"/>
<path d="M177 287H285" stroke="#696969" stroke-width="15" stroke-dasharray="30 30"/>
<path d="M199 388H262" stroke="#8B0000" stroke-width="15"/>
</svg>
