<svg width="160" height="65" viewBox="0 0 160 65" fill="none" xmlns="http://www.w3.org/2000/svg">
<g clip-path="url(#clip0_1567_12)">
<path d="M2.60938 51.7031C2.73438 51.6094 2.9375 51.4531 3.21875 51.2344C3.46875 51.0156 3.78125 50.6094 4.15625 50.0156C4.5 49.4219 4.89062 48.5625 5.32812 47.4375C5.76562 46.3125 6.21875 44.7812 6.6875 42.8438C6.9375 41.8125 7.26562 40.5 7.67188 38.9062C8.07812 37.3125 8.51562 35.6094 8.98438 33.7969C9.48438 31.9844 9.98438 30.125 10.4844 28.2188C10.9844 26.2812 11.4688 24.4531 11.9375 22.7344C12.4062 20.9844 12.8281 19.4062 13.2031 18C13.5781 16.5938 13.875 15.5 14.0938 14.7188C13.5 15.0938 12.9219 15.5156 12.3594 15.9844C11.8594 16.3906 11.3281 16.8594 10.7656 17.3906C10.2031 17.8906 9.65625 18.4219 9.125 18.9844C8.71875 18.6406 8.40625 18.2656 8.1875 17.8594C8.0625 17.6719 7.95312 17.4688 7.85938 17.25C7.67188 16.7812 7.57812 16.2969 7.57812 15.7969C7.57812 15.2969 7.96875 14.7813 8.75 14.25C9.15625 13.9688 9.76562 13.5625 10.5781 13.0312C11.4219 12.5 12.4531 11.9844 13.6719 11.4844C14.8906 10.9531 16.3125 10.5 17.9375 10.125C19.5625 9.75 21.3594 9.5625 23.3281 9.5625C25.2969 9.5625 26.875 9.95313 28.0625 10.7344C29.2812 11.5156 30.2031 12.4688 30.8281 13.5938C31.4844 14.7188 31.9062 15.9063 32.0938 17.1562C32.2812 18.4062 32.3281 19.5 32.2344 20.4375C32.0469 22.1875 31.4844 24.0156 30.5469 25.9219C29.6094 27.8281 28.3125 29.5938 26.6562 31.2188C25 32.8125 22.9844 34.1719 20.6094 35.2969C18.2344 36.4219 15.5156 37.0625 12.4531 37.2188C12.2031 38.4062 11.9531 39.625 11.7031 40.875C11.4531 42.125 11.1875 43.3594 10.9062 44.5781C10.625 45.7656 10.3281 46.875 10.0156 47.9062C9.73438 48.9688 9.4375 49.875 9.125 50.625C8.8125 51.4375 8.40625 52.0781 7.90625 52.5469C7.40625 53.0469 6.60938 53.2969 5.51562 53.2969C4.95312 53.2969 4.4375 53.1562 3.96875 52.875C3.46875 52.5938 3.01562 52.2031 2.60938 51.7031ZM13.7188 30.3281C13.625 30.8281 13.5 31.4844 13.3438 32.2969C13.2188 33.0781 13.0625 33.9688 12.875 34.9688C13.7188 34.8438 14.6562 34.625 15.6875 34.3125C16.7188 33.9688 17.75 33.5156 18.7812 32.9531C19.8125 32.3906 20.8125 31.7188 21.7812 30.9375C22.7812 30.125 23.6875 29.2031 24.5 28.1719C25.3125 27.1094 25.9844 25.9219 26.5156 24.6094C27.0781 23.2656 27.4375 21.7812 27.5938 20.1562C27.75 18.5938 27.6562 17.2969 27.3125 16.2656C27 15.2031 26.5312 14.3594 25.9062 13.7344C25.2812 13.0781 24.5625 12.625 23.75 12.375C22.9375 12.0938 22.125 11.9531 21.3125 11.9531C20.5312 11.9531 19.7656 12.0625 19.0156 12.2812C18.2656 12.5 17.5156 12.7812 16.7656 13.125C16.8594 13.1562 16.9688 13.2344 17.0938 13.3594C17.2812 13.5469 17.4219 13.8125 17.5156 14.1562C16.7656 17.1875 16.1406 19.7188 15.6406 21.75C15.1719 23.7812 14.7969 25.4375 14.5156 26.7188C14.1719 28.2188 13.9062 29.4219 13.7188 30.3281ZM42.4194 27.75C42.8256 27.4375 43.2162 27.2031 43.5912 27.0469C43.9975 26.8594 44.3569 26.7344 44.6694 26.6719C45.0131 26.5781 45.3569 26.5469 45.7006 26.5781C46.5444 26.6406 47.06 26.9062 47.2475 27.375C47.4662 27.8438 47.4975 28.5938 47.3412 29.625C47.2475 30.1562 47.06 30.8281 46.7787 31.6406C46.4975 32.4531 46.1694 33.4531 45.7944 34.6406C45.4194 35.7969 45.0131 37.125 44.5756 38.625C44.1694 40.125 43.7787 41.8125 43.4037 43.6875C43.0287 45.2188 42.6225 46.9844 42.185 48.9844C41.81 50.7344 41.3569 52.8438 40.8256 55.3125C40.3256 57.7812 39.7787 60.6094 39.185 63.7969C39.0287 64.5781 38.685 65.0312 38.1537 65.1562C37.6537 65.2812 37.1225 65.2188 36.56 64.9688C36.3412 64.8438 36.1381 64.7031 35.9506 64.5469C35.7944 64.3906 35.6225 64.2031 35.435 63.9844C35.2475 63.7969 35.0912 63.5312 34.9662 63.1875C35.685 60.5625 36.31 58.1719 36.8412 56.0156C37.4037 53.8594 37.9037 51.9844 38.3412 50.3906C38.81 48.5469 39.2475 46.8906 39.6537 45.4219C39.81 44.7656 39.9506 44.125 40.0756 43.5C40.2319 42.8438 40.3881 42.2031 40.5444 41.5781C40.1381 42.2344 39.7006 42.8594 39.2319 43.4531C38.7631 44.0469 38.2475 44.5625 37.685 45C37.1225 45.4375 36.5131 45.7656 35.8569 45.9844C35.2319 46.2344 34.5756 46.3125 33.8881 46.2188C32.2006 46 30.9975 45.375 30.2787 44.3438C29.5912 43.3125 29.2944 41.9688 29.3881 40.3125C29.4194 39.6562 29.5131 38.9375 29.6694 38.1562C29.8256 37.375 29.9975 36.625 30.185 35.9062C30.3725 35.1875 30.5444 34.5469 30.7006 33.9844C30.8881 33.3906 31.0287 32.9688 31.1225 32.7188C31.4975 31.5312 31.7631 30.5156 31.9194 29.6719C32.1069 28.8281 31.9819 28.125 31.5444 27.5625C31.9819 27.2812 32.3881 27.0938 32.7631 27C33.1694 26.875 33.5287 26.7812 33.8412 26.7188C34.185 26.6875 34.5287 26.6875 34.8725 26.7188C35.7162 26.8438 36.2006 27.1562 36.3256 27.6562C36.4819 28.1562 36.435 28.9062 36.185 29.9062C36.06 30.4375 35.8569 31.125 35.5756 31.9688C35.2944 32.7812 34.9975 33.625 34.685 34.5C34.3725 35.375 34.0912 36.1875 33.8412 36.9375C33.5912 37.6562 33.4506 38.1719 33.4194 38.4844C33.1381 39.8906 33.1225 40.9844 33.3725 41.7656C33.6225 42.5156 34.1694 42.8906 35.0131 42.8906C35.4194 42.8906 35.8725 42.7188 36.3725 42.375C36.8725 42 37.3725 41.5156 37.8725 40.9219C38.4037 40.3281 38.9194 39.6562 39.4194 38.9062C39.9194 38.125 40.3725 37.3438 40.7787 36.5625C41.2162 35.7812 41.5912 35.0156 41.9037 34.2656C42.2475 33.5156 42.4975 32.8438 42.6537 32.25C42.8725 31.0938 43.0131 30.1875 43.0756 29.5312C43.1381 28.875 42.9194 28.2812 42.4194 27.75ZM46.37 44.7656C46.1512 45.1094 45.9169 45.3281 45.6669 45.4219C45.3856 45.5469 45.1512 45.5625 44.9637 45.4688C44.745 45.4062 44.6044 45.25 44.5419 45C44.4794 44.75 44.5419 44.4375 44.7294 44.0625C44.8231 43.875 45.0419 43.4531 45.3856 42.7969C45.6981 42.1406 46.0887 41.3594 46.5575 40.4531C46.995 39.5156 47.4794 38.5156 48.0106 37.4531C48.5419 36.3594 49.0419 35.3281 49.5106 34.3594C50.0106 33.3906 50.4637 32.5312 50.87 31.7812C51.2762 31 51.5731 30.4375 51.7606 30.0938C51.4169 29.7812 51.1825 29.5625 51.0575 29.4375C50.9325 29.2812 50.8387 28.9688 50.7762 28.5C50.7137 28.0938 50.8075 27.5625 51.0575 26.9062C51.3075 26.25 51.6356 25.625 52.0419 25.0312C52.4481 24.4062 52.9012 23.875 53.4012 23.4375C53.9012 23 54.3856 22.7812 54.8544 22.7812C55.7294 22.7812 56.3387 23.0625 56.6825 23.625C57.0575 24.1875 57.2762 24.7656 57.3387 25.3594C57.4012 25.7656 57.37 26.2812 57.245 26.9062C57.12 27.5312 56.8856 28.0938 56.5419 28.5938C56.6356 28.6562 56.7606 28.7344 56.9169 28.8281C57.0731 28.8906 57.3231 28.9219 57.6669 28.9219C58.1669 28.9219 58.5106 28.8906 58.6981 28.8281C58.9169 28.7656 59.245 28.7344 59.6825 28.7344C60.2137 28.7344 60.6512 28.875 60.995 29.1562C61.3387 29.4062 61.62 29.7344 61.8387 30.1406C62.0575 30.5156 62.2137 30.9375 62.3075 31.4062C62.4325 31.8438 62.5106 32.25 62.5419 32.625C62.6356 33.4062 62.4325 34.2188 61.9325 35.0625C61.4325 35.9062 60.8231 36.8281 60.1044 37.8281C59.6669 38.4531 59.2294 39.1562 58.7919 39.9375C58.3544 40.7188 58.1669 41.4219 58.2294 42.0469C58.2919 42.4531 58.4012 42.7812 58.5575 43.0312C58.7137 43.2812 59.1512 43.4062 59.87 43.4062C60.4012 43.4062 60.9794 43.2188 61.6044 42.8438C62.2606 42.4375 62.9169 41.9375 63.5731 41.3438C64.2606 40.7188 64.9325 40.0469 65.5887 39.3281C66.245 38.5781 66.8544 37.8594 67.4169 37.1719C67.9794 36.4531 68.4481 35.8125 68.8231 35.25C69.2294 34.6875 69.5262 34.2812 69.7137 34.0312C69.87 33.7812 70.0731 33.6094 70.3231 33.5156C70.5731 33.4219 70.7919 33.4219 70.9794 33.5156C71.1669 33.6094 71.2762 33.7969 71.3075 34.0781C71.37 34.3594 71.2606 34.7344 70.9794 35.2031C70.7919 35.5156 70.4637 36.0156 69.995 36.7031C69.5575 37.3906 69.0106 38.1562 68.3544 39C67.7294 39.8438 67.0262 40.7188 66.245 41.625C65.4637 42.5 64.6356 43.3125 63.7606 44.0625C62.9169 44.7812 62.0575 45.375 61.1825 45.8438C60.3387 46.3125 59.5262 46.5469 58.745 46.5469C57.9325 46.5469 57.2606 46.3906 56.7294 46.0781C56.1981 45.7656 55.7606 45.3906 55.4169 44.9531C55.1044 44.4844 54.87 43.9844 54.7137 43.4531C54.5887 42.8906 54.5419 42.375 54.5731 41.9062C54.6044 41.5312 54.6981 41.1406 54.8544 40.7344C55.0419 40.2969 55.245 39.8594 55.4637 39.4219C55.7137 38.9531 55.9637 38.5 56.2137 38.0625C56.495 37.5938 56.745 37.1406 56.9637 36.7031C57.495 35.7969 57.9169 35.0312 58.2294 34.4062C58.5731 33.75 58.745 33.2031 58.745 32.7656C58.745 32.4844 58.6825 32.2344 58.5575 32.0156C58.4325 31.7969 58.2294 31.6875 57.9481 31.6875C57.7606 31.6875 57.62 31.7031 57.5262 31.7344C57.4637 31.7344 57.3856 31.7344 57.2919 31.7344C57.2294 31.7344 57.12 31.75 56.9637 31.7812C56.8387 31.7812 56.6356 31.7812 56.3544 31.7812C55.9481 31.7812 55.6044 31.7188 55.3231 31.5938C55.0419 31.4688 54.7762 31.375 54.5262 31.3125C54.4012 31.5312 54.12 32 53.6825 32.7188C53.245 33.4375 52.7294 34.2812 52.1356 35.25C51.5731 36.2188 50.9637 37.2344 50.3075 38.2969C49.6825 39.3594 49.0887 40.3594 48.5262 41.2969C47.9637 42.2031 47.495 42.9844 47.12 43.6406C46.7137 44.2656 46.4637 44.6406 46.37 44.7656ZM90.2581 35.6719C89.8206 36.2969 89.2581 37.0781 88.5706 38.0156C87.8831 38.9219 87.1644 39.8438 86.4144 40.7812C85.6956 41.6875 84.9769 42.5312 84.2581 43.3125C83.5706 44.0625 82.9925 44.5938 82.5238 44.9062C82.2113 45.0938 81.8519 45.25 81.4456 45.375C81.0394 45.5 80.6175 45.5781 80.18 45.6094C79.7738 45.6406 79.3831 45.6094 79.0081 45.5156C78.6331 45.4531 78.305 45.3281 78.0238 45.1406C77.7425 44.9219 77.5081 44.6094 77.3206 44.2031C77.1644 43.8594 77.0081 43.4062 76.8519 42.8438C76.7269 42.2812 76.68 41.5781 76.7113 40.7344C75.9613 41.9844 75.1331 42.9531 74.2269 43.6406C73.3206 44.2969 72.4613 44.7812 71.6488 45.0938C70.7113 45.4375 69.7738 45.6406 68.8363 45.7031C68.3988 45.7031 67.93 45.5469 67.43 45.2344C66.93 44.9531 66.5081 44.5 66.1644 43.875C65.8206 43.2188 65.6019 42.3906 65.5081 41.3906C65.4144 40.3594 65.5394 39.1406 65.8831 37.7344C66.3206 35.8281 67.0081 34.0938 67.9456 32.5312C68.9144 30.9688 69.9613 29.6406 71.0863 28.5469C72.2113 27.4219 73.3206 26.5781 74.4144 26.0156C75.5081 25.4531 76.4144 25.2031 77.1331 25.2656C77.9769 25.4219 78.6644 25.6719 79.1956 26.0156C79.6331 26.3281 79.9144 26.7969 80.0394 27.4219C80.1956 28.0156 79.9456 28.8125 79.2894 29.8125C79.7269 29.7188 80.0863 29.6562 80.3675 29.625C80.68 29.5938 80.9144 29.5781 81.0706 29.5781C81.2581 29.5781 81.3831 29.5938 81.4456 29.625C81.4769 29.6875 81.4925 29.8281 81.4925 30.0469C81.4925 30.2344 81.4456 30.5938 81.3519 31.125C81.2581 31.6562 81.1175 32.375 80.93 33.2812C80.7425 34.1875 80.4925 35.3594 80.18 36.7969C80.1175 37.0781 80.055 37.3438 79.9925 37.5938C79.9613 37.8125 79.9144 38.0469 79.8519 38.2969C79.8206 38.5156 79.7738 38.7812 79.7113 39.0938C79.6488 39.4062 79.5706 39.7969 79.4769 40.2656C79.4456 40.5469 79.43 40.8594 79.43 41.2031C79.4613 41.5156 79.5238 41.8125 79.6175 42.0938C79.7113 42.375 79.8519 42.6094 80.0394 42.7969C80.2581 42.9531 80.555 43.0312 80.93 43.0312C81.2425 43.0312 81.6488 42.8438 82.1488 42.4688C82.6488 42.0625 83.18 41.5625 83.7425 40.9688C84.305 40.3438 84.8831 39.6719 85.4769 38.9531C86.1019 38.2031 86.68 37.4844 87.2113 36.7969C87.7425 36.1094 88.2113 35.5 88.6175 34.9688C89.055 34.4375 89.3675 34.0469 89.555 33.7969C89.805 33.5156 90.055 33.3594 90.305 33.3281C90.555 33.2656 90.7425 33.3281 90.8675 33.5156C90.9925 33.7031 91.0081 33.9844 90.9144 34.3594C90.8519 34.7344 90.6331 35.1719 90.2581 35.6719ZM76.5238 37.7344C76.68 37.1094 76.8675 36.375 77.0863 35.5312C77.305 34.6875 77.4925 33.875 77.6488 33.0938C77.805 32.3125 77.9144 31.6719 77.9769 31.1719C78.0706 30.6406 78.055 30.3906 77.93 30.4219C77.7738 30.4531 77.6019 30.5 77.4144 30.5625C77.2581 30.625 77.055 30.6719 76.805 30.7031C76.555 30.7344 76.305 30.7812 76.055 30.8438C76.305 30.3438 76.4456 29.9375 76.4769 29.625C76.5394 29.2812 76.555 29.0156 76.5238 28.8281C76.4925 28.6094 76.43 28.4375 76.3363 28.3125C75.9925 28.0312 75.3831 28.2656 74.5081 29.0156C73.6644 29.7344 72.68 31.0781 71.555 33.0469C71.0863 33.8594 70.7113 34.7344 70.43 35.6719C70.1488 36.5781 69.9456 37.4375 69.8206 38.25C69.7269 39.0625 69.7113 39.7812 69.7738 40.4062C69.8363 41 69.9613 41.3906 70.1488 41.5781C70.4925 41.9219 70.8831 42.0938 71.3206 42.0938C71.7581 42.0625 72.1956 41.9375 72.6331 41.7188C73.1019 41.4688 73.555 41.1562 73.9925 40.7812C74.4613 40.4062 74.8675 40.0156 75.2113 39.6094C75.5863 39.2031 75.8831 38.8281 76.1019 38.4844C76.3519 38.1406 76.4925 37.8906 76.5238 37.7344ZM107.521 42.8438C107.521 42.1875 107.584 41.4375 107.709 40.5938C107.865 39.75 108.052 38.8906 108.271 38.0156C108.49 37.1094 108.709 36.2344 108.927 35.3906C109.146 34.5469 109.334 33.7969 109.49 33.1406C109.677 32.3281 109.662 31.7031 109.443 31.2656C109.224 30.8281 108.849 30.6094 108.318 30.6094C108.068 30.6094 107.568 30.8281 106.818 31.2656C106.099 31.7031 105.302 32.4688 104.427 33.5625C103.584 34.625 102.74 36.0781 101.896 37.9219C101.084 39.7344 100.443 42.0469 99.9744 44.8594C99.3806 45.1719 98.8181 45.375 98.2869 45.4688C98.0056 45.5312 97.7556 45.5781 97.5369 45.6094C96.9119 45.6406 96.5056 45.5312 96.3181 45.2812C96.1306 45.0625 96.1619 44.5 96.4119 43.5938C96.5369 43.1562 96.7556 42.4531 97.0681 41.4844C97.4119 40.5156 97.74 39.4688 98.0525 38.3438C98.365 37.1875 98.6306 36.0469 98.8494 34.9219C99.0994 33.7656 99.2244 32.7656 99.2244 31.9219C99.2244 31.3281 99.115 30.9219 98.8962 30.7031C98.7087 30.4844 98.4275 30.375 98.0525 30.375C97.7712 30.375 97.3025 30.5312 96.6462 30.8438C95.99 31.1562 95.2556 31.7656 94.4431 32.6719C93.6306 33.5781 92.8181 34.8438 92.0056 36.4688C91.2244 38.0625 90.5525 40.1406 89.99 42.7031V42.6094C89.9275 42.8594 89.865 43.1094 89.8025 43.3594C89.74 43.5781 89.6931 43.8125 89.6619 44.0625C89.6306 44.3125 89.5837 44.5469 89.5212 44.7656L87.1775 45.7969C87.0212 45.8594 86.8181 45.9062 86.5681 45.9375C86.3494 45.9688 86.1306 45.9219 85.9119 45.7969C85.7244 45.7031 85.5837 45.4844 85.49 45.1406C85.3962 44.7969 85.4275 44.2812 85.5837 43.5938L88.5369 31.3594C88.6306 30.9531 88.7087 30.5625 88.7712 30.1875C88.8337 29.8438 88.865 29.5156 88.865 29.2031C88.8962 28.8594 88.8806 28.5781 88.8181 28.3594C89.3494 28.1094 89.8181 27.9219 90.2244 27.7969C90.6306 27.6719 90.9587 27.5781 91.2087 27.5156C91.5212 27.4219 91.7869 27.375 92.0056 27.375C93.0056 27.375 93.3337 28.2344 92.99 29.9531C92.865 30.4531 92.6775 31.1875 92.4275 32.1562C93.0212 31.4062 93.6462 30.7031 94.3025 30.0469C94.99 29.3594 95.6775 28.75 96.365 28.2188C97.0525 27.6875 97.74 27.2656 98.4275 26.9531C99.1462 26.6406 99.8494 26.4844 100.537 26.4844C101.068 26.4844 101.506 26.6406 101.849 26.9531C102.224 27.2656 102.506 27.6875 102.693 28.2188C102.912 28.7188 103.037 29.3281 103.068 30.0469C103.099 30.7344 103.068 31.4531 102.974 32.2031C103.474 31.5469 104.021 30.8906 104.615 30.2344C105.24 29.5469 105.881 28.9375 106.537 28.4062C107.224 27.875 107.927 27.4375 108.646 27.0938C109.365 26.75 110.084 26.5781 110.802 26.5781C111.646 26.5781 112.287 26.8281 112.724 27.3281C113.193 27.8281 113.506 28.4688 113.662 29.25C113.849 30.0312 113.896 30.875 113.802 31.7812C113.74 32.6875 113.615 33.5625 113.427 34.4062L111.834 40.7344C111.49 42.2969 111.818 43.0781 112.818 43.0781C113.599 43.0781 114.459 42.7031 115.396 41.9531C116.334 41.2031 117.24 40.3125 118.115 39.2812C119.021 38.25 119.865 37.1875 120.646 36.0938C121.427 35 122.084 34.125 122.615 33.4688C122.802 33.25 122.99 33.125 123.177 33.0938C123.396 33.0625 123.568 33.1094 123.693 33.2344C123.849 33.3281 123.927 33.5 123.927 33.75C123.959 34 123.881 34.3125 123.693 34.6875C123.068 35.7812 122.302 37 121.396 38.3438C120.49 39.6562 119.49 40.8906 118.396 42.0469C117.334 43.2031 116.193 44.1719 114.974 44.9531C113.756 45.7344 112.49 46.125 111.177 46.125C110.74 46.125 110.302 46.0781 109.865 45.9844C109.459 45.8906 109.068 45.7188 108.693 45.4688C108.349 45.2188 108.068 44.8906 107.849 44.4844C107.631 44.0469 107.521 43.5 107.521 42.8438ZM142.738 35.6719C142.3 36.2969 141.738 37.0781 141.05 38.0156C140.363 38.9219 139.644 39.8438 138.894 40.7812C138.175 41.6875 137.456 42.5312 136.738 43.3125C136.05 44.0625 135.472 44.5938 135.003 44.9062C134.691 45.0938 134.331 45.25 133.925 45.375C133.519 45.5 133.097 45.5781 132.659 45.6094C132.253 45.6406 131.863 45.6094 131.488 45.5156C131.113 45.4531 130.784 45.3281 130.503 45.1406C130.222 44.9219 129.988 44.6094 129.8 44.2031C129.644 43.8594 129.488 43.4062 129.331 42.8438C129.206 42.2812 129.159 41.5781 129.191 40.7344C128.441 41.9844 127.613 42.9531 126.706 43.6406C125.8 44.2969 124.941 44.7812 124.128 45.0938C123.191 45.4375 122.253 45.6406 121.316 45.7031C120.878 45.7031 120.409 45.5469 119.909 45.2344C119.409 44.9531 118.988 44.5 118.644 43.875C118.3 43.2188 118.081 42.3906 117.988 41.3906C117.894 40.3594 118.019 39.1406 118.363 37.7344C118.8 35.8281 119.488 34.0938 120.425 32.5312C121.394 30.9688 122.441 29.6406 123.566 28.5469C124.691 27.4219 125.8 26.5781 126.894 26.0156C127.988 25.4531 128.894 25.2031 129.613 25.2656C130.456 25.4219 131.144 25.6719 131.675 26.0156C132.113 26.3281 132.394 26.7969 132.519 27.4219C132.675 28.0156 132.425 28.8125 131.769 29.8125C132.206 29.7188 132.566 29.6562 132.847 29.625C133.159 29.5938 133.394 29.5781 133.55 29.5781C133.738 29.5781 133.863 29.5938 133.925 29.625C133.956 29.6875 133.972 29.8281 133.972 30.0469C133.972 30.2344 133.925 30.5938 133.831 31.125C133.738 31.6562 133.597 32.375 133.409 33.2812C133.222 34.1875 132.972 35.3594 132.659 36.7969C132.597 37.0781 132.534 37.3438 132.472 37.5938C132.441 37.8125 132.394 38.0469 132.331 38.2969C132.3 38.5156 132.253 38.7812 132.191 39.0938C132.128 39.4062 132.05 39.7969 131.956 40.2656C131.925 40.5469 131.909 40.8594 131.909 41.2031C131.941 41.5156 132.003 41.8125 132.097 42.0938C132.191 42.375 132.331 42.6094 132.519 42.7969C132.738 42.9531 133.034 43.0312 133.409 43.0312C133.722 43.0312 134.128 42.8438 134.628 42.4688C135.128 42.0625 135.659 41.5625 136.222 40.9688C136.784 40.3438 137.363 39.6719 137.956 38.9531C138.581 38.2031 139.159 37.4844 139.691 36.7969C140.222 36.1094 140.691 35.5 141.097 34.9688C141.534 34.4375 141.847 34.0469 142.034 33.7969C142.284 33.5156 142.534 33.3594 142.784 33.3281C143.034 33.2656 143.222 33.3281 143.347 33.5156C143.472 33.7031 143.488 33.9844 143.394 34.3594C143.331 34.7344 143.113 35.1719 142.738 35.6719ZM129.003 37.7344C129.159 37.1094 129.347 36.375 129.566 35.5312C129.784 34.6875 129.972 33.875 130.128 33.0938C130.284 32.3125 130.394 31.6719 130.456 31.1719C130.55 30.6406 130.534 30.3906 130.409 30.4219C130.253 30.4531 130.081 30.5 129.894 30.5625C129.738 30.625 129.534 30.6719 129.284 30.7031C129.034 30.7344 128.784 30.7812 128.534 30.8438C128.784 30.3438 128.925 29.9375 128.956 29.625C129.019 29.2812 129.034 29.0156 129.003 28.8281C128.972 28.6094 128.909 28.4375 128.816 28.3125C128.472 28.0312 127.863 28.2656 126.988 29.0156C126.144 29.7344 125.159 31.0781 124.034 33.0469C123.566 33.8594 123.191 34.7344 122.909 35.6719C122.628 36.5781 122.425 37.4375 122.3 38.25C122.206 39.0625 122.191 39.7812 122.253 40.4062C122.316 41 122.441 41.3906 122.628 41.5781C122.972 41.9219 123.363 42.0938 123.8 42.0938C124.238 42.0625 124.675 41.9375 125.113 41.7188C125.581 41.4688 126.034 41.1562 126.472 40.7812C126.941 40.4062 127.347 40.0156 127.691 39.6094C128.066 39.2031 128.363 38.8281 128.581 38.4844C128.831 38.1406 128.972 37.8906 129.003 37.7344ZM158.641 38.8125C157.329 40.4688 156.157 41.7812 155.126 42.75C154.126 43.6875 153.235 44.3906 152.454 44.8594C151.673 45.3281 150.985 45.625 150.391 45.75C149.798 45.875 149.266 45.9375 148.798 45.9375C148.204 45.9375 147.704 45.7969 147.298 45.5156C146.891 45.2344 146.548 44.8906 146.266 44.4844C145.985 44.0781 145.766 43.6562 145.61 43.2188C145.454 42.7812 145.329 42.4062 145.235 42.0938C145.11 41.75 144.969 41.3594 144.813 40.9219C144.688 40.4844 144.548 40 144.391 39.4688C143.766 40.125 143.11 40.8281 142.423 41.5781C141.829 42.2031 141.157 42.9219 140.407 43.7344C139.657 44.5156 138.891 45.3125 138.11 46.125C137.829 46.1875 137.579 46.1875 137.36 46.125C137.141 46.0625 136.954 46 136.798 45.9375C136.61 45.8438 136.454 45.7344 136.329 45.6094C136.235 45.5156 136.141 45.4062 136.048 45.2812C135.985 45.1875 135.923 45.0781 135.86 44.9531C135.766 44.7969 135.735 44.6406 135.766 44.4844C136.673 43.4531 137.563 42.4375 138.438 41.4375C139.344 40.4062 140.157 39.4844 140.876 38.6719C141.688 37.7344 142.469 36.8281 143.219 35.9531C142.782 34.7656 142.391 33.6562 142.048 32.625C141.704 31.5938 141.454 30.8594 141.298 30.4219C140.985 29.5156 140.704 28.7656 140.454 28.1719C140.235 27.5781 139.844 27.1562 139.282 26.9062C139.657 26.5625 140.016 26.2969 140.36 26.1094C140.735 25.8906 141.063 25.7344 141.344 25.6406C141.688 25.5156 141.985 25.4531 142.235 25.4531C142.954 25.4531 143.579 26.0938 144.11 27.375C144.673 28.625 145.235 30.3594 145.798 32.5781C145.798 32.6719 145.829 32.7812 145.891 32.9062C146.548 32.125 147.173 31.3906 147.766 30.7031C148.391 30.0156 148.923 29.4062 149.36 28.875C149.829 28.3438 150.204 27.9219 150.485 27.6094C150.766 27.2969 150.938 27.1094 151.001 27.0469C151.626 26.3281 152.188 25.9219 152.688 25.8281C153.188 25.7344 153.641 25.8438 154.048 26.1562C154.235 26.2812 154.438 26.4062 154.657 26.5312C155.063 26.7812 155.548 27.0156 156.11 27.2344C155.579 27.7344 154.985 28.3125 154.329 28.9688C153.704 29.5938 153.11 30.2031 152.548 30.7969C151.891 31.4844 151.235 32.1719 150.579 32.8594C150.11 33.3281 149.548 33.9062 148.891 34.5938C148.266 35.2812 147.594 36.0312 146.876 36.8438C147.094 37.625 147.329 38.3594 147.579 39.0469C147.829 39.7344 148.079 40.3438 148.329 40.875C148.61 41.4062 148.891 41.8281 149.173 42.1406C149.454 42.4531 149.751 42.6094 150.063 42.6094C150.563 42.6094 151.126 42.4844 151.751 42.2344C152.376 41.9531 153.032 41.5781 153.719 41.1094C154.407 40.6406 155.094 40.0938 155.782 39.4688C156.501 38.8438 157.204 38.1875 157.891 37.5C158.141 37.25 158.376 37.1094 158.594 37.0781C158.844 37.0469 159.016 37.0938 159.11 37.2188C159.204 37.3438 159.219 37.5469 159.157 37.8281C159.126 38.1094 158.954 38.4375 158.641 38.8125Z" fill="#646CAB"/>
</g>
<defs>
<clipPath id="clip0_1567_12">
<rect width="160" height="65" fill="white"/>
</clipPath>
</defs>
</svg>
