<svg width="134" height="65" viewBox="0 0 134 65" fill="none" xmlns="http://www.w3.org/2000/svg">
<g clip-path="url(#clip0_1567_15)">
<path d="M34.7842 11V40.1144H28.3672V12.3864L34.7842 11Z" fill="#646CAB"/>
<path d="M37.7836 29.657C37.7836 28.1518 38.0741 26.739 38.655 25.4186C39.2624 24.0718 40.0678 22.9098 41.0713 21.9328C42.1012 20.9557 43.3028 20.1899 44.676 19.6353C46.0756 19.0543 47.5676 18.7638 49.1521 18.7638C50.7365 18.7638 52.2153 19.0543 53.5885 19.6353C54.9881 20.1899 56.1897 20.9557 57.1932 21.9328C58.2231 22.9098 59.0285 24.0718 59.6095 25.4186C60.2169 26.739 60.5205 28.1518 60.5205 29.657C60.5205 31.1622 60.2169 32.5882 59.6095 33.935C59.0285 35.2554 58.2231 36.4041 57.1932 37.3812C56.1897 38.3583 54.9881 39.1241 53.5885 39.6787C52.2153 40.2333 50.7365 40.5105 49.1521 40.5105C47.5676 40.5105 46.0756 40.2333 44.676 39.6787C43.3028 39.1241 42.1012 38.3583 41.0713 37.3812C40.0678 36.4041 39.2624 35.2554 38.655 33.935C38.0741 32.5882 37.7836 31.1622 37.7836 29.657ZM49.1521 34.9649C50.5781 34.9649 51.7796 34.45 52.7567 33.4201C53.7602 32.3902 54.2619 31.1358 54.2619 29.657C54.2619 28.1518 53.7602 26.8842 52.7567 25.8543C51.7796 24.8244 50.5781 24.3094 49.1521 24.3094C47.726 24.3094 46.5113 24.8244 45.5078 25.8543C44.5307 26.8842 44.0422 28.1518 44.0422 29.657C44.0422 31.1358 44.5307 32.3902 45.5078 33.4201C46.5113 34.45 47.726 34.9649 49.1521 34.9649Z" fill="#646CAB"/>
<path d="M61.906 37.7773L64.9561 33.4597C66.2765 34.2519 67.478 34.8329 68.5607 35.2026C69.6435 35.5459 70.713 35.7176 71.7693 35.7176C72.8256 35.7176 73.6574 35.5723 74.2648 35.2818C74.8986 34.9649 75.2155 34.5556 75.2155 34.0539C75.2155 33.6578 75.0438 33.3409 74.7005 33.1032C74.3572 32.8391 73.8159 32.6543 73.0764 32.5486L68.9172 31.9148C66.8575 31.598 65.273 30.9114 64.1639 29.8551C63.0547 28.7723 62.5002 27.3727 62.5002 25.6562C62.5002 23.5436 63.3056 21.8799 64.9165 20.6652C66.5274 19.4504 68.7324 18.8431 71.5316 18.8431C73.0368 18.8431 74.5421 19.0675 76.0473 19.5165C77.579 19.939 78.9918 20.5596 80.2857 21.3782L77.2357 25.4978C76.1001 24.8376 75.0174 24.3623 73.9875 24.0718C72.9576 23.7549 71.9277 23.5964 70.8978 23.5964C70.0792 23.5964 69.419 23.7417 68.9172 24.0322C68.4155 24.2962 68.1646 24.6527 68.1646 25.1017C68.1646 25.5242 68.3495 25.8675 68.7192 26.1316C69.0889 26.3692 69.7227 26.5541 70.6205 26.6861L74.7797 27.3199C76.8395 27.6104 78.424 28.297 79.5331 29.3797C80.6686 30.436 81.2364 31.7828 81.2364 33.4201C81.2364 34.4236 80.9987 35.361 80.5234 36.2325C80.0481 37.104 79.3879 37.8566 78.5428 38.4904C77.7242 39.1241 76.7339 39.6259 75.572 39.9956C74.41 40.3389 73.1557 40.5105 71.8089 40.5105C69.8283 40.5105 67.9798 40.2861 66.2633 39.8371C64.5732 39.3618 63.1208 38.6752 61.906 37.7773Z" fill="#646CAB"/>
<path d="M82.0599 37.7773L85.11 33.4597C86.4304 34.2519 87.6319 34.8329 88.7146 35.2026C89.7973 35.5459 90.8668 35.7176 91.9231 35.7176C92.9795 35.7176 93.8113 35.5723 94.4187 35.2818C95.0524 34.9649 95.3693 34.5556 95.3693 34.0539C95.3693 33.6578 95.1977 33.3409 94.8544 33.1032C94.5111 32.8391 93.9697 32.6543 93.2303 32.5486L89.0711 31.9148C87.0113 31.598 85.4269 30.9114 84.3177 29.8551C83.2086 28.7723 82.6541 27.3727 82.6541 25.6562C82.6541 23.5436 83.4595 21.8799 85.0704 20.6652C86.6812 19.4504 88.8863 18.8431 91.6855 18.8431C93.1907 18.8431 94.696 19.0675 96.2012 19.5165C97.7328 19.939 99.1456 20.5596 100.44 21.3782L97.3895 25.4978C96.254 24.8376 95.1713 24.3623 94.1414 24.0718C93.1115 23.7549 92.0816 23.5964 91.0517 23.5964C90.2331 23.5964 89.5729 23.7417 89.0711 24.0322C88.5694 24.2962 88.3185 24.6527 88.3185 25.1017C88.3185 25.5242 88.5034 25.8675 88.8731 26.1316C89.2428 26.3692 89.8766 26.5541 90.7744 26.6861L94.9336 27.3199C96.9934 27.6104 98.5779 28.297 99.687 29.3797C100.823 30.436 101.39 31.7828 101.39 33.4201C101.39 34.4236 101.153 35.361 100.677 36.2325C100.202 37.104 99.5417 37.8566 98.6967 38.4904C97.8781 39.1241 96.8878 39.6259 95.7258 39.9956C94.5639 40.3389 93.3095 40.5105 91.9628 40.5105C89.9822 40.5105 88.1336 40.2861 86.4172 39.8371C84.7271 39.3618 83.2746 38.6752 82.0599 37.7773Z" fill="#646CAB"/>
<path d="M123.243 37.3416C121.922 38.4507 120.562 39.2562 119.163 39.7579C117.79 40.2597 116.232 40.5105 114.489 40.5105C112.904 40.5105 111.412 40.2333 110.013 39.6787C108.613 39.1241 107.398 38.3583 106.368 37.3812C105.365 36.4041 104.559 35.2554 103.952 33.935C103.371 32.5882 103.081 31.1622 103.081 29.657C103.081 28.1518 103.358 26.739 103.912 25.4186C104.493 24.0718 105.272 22.9098 106.249 21.9328C107.227 20.9557 108.375 20.1899 109.696 19.6353C111.042 19.0807 112.482 18.8035 114.013 18.8035C115.545 18.8035 116.958 19.0939 118.252 19.6749C119.546 20.2559 120.655 21.0481 121.579 22.0516C122.53 23.0551 123.269 24.2698 123.797 25.6959C124.326 27.0955 124.59 28.6139 124.59 30.2512V31.8356H109.656C110.079 32.8127 110.739 33.6181 111.637 34.2519C112.535 34.8593 113.591 35.163 114.806 35.163C115.677 35.163 116.469 35.031 117.182 34.7669C117.895 34.4764 118.503 34.0803 119.004 33.5785L123.243 37.3416ZM113.895 24.0322C112.838 24.0322 111.927 24.3227 111.161 24.9036C110.395 25.4846 109.854 26.3032 109.537 27.3595H118.291C117.948 26.356 117.38 25.5506 116.588 24.9432C115.822 24.3359 114.924 24.0322 113.895 24.0322Z" fill="#646CAB"/>
<path d="M134.006 11V40.1144H127.589V12.3864L134.006 11Z" fill="#646CAB"/>
<path d="M0 30.2645C0 28.7088 0.299647 27.2485 0.89894 25.8838C1.52547 24.4918 2.35631 23.2908 3.39145 22.2809C4.45384 21.271 5.69328 20.4795 7.1098 19.9063C8.55355 19.3059 10.0926 19.0056 11.7271 19.0056C13.3615 19.0056 14.887 19.3059 16.3035 19.9063C17.7472 20.4795 18.9867 21.271 20.0218 22.2809C21.0842 23.2908 21.9151 24.4918 22.5144 25.8838C23.1409 27.2485 23.4542 28.7088 23.4542 30.2645C23.4542 31.8203 23.1409 33.2942 22.5144 34.6862C21.9151 36.0509 21.0842 37.2382 20.0218 38.2481C18.9867 39.258 17.7472 40.0496 16.3035 40.6227C14.887 41.1959 13.3615 41.4825 11.7271 41.4825C10.0926 41.4825 8.55355 41.1959 7.1098 40.6227C5.69328 40.0496 4.45384 39.258 3.39145 38.2481C2.35631 37.2382 1.52547 36.0509 0.89894 34.6862C0.299647 33.2942 0 31.8203 0 30.2645ZM11.7271 35.7507C13.1981 35.7507 14.4375 35.2185 15.4454 34.154C16.4806 33.0895 16.9981 31.793 16.9981 30.2645C16.9981 28.7088 16.4806 27.3986 15.4454 26.3341C14.4375 25.2697 13.1981 24.7374 11.7271 24.7374C10.2561 24.7374 9.00302 25.2697 7.96787 26.3341C6.95997 27.3986 6.45602 28.7088 6.45602 30.2645C6.45602 31.793 6.95997 33.0895 7.96787 34.154C9.00302 35.2185 10.2561 35.7507 11.7271 35.7507Z" fill="#646CAB"/>
<path d="M25.3195 19.0056H11.7266C12.9013 21.0856 16.3582 24.8692 20.7885 24.8692C25.2188 24.8692 25.6551 21.0856 25.3195 19.0056Z" fill="#646CAB"/>
<path d="M0 46.3688H22.4769V52.2323H0V46.3688Z" fill="#646CAB"/>
</g>
<defs>
<clipPath id="clip0_1567_15">
<rect width="134" height="65" fill="white"/>
</clipPath>
</defs>
</svg>
