<svg width="138" height="65" viewBox="0 0 138 65" fill="none" xmlns="http://www.w3.org/2000/svg">
<path d="M53.6016 44.5008L55.9684 43.9511V24.9251L53.6626 24.6197V22.5583H58.2435C58.722 22.5583 59.1852 22.5481 59.6331 22.5278C60.0912 22.5074 60.5442 22.482 60.9921 22.4514C61.44 22.4209 61.893 22.3954 62.3511 22.3751C62.8091 22.3547 63.2825 22.3445 63.7711 22.3445C65.8173 22.3445 67.5733 22.6194 69.0392 23.1691C70.5152 23.7086 71.7317 24.4772 72.6886 25.4748C73.6455 26.4724 74.3479 27.6736 74.7958 29.0784C75.2539 30.4832 75.4829 32.0407 75.4829 33.7509C75.4829 35.7564 75.1776 37.548 74.5668 39.1259C73.956 40.6935 73.106 42.022 72.0167 43.1112C70.9377 44.2005 69.655 45.0301 68.1688 45.6002C66.6825 46.1702 65.0589 46.4451 63.2978 46.4247C62.9211 46.4247 62.519 46.4146 62.0915 46.3942C61.6741 46.3738 61.2466 46.3535 60.8088 46.3331C60.3813 46.3128 59.9537 46.2924 59.5262 46.272C59.0986 46.2619 58.6914 46.2568 58.3046 46.2568C57.5208 46.2568 56.7369 46.2619 55.9531 46.272C55.1692 46.272 54.3854 46.272 53.6016 46.272V44.5008ZM60.366 43.8442C61.3331 44.2717 62.6259 44.4295 64.2445 44.3175C65.1607 44.2666 66.0209 44.0172 66.8251 43.5693C67.6293 43.1214 68.3317 42.4903 68.9323 41.6759C69.5431 40.8513 70.0215 39.8588 70.3676 38.6983C70.7137 37.5276 70.8868 36.1992 70.8868 34.7129C70.8868 32.9824 70.7137 31.4758 70.3676 30.1931C70.0317 28.9105 69.5329 27.8467 68.8712 27.0018C68.2197 26.1467 67.4104 25.5104 66.4433 25.0931C65.4864 24.6757 64.3921 24.467 63.1604 24.467C62.5394 24.4772 61.9999 24.5179 61.5418 24.5892C61.0837 24.6502 60.6918 24.7368 60.366 24.8488V43.8442Z" fill="#646CAB"/>
<path d="M77.9414 37.9959C77.9414 36.6929 78.15 35.4764 78.5674 34.3465C78.9848 33.2165 79.5803 32.2393 80.354 31.4147C81.1378 30.58 82.0794 29.9234 83.1788 29.4449C84.2884 28.9563 85.5304 28.7069 86.9046 28.6967C87.9939 28.6865 88.9457 28.8341 89.76 29.1395C90.5744 29.4347 91.2514 29.8623 91.7909 30.4222C92.3406 30.9719 92.758 31.6437 93.043 32.4378C93.3281 33.2216 93.4909 34.0971 93.5316 35.0641C93.552 35.7055 93.5367 36.2704 93.4858 36.7591C93.4349 37.2375 93.384 37.6752 93.3331 38.0723H82.3848C82.3848 38.1028 82.3848 38.1333 82.3848 38.1639C82.395 38.1842 82.4001 38.2046 82.4001 38.2249C82.4612 39.2735 82.6342 40.1642 82.9193 40.8971C83.2145 41.6301 83.5962 42.2307 84.0645 42.699C84.5429 43.157 85.0926 43.493 85.7136 43.7067C86.3346 43.9205 86.9962 44.0274 87.6986 44.0274C88.0753 44.0274 88.4723 44.007 88.8897 43.9663C89.3172 43.9256 89.7346 43.8645 90.1418 43.7831C90.5592 43.7017 90.9613 43.5999 91.3481 43.4777C91.7349 43.3555 92.0912 43.213 92.417 43.0502L93.1194 44.6993C92.7733 44.9945 92.3406 45.2693 91.8214 45.5238C91.3023 45.7681 90.7373 45.9768 90.1265 46.1499C89.5157 46.3229 88.8693 46.4553 88.1873 46.5469C87.5154 46.6385 86.8435 46.6792 86.1717 46.6691C84.8585 46.6589 83.6878 46.4502 82.6597 46.043C81.6417 45.6358 80.7815 45.0607 80.0791 44.3175C79.3767 43.5744 78.8423 42.6735 78.4758 41.6148C78.1195 40.5459 77.9414 39.3396 77.9414 37.9959ZM89.1951 35.904C89.2256 35.4662 89.246 35.0132 89.2561 34.545C89.2663 34.0665 89.2358 33.6084 89.1645 33.1707C89.1035 32.733 88.9813 32.3309 88.7981 31.9644C88.625 31.5979 88.3654 31.2976 88.0193 31.0635C87.8055 30.921 87.5561 30.809 87.2711 30.7276C86.9861 30.6461 86.6603 30.6054 86.2938 30.6054C85.6932 30.6054 85.1639 30.7428 84.7058 31.0177C84.2579 31.2925 83.8762 31.6692 83.5606 32.1476C83.245 32.6261 82.9905 33.1911 82.7971 33.8426C82.6139 34.4839 82.4917 35.171 82.4306 35.904H89.1951Z" fill="#646CAB"/>
<path d="M96.2496 44.5313L98.4027 44.1496V24.635L96.1733 23.902V22.1155L101.976 21.4131L102.739 21.7185V44.1343L105.442 44.5313V46.272H96.2496V44.5313Z" fill="#646CAB"/>
<path d="M109.244 31.5674H106.923V30.0862C107.269 30.015 107.58 29.9488 107.855 29.8877C108.14 29.8165 108.389 29.7401 108.603 29.6587C108.827 29.5671 109.025 29.4602 109.198 29.338C109.382 29.2159 109.544 29.053 109.687 28.8494C109.809 28.6967 109.936 28.4829 110.069 28.2081C110.211 27.9332 110.349 27.6278 110.481 27.2919C110.623 26.956 110.756 26.5997 110.878 26.223C111.01 25.8464 111.127 25.4748 111.229 25.1083H113.336V29.1853H118.513V31.5674H113.474V38.057C113.474 39.3396 113.494 40.3678 113.535 41.1414C113.586 41.9151 113.677 42.5106 113.81 42.928C113.952 43.3454 114.141 43.6202 114.375 43.7526C114.609 43.8849 114.919 43.9511 115.306 43.9511C115.53 43.9511 115.779 43.9358 116.054 43.9053C116.339 43.8645 116.614 43.8187 116.879 43.7678C117.144 43.7067 117.388 43.6406 117.612 43.5693C117.846 43.4879 118.029 43.4064 118.162 43.325L118.818 44.8978C118.584 45.1523 118.263 45.3864 117.856 45.6002C117.449 45.814 116.991 45.9972 116.482 46.1499C115.983 46.3026 115.454 46.4197 114.894 46.5011C114.344 46.5927 113.8 46.6385 113.26 46.6385C112.517 46.6385 111.891 46.5367 111.382 46.3331C110.873 46.1397 110.461 45.8394 110.145 45.4322C109.829 45.0148 109.6 44.4855 109.458 43.8442C109.315 43.2028 109.244 42.4394 109.244 41.5537V31.5674Z" fill="#646CAB"/>
<path d="M121.2 40.7292C121.312 40.0878 121.567 39.5229 121.964 39.0342C122.361 38.5354 122.844 38.1028 123.414 37.7363C123.984 37.3699 124.616 37.0645 125.308 36.8201C126 36.5656 126.692 36.3671 127.384 36.2246C128.077 36.0719 128.749 35.965 129.4 35.904C130.052 35.8327 130.622 35.7971 131.11 35.7971V35.2168C131.11 34.4126 131.024 33.756 130.851 33.2471C130.678 32.7381 130.428 32.3411 130.102 32.056C129.787 31.7608 129.405 31.5623 128.957 31.4605C128.509 31.3587 128.01 31.3078 127.461 31.3078C126.952 31.3078 126.458 31.3536 125.98 31.4452C125.501 31.5267 125.053 31.6285 124.636 31.7506C124.219 31.8728 123.842 32.0102 123.506 32.1629C123.17 32.3054 122.89 32.4378 122.666 32.5599L121.842 30.6207C122.096 30.4069 122.457 30.1931 122.926 29.9793C123.404 29.7554 123.954 29.5569 124.575 29.3838C125.196 29.2006 125.873 29.053 126.606 28.941C127.339 28.829 128.097 28.773 128.881 28.773C129.807 28.773 130.672 28.8647 131.477 29.0479C132.281 29.221 132.978 29.5365 133.569 29.9946C134.159 30.4425 134.622 31.0533 134.958 31.827C135.294 32.5905 135.462 33.5677 135.462 34.7587L135.447 44.5313H137.417V45.8903C137.193 46.0328 136.938 46.155 136.653 46.2568C136.368 46.3586 136.068 46.44 135.752 46.5011C135.447 46.5622 135.136 46.6029 134.821 46.6232C134.505 46.6538 134.205 46.6691 133.92 46.6691C133.726 46.6691 133.497 46.6487 133.233 46.608C132.968 46.5774 132.714 46.5011 132.469 46.3789C132.225 46.267 132.016 46.099 131.843 45.875C131.67 45.6409 131.584 45.3304 131.584 44.9436V44.8062C131.064 45.3253 130.423 45.7681 129.66 46.1346C128.896 46.4909 127.97 46.6691 126.881 46.6691C125.781 46.6691 124.839 46.5062 124.056 46.1804C123.272 45.8547 122.641 45.4169 122.162 44.8672C121.694 44.3175 121.378 43.6864 121.215 42.9738C121.063 42.2612 121.058 41.513 121.2 40.7292ZM125.476 41.2636C125.476 42.3528 125.771 43.1265 126.361 43.5846C126.952 44.0427 127.802 44.231 128.911 44.1496C129.349 44.1088 129.746 43.9918 130.102 43.7984C130.469 43.5948 130.8 43.3759 131.095 43.1418C131.095 42.246 131.095 41.3552 131.095 40.4696C131.105 39.5839 131.11 38.6932 131.11 37.7974C130.744 37.7974 130.347 37.8178 129.919 37.8585C129.502 37.8992 129.084 37.9705 128.667 38.0723C128.25 38.1741 127.848 38.3115 127.461 38.4845C127.084 38.6576 126.748 38.8714 126.453 39.1259C126.158 39.3804 125.919 39.6857 125.735 40.042C125.562 40.3881 125.476 40.7953 125.476 41.2636Z" fill="#646CAB"/>
<g clip-path="url(#clip0_1567_11)">
<path d="M25.7434 28.9242C21.9796 28.9242 19.0703 31.9952 19.0703 35.6112C19.0703 39.3829 21.9796 42.2549 26.0456 42.2549C29.4555 42.2549 32.3216 39.4348 32.3216 35.715C32.3216 31.8395 29.4555 28.9242 25.7434 28.9242Z" fill="#646CAB"/>
<path d="M32.5973 46.2775C29.8348 48.5958 27.6594 49.4436 24.448 49.4436C21.1848 49.4436 18.2928 48.3882 15.9275 46.2775C12.811 43.5092 11.1622 39.8933 11.1622 35.6631C11.1622 31.7876 12.647 28.3187 15.4613 25.6023C17.9648 23.1369 20.969 21.8826 24.3789 21.8826C27.6421 21.8826 30.5168 22.9898 31.8981 25.3082V14.2527C28.4536 12.1938 24.9142 11 20.805 11C9.29749 11 0 20.3427 0 31.8741C0 43.4054 9.34065 52.6963 20.8481 52.6963C25.0955 52.6963 29.0493 51.2516 32.347 49.1754H32.606V46.2775H32.5973Z" fill="#646CAB"/>
<path d="M40.1934 40.2479C41.3156 37.6873 41.6868 34.8585 41.6868 31.8827C41.6868 28.9068 41.3156 26.0781 40.1934 23.5175" fill="#646CAB"/>
<path d="M40.1937 23.5088V11.8823L31.9062 13.526V14.2526C35.3594 16.4672 38.1218 19.6852 40.1937 23.5088Z" fill="#646CAB"/>
<path d="M40.1945 40.2479C38.1226 43.9504 35.9299 47.1079 32.5977 49.1841H40.1945V40.2479Z" fill="#646CAB"/>
</g>
<defs>
<clipPath id="clip0_1567_11">
<rect width="41.6963" height="41.6963" fill="white" transform="translate(0 11)"/>
</clipPath>
</defs>
</svg>
