<svg width="160" height="65" viewBox="0 0 160 65" fill="none" xmlns="http://www.w3.org/2000/svg">
<path d="M62.8417 30.0931C62.8417 32.0884 62.2513 33.6316 61.0704 34.7229C59.8977 35.806 58.2283 36.3476 56.062 36.3476H54.7061V42.2722H49.8809V24.4128H56.062C58.3178 24.4128 60.0118 24.9055 61.1437 25.8909C62.2757 26.8763 62.8417 28.2771 62.8417 30.0931ZM54.7061 32.4141H55.5856C56.3104 32.4141 56.8845 32.2105 57.308 31.8033C57.7396 31.3962 57.9554 30.8342 57.9554 30.1176C57.9554 28.9123 57.2876 28.3097 55.9521 28.3097H54.7061V32.4141Z" fill="#646CAB"/>
<path d="M62.9829 28.4318H68.0158L70.3612 36.372C70.4752 36.7874 70.5526 37.2882 70.5933 37.8745H70.691C70.7562 37.3126 70.8539 36.8199 70.9842 36.3964L73.3907 28.4318H78.2648L72.7921 43.1517C72.0918 45.0248 71.2285 46.3482 70.2024 47.1218C69.1844 47.8955 67.8529 48.2823 66.2079 48.2823C65.5727 48.2823 64.9212 48.2131 64.2534 48.0747V44.3244C64.685 44.4222 65.1777 44.471 65.7315 44.471C66.1549 44.471 66.5255 44.3896 66.8431 44.2267C67.1607 44.0638 67.4376 43.8317 67.6738 43.5304C67.9099 43.2372 68.1624 42.7527 68.4311 42.0767L62.9829 28.4318Z" fill="#646CAB"/>
<path d="M87.5311 28.1875C87.9465 28.1875 88.3414 28.2201 88.716 28.2852L88.9848 28.3341L88.5572 32.8417C88.1663 32.744 87.6248 32.6951 86.9326 32.6951C85.8901 32.6951 85.1328 32.9353 84.6604 33.4158C84.1881 33.8882 83.9519 34.5722 83.9519 35.4681V42.2722H79.1756V28.4318H82.7304L83.4755 30.6429H83.7076C84.1067 29.9099 84.6604 29.3195 85.3689 28.8716C86.0856 28.4155 86.8063 28.1875 87.5311 28.1875Z" fill="#646CAB"/>
<path d="M99.204 42.2722L98.2878 40.4398H98.1901C97.5467 41.2379 96.8911 41.7836 96.2233 42.0767C95.5555 42.3699 94.6923 42.5165 93.6336 42.5165C92.3306 42.5165 91.3045 42.1256 90.5552 41.3438C89.806 40.562 89.4314 39.4626 89.4314 38.0456C89.4314 36.5715 89.9445 35.4762 90.9706 34.7595C91.9967 34.0347 93.4829 33.6276 95.4293 33.538L97.7381 33.4647V33.2692C97.7381 32.1291 97.1762 31.559 96.0523 31.559C95.0425 31.559 93.7598 31.9011 92.2044 32.5851L90.824 29.4335C92.4365 28.6028 94.4724 28.1875 96.9318 28.1875C98.7072 28.1875 100.079 28.6273 101.049 29.5068C102.026 30.3863 102.514 31.616 102.514 33.1959V42.2722H99.204ZM95.6614 39.145C96.2396 39.145 96.7323 38.9617 97.1395 38.5953C97.5548 38.2288 97.7625 37.7524 97.7625 37.166V36.0911L96.6631 36.1399C95.0913 36.1969 94.3055 36.7751 94.3055 37.8745C94.3055 38.7215 94.7575 39.145 95.6614 39.145Z" fill="#646CAB"/>
<path d="M122.005 42.2722V34.7473C122.005 33.8108 121.875 33.1104 121.614 32.6462C121.362 32.1739 120.959 31.9377 120.405 31.9377C119.672 31.9377 119.135 32.2513 118.793 32.8783C118.451 33.5054 118.28 34.4867 118.28 35.8223V42.2722H113.491V34.7473C113.491 33.8108 113.369 33.1104 113.124 32.6462C112.88 32.1739 112.485 31.9377 111.94 31.9377C111.19 31.9377 110.645 32.2716 110.303 32.9394C109.961 33.6072 109.79 34.6985 109.79 36.2132V42.2722H105.013V28.4318H108.617L109.215 30.142H109.496C109.863 29.5068 110.392 29.0222 111.084 28.6883C111.785 28.3544 112.579 28.1875 113.467 28.1875C115.462 28.1875 116.862 28.7942 117.669 30.0076H118.047C118.438 29.4376 118.98 28.9937 119.672 28.6761C120.372 28.3504 121.142 28.1875 121.981 28.1875C123.618 28.1875 124.827 28.6069 125.609 29.4457C126.391 30.2845 126.782 31.559 126.782 33.2692V42.2722H122.005Z" fill="#646CAB"/>
<path d="M138.308 42.2722L137.392 40.4398H137.294C136.651 41.2379 135.995 41.7836 135.327 42.0767C134.659 42.3699 133.796 42.5165 132.738 42.5165C131.435 42.5165 130.408 42.1256 129.659 41.3438C128.91 40.562 128.535 39.4626 128.535 38.0456C128.535 36.5715 129.048 35.4762 130.075 34.7595C131.101 34.0347 132.587 33.6276 134.533 33.538L136.842 33.4647V33.2692C136.842 32.1291 136.28 31.559 135.156 31.559C134.146 31.559 132.864 31.9011 131.308 32.5851L129.928 29.4335C131.54 28.6028 133.576 28.1875 136.036 28.1875C137.811 28.1875 139.183 28.6273 140.152 29.5068C141.13 30.3863 141.618 31.616 141.618 33.1959V42.2722H138.308ZM134.765 39.145C135.344 39.145 135.836 38.9617 136.243 38.5953C136.659 38.2288 136.866 37.7524 136.866 37.166V36.0911L135.767 36.1399C134.195 36.1969 133.409 36.7751 133.409 37.8745C133.409 38.7215 133.861 39.145 134.765 39.145Z" fill="#646CAB"/>
<path d="M147.049 35.2115L142.822 28.4318H148.246L150.347 32.3164L152.497 28.4318H157.933L153.597 35.2115L158.104 42.2722H152.68L150.347 38.07L148.026 42.2722H142.59L147.049 35.2115Z" fill="#646CAB"/>
<circle cx="20.8481" cy="31.8481" r="20.8481" fill="#646CAB"/>
<ellipse cx="21.3004" cy="26.4094" rx="7.70475" ry="7.25153" fill="#646CAB"/>
<mask id="mask0_1567_3" style="mask-type:alpha" maskUnits="userSpaceOnUse" x="0" y="11" width="42" height="42">
<circle cx="20.8481" cy="31.8481" r="20.8481" fill="#A8AABC"/>
</mask>
<g mask="url(#mask0_1567_3)">
<path d="M36.9554 20.2343C38.2131 24.9279 37.7872 28.933 35.6779 32.2495C33.5828 35.5418 29.9696 37.8754 24.8382 39.2503L21.6263 40.111L25.3607 54.048L13.931 57.1106L2.67383 15.0984L17.3155 11.1752C22.659 9.74337 26.9821 9.82725 30.2846 11.4268C33.5871 13.0264 35.8107 15.9622 36.9554 20.2343ZM19.147 30.8579L21.2304 30.2997C22.9472 29.8397 24.1789 28.9963 24.9254 27.7697C25.6911 26.5378 25.8481 25.079 25.3964 23.3931C24.6367 20.5579 22.675 19.5641 19.5113 20.4118L16.5598 21.2026L19.147 30.8579Z" fill="white"/>
</g>
</svg>
