<svg width="182" height="65" viewBox="0 0 182 65" fill="none" xmlns="http://www.w3.org/2000/svg">
<g clip-path="url(#clip0_1567_6)">
<path d="M75.2089 34.9229L73.4639 35.1491C73.4424 36.0539 73.4208 36.9587 73.3993 37.8635C73.3993 38.7468 73.3993 39.6516 73.3993 40.5779V41.9674C72.2575 42.5922 71.1265 43.0554 70.0062 43.357C68.886 43.6801 67.6796 43.8417 66.387 43.8417C64.6851 43.8417 63.1448 43.5616 61.766 43.0015C60.3873 42.4414 59.2024 41.6766 58.2114 40.7072C57.242 39.7162 56.488 38.5529 55.9494 37.2172C55.4323 35.86 55.1738 34.3843 55.1738 32.7901C55.1738 31.1959 55.4431 29.7202 55.9817 28.363C56.5203 27.0058 57.285 25.8425 58.276 24.873C59.2886 23.882 60.5057 23.1065 61.9276 22.5464C63.3494 21.9862 64.9436 21.7062 66.7101 21.7062C67.7442 21.7062 68.7783 21.8247 69.8123 22.0616C70.8464 22.2771 71.9343 22.6649 73.0761 23.225L73.2054 27.8136H70.6202L70.0385 24.2267C69.026 23.7312 67.992 23.4835 66.9363 23.4835C64.8467 23.4835 63.1879 24.2914 61.9599 25.9071C60.7319 27.5228 60.118 29.8172 60.118 32.7901C60.118 34.255 60.2903 35.5692 60.635 36.7325C61.0012 37.8743 61.4859 38.8437 62.0892 39.6408C62.7139 40.4379 63.4464 41.0411 64.2865 41.4504C65.1267 41.8597 66.0423 42.0644 67.0333 42.0644C67.658 42.0644 68.2289 41.989 68.746 41.8382V40.5779C68.746 39.6731 68.7352 38.7791 68.7137 37.8958C68.7137 37.0125 68.7029 36.1185 68.6813 35.2137L66.2901 34.9229V33.3071H75.2089V34.9229Z" fill="#646CAB"/>
<path d="M94.3735 41.9351V43.357L88.4276 43.6801L88.2014 40.998C87.3827 41.9244 86.5318 42.6353 85.6485 43.1308C84.7653 43.6047 83.8066 43.8417 82.7725 43.8417C82.0831 43.8417 81.4584 43.734 80.8983 43.5185C80.3597 43.3247 79.8858 43.0015 79.4764 42.5491C79.0887 42.0752 78.7871 41.472 78.5716 40.7395C78.3562 40.007 78.2593 39.1022 78.2808 38.0251L78.4101 29.7848L76.6327 29.4617V28.1691L82.4494 27.5874L82.8372 27.846L82.6756 32.4346V37.4111C82.6756 38.8329 82.8587 39.8239 83.2249 40.384C83.5912 40.9226 84.0651 41.1919 84.6468 41.1919C85.2069 41.1919 85.7778 41.0088 86.3594 40.6425C86.9627 40.2763 87.5443 39.8239 88.1044 39.2853L88.2337 29.7848L86.4564 29.4617V28.2337L92.2084 27.5874L92.5962 27.846L92.4992 32.4346V41.5474L94.3735 41.9351Z" fill="#646CAB"/>
<path d="M105.346 35.0198C104.937 35.1275 104.549 35.246 104.183 35.3753C103.838 35.483 103.537 35.5907 103.278 35.6984C102.33 36.0646 101.673 36.5278 101.307 37.0879C100.941 37.6481 100.758 38.2728 100.758 38.9622C100.758 39.393 100.811 39.7377 100.919 39.9963C101.048 40.2548 101.199 40.4702 101.372 40.6425C101.824 41.095 102.427 41.3212 103.181 41.3212C103.526 41.3212 103.86 41.2673 104.183 41.1596C104.506 41.0303 104.894 40.8041 105.346 40.481V35.0198ZM112.52 41.3212C112.089 42.2044 111.594 42.8184 111.034 43.1631C110.495 43.5078 109.816 43.6801 108.998 43.6801C108.115 43.6801 107.382 43.5078 106.8 43.1631C106.219 42.8184 105.809 42.366 105.573 41.8059C104.84 42.4737 104.129 42.98 103.44 43.3247C102.772 43.6693 101.932 43.8417 100.919 43.8417C99.6266 43.8417 98.571 43.5185 97.7524 42.8723C96.9553 42.2044 96.5567 41.235 96.5567 39.9639C96.5567 39.4684 96.6321 38.9837 96.7829 38.5098C96.9553 38.0143 97.2569 37.5403 97.6877 37.0879C98.1401 36.614 98.7541 36.1616 99.5297 35.7307C100.305 35.2999 101.307 34.8798 102.535 34.4705C102.901 34.3412 103.332 34.2119 103.828 34.0827C104.323 33.9319 104.829 33.7811 105.346 33.6303V32.6608C105.346 31.3036 105.142 30.3342 104.732 29.7525C104.323 29.1709 103.601 28.88 102.567 28.88C102.395 28.88 102.223 28.8908 102.05 28.9123C101.899 28.9123 101.738 28.9231 101.565 28.9447L101.307 30.8189C101.199 31.6591 100.941 32.2838 100.531 32.6932C100.122 33.1025 99.6374 33.3071 99.0773 33.3071C98.5818 33.3071 98.1509 33.1563 97.7847 32.8547C97.44 32.5531 97.2138 32.1546 97.1061 31.6591C97.2569 30.388 97.9355 29.3432 99.1419 28.5246C100.348 27.6844 101.986 27.2643 104.054 27.2643C105.066 27.2643 105.928 27.3828 106.639 27.6198C107.371 27.8352 107.964 28.2014 108.416 28.7185C108.869 29.2139 109.203 29.8818 109.418 30.722C109.633 31.5406 109.741 32.5531 109.741 33.7595V40.4163C109.741 40.761 109.806 41.0411 109.935 41.2565C110.064 41.472 110.269 41.5797 110.549 41.5797C110.764 41.5797 110.937 41.515 111.066 41.3858C111.195 41.2565 111.346 41.095 111.518 40.9011L111.68 40.7072L112.52 41.3212Z" fill="#646CAB"/>
<path d="M119.991 30.7543C120.594 29.6556 121.283 28.8046 122.059 28.2014C122.834 27.5767 123.599 27.2643 124.353 27.2643C124.806 27.2643 125.269 27.4043 125.743 27.6844C126.238 27.9644 126.572 28.4923 126.744 29.2678C126.744 29.9787 126.54 30.5604 126.13 31.0128C125.721 31.4437 125.172 31.6591 124.482 31.6591C123.642 31.6591 122.813 31.2175 121.994 30.3342L121.93 30.2696C121.542 30.6358 121.175 31.0559 120.831 31.5298C120.508 31.9822 120.228 32.51 119.991 33.1132V36.5709C119.991 37.2603 119.991 38.0466 119.991 38.9299C119.991 39.8131 120.001 40.6533 120.023 41.4504L122.479 41.9351V43.357H113.592V41.9351L115.564 41.5474C115.585 40.7503 115.596 39.8993 115.596 38.9945C115.596 38.0681 115.596 37.2603 115.596 36.5709V34.6967C115.596 34.2443 115.596 33.8565 115.596 33.5333C115.596 33.2102 115.585 32.9086 115.564 32.6285C115.564 32.3269 115.553 32.0469 115.531 31.7883C115.531 31.5083 115.52 31.2067 115.499 30.8835L113.334 30.5927V29.3647L119.183 27.2643L119.667 27.5874L119.991 30.7543Z" fill="#646CAB"/>
<path d="M138.62 30.8189C138.168 30.4958 137.715 30.2372 137.263 30.0434C136.832 29.8495 136.39 29.7525 135.938 29.7525C135.464 29.7525 135.012 29.871 134.581 30.108C134.15 30.345 133.762 30.7004 133.417 31.1744C133.094 31.6483 132.825 32.2515 132.609 32.984C132.416 33.6949 132.319 34.5459 132.319 35.5368C132.319 37.4973 132.642 38.9514 133.288 39.8993C133.956 40.8472 134.775 41.3212 135.744 41.3212C136.218 41.3212 136.692 41.2242 137.166 41.0303C137.661 40.8149 138.146 40.5456 138.62 40.2225V30.8189ZM144.889 41.9351V43.357L139.008 43.6801L138.749 41.7736C138.103 42.4414 137.403 42.9584 136.649 43.3247C135.895 43.6693 135.022 43.8417 134.031 43.8417C133.127 43.8417 132.276 43.6693 131.478 43.3247C130.703 42.98 130.024 42.4629 129.443 41.7736C128.883 41.0842 128.441 40.2332 128.118 39.2207C127.795 38.1866 127.633 36.991 127.633 35.6338C127.633 34.3412 127.805 33.1779 128.15 32.1438C128.516 31.1097 129.012 30.2372 129.637 29.5263C130.261 28.7939 130.983 28.2337 131.802 27.846C132.642 27.4582 133.547 27.2643 134.516 27.2643C135.421 27.2643 136.218 27.4151 136.907 27.7167C137.597 28.0183 138.221 28.4492 138.782 29.0093V23.1603L136.196 22.8372V21.5446L142.692 20.0905L143.144 20.349L143.015 24.9376V41.5474L144.889 41.9351Z" fill="#646CAB"/>
<path d="M155.554 35.0198C155.145 35.1275 154.757 35.246 154.391 35.3753C154.046 35.483 153.744 35.5907 153.486 35.6984C152.538 36.0646 151.881 36.5278 151.515 37.0879C151.148 37.6481 150.965 38.2728 150.965 38.9622C150.965 39.393 151.019 39.7377 151.127 39.9963C151.256 40.2548 151.407 40.4702 151.579 40.6425C152.032 41.095 152.635 41.3212 153.389 41.3212C153.733 41.3212 154.067 41.2673 154.391 41.1596C154.714 41.0303 155.101 40.8041 155.554 40.481V35.0198ZM162.728 41.3212C162.297 42.2044 161.801 42.8184 161.241 43.1631C160.703 43.5078 160.024 43.6801 159.205 43.6801C158.322 43.6801 157.59 43.5078 157.008 43.1631C156.426 42.8184 156.017 42.366 155.78 41.8059C155.048 42.4737 154.337 42.98 153.647 43.3247C152.979 43.6693 152.139 43.8417 151.127 43.8417C149.834 43.8417 148.779 43.5185 147.96 42.8723C147.163 42.2044 146.764 41.235 146.764 39.9639C146.764 39.4684 146.84 38.9837 146.99 38.5098C147.163 38.0143 147.464 37.5403 147.895 37.0879C148.348 36.614 148.962 36.1616 149.737 35.7307C150.513 35.2999 151.515 34.8798 152.742 34.4705C153.109 34.3412 153.54 34.2119 154.035 34.0827C154.531 33.9319 155.037 33.7811 155.554 33.6303V32.6608C155.554 31.3036 155.349 30.3342 154.94 29.7525C154.531 29.1709 153.809 28.88 152.775 28.88C152.602 28.88 152.43 28.8908 152.258 28.9123C152.107 28.9123 151.945 28.9231 151.773 28.9447L151.515 30.8189C151.407 31.6591 151.148 32.2838 150.739 32.6932C150.33 33.1025 149.845 33.3071 149.285 33.3071C148.789 33.3071 148.358 33.1563 147.992 32.8547C147.648 32.5531 147.421 32.1546 147.314 31.6591C147.464 30.388 148.143 29.3432 149.349 28.5246C150.556 27.6844 152.193 27.2643 154.261 27.2643C155.274 27.2643 156.136 27.3828 156.846 27.6198C157.579 27.8352 158.171 28.2014 158.624 28.7185C159.076 29.2139 159.41 29.8818 159.626 30.722C159.841 31.5406 159.949 32.5531 159.949 33.7595V40.4163C159.949 40.761 160.013 41.0411 160.143 41.2565C160.272 41.472 160.476 41.5797 160.757 41.5797C160.972 41.5797 161.144 41.515 161.274 41.3858C161.403 41.2565 161.554 41.095 161.726 40.9011L161.888 40.7072L162.728 41.3212Z" fill="#646CAB"/>
<path d="M182.025 41.9351V43.357H173.753V41.9351L175.724 41.5474C175.746 40.7503 175.756 39.8993 175.756 38.9945C175.756 38.0897 175.756 37.2818 175.756 36.5709V33.4687C175.756 32.2407 175.627 31.3467 175.369 30.7866C175.11 30.2049 174.604 29.9141 173.85 29.9141C173.225 29.9141 172.611 30.0864 172.008 30.4311C171.426 30.7543 170.823 31.2175 170.198 31.8207V36.5709C170.198 37.2603 170.198 38.0681 170.198 38.9945C170.198 39.8993 170.209 40.7503 170.231 41.5474L172.072 41.9351V43.357H163.8V41.9351L165.771 41.5474C165.793 40.7287 165.803 39.867 165.803 38.9622C165.803 38.0574 165.803 37.2603 165.803 36.5709V34.729C165.803 34.2766 165.803 33.8888 165.803 33.5656C165.803 33.221 165.793 32.9086 165.771 32.6285C165.771 32.3269 165.76 32.0469 165.739 31.7883C165.739 31.5083 165.728 31.2067 165.706 30.8835L163.541 30.5927V29.3647L169.39 27.2643L169.875 27.5874L170.101 30.1403C170.554 29.6233 170.974 29.1924 171.362 28.8477C171.771 28.4815 172.18 28.1799 172.589 27.9429C172.999 27.7059 173.419 27.5336 173.85 27.4259C174.302 27.3182 174.808 27.2643 175.369 27.2643C176.92 27.2643 178.104 27.7275 178.923 28.6538C179.742 29.5586 180.151 30.9913 180.151 32.9517V36.5709C180.151 37.2818 180.151 38.1005 180.151 39.0268C180.151 39.9316 180.162 40.7718 180.183 41.5474L182.025 41.9351Z" fill="#646CAB"/>
<path d="M4.37811 10C1.96015 10 0 11.9601 0 14.3781V49.403C0 51.4391 1.38989 53.1505 3.27265 53.6403C3.97626 51.6762 5.72898 50.0306 8.53083 48.7035C7.13344 48.1128 6.11921 47.3403 5.48813 46.3861C4.90213 45.4319 4.60913 44.3868 4.60913 43.2509C4.60913 41.6605 5.0599 40.1611 5.96144 38.7525C6.86298 37.2985 8.14768 35.8445 9.81553 34.3904C7.96737 33.4362 6.59252 32.164 5.69098 30.5736C4.83451 28.9833 4.40628 27.2112 4.40628 25.2573C4.40628 23.667 4.67674 22.213 5.21767 20.8953C5.80367 19.5321 6.68267 18.3507 7.85468 17.3511C9.02668 16.3514 10.4917 15.579 12.2497 15.0337C14.0528 14.4885 16.1489 14.2159 18.5379 14.2159C20.9721 14.2159 23.0682 14.4885 24.8262 15.0337C26.6293 15.579 28.1168 16.3514 29.2888 17.3511L36.8618 14.0795L37.9436 14.7611V20.0092H31.5201C32.3315 21.5087 32.7372 23.2581 32.7372 25.2573C32.7372 26.8022 32.4442 28.2335 31.8582 29.5513C31.2722 30.869 30.3932 32.0276 29.2212 33.0273C28.0492 33.9815 26.5617 34.7539 24.7586 35.3446C23.0006 35.8899 20.927 36.1625 18.5379 36.1625C16.1939 36.1625 14.1429 35.8899 12.3849 35.3446C11.844 36.2988 11.5735 37.3439 11.5735 38.4799C11.5735 39.2523 11.8665 39.8885 12.4525 40.3883C13.0385 40.8427 14.0528 41.0698 15.4952 41.0698H23.4063C25.9757 41.0698 28.1393 41.3198 29.8974 41.8196C31.6554 42.274 33.0753 42.9555 34.1571 43.8643C35.2841 44.7276 36.0729 45.7727 36.5237 46.9995C37.0195 48.1809 37.2674 49.5214 37.2674 51.0208C37.2674 51.9756 37.1365 52.8957 36.8746 53.7811H39.403C41.8209 53.7811 43.7811 51.8209 43.7811 49.403V14.3781C43.7811 11.9601 41.8209 10 39.403 10H4.37811Z" fill="#646CAB"/>
<path d="M28.6954 53.7811C28.5714 53.033 28.2283 52.3401 27.666 51.7024C26.9448 50.93 25.6601 50.5437 23.8119 50.5437H16.7123C14.2331 50.5437 12.1821 50.3392 10.5593 49.9303C10.1987 50.5664 9.92822 51.1799 9.74791 51.7706C9.57517 52.3365 9.48517 53.0066 9.47793 53.7811H28.6954Z" fill="#646CAB"/>
<path d="M15.1572 19.5321C15.9235 18.169 17.0729 17.4874 18.6056 17.4874C20.0931 17.4874 21.22 18.169 21.9863 19.5321C22.7977 20.8498 23.2034 22.7128 23.2034 25.121C23.2034 27.5747 22.7977 29.5058 21.9863 30.9144C21.22 32.2776 20.048 32.9591 18.4703 32.9591C16.8926 32.9591 15.7432 32.2776 15.0219 30.9144C14.3458 29.5513 14.0077 27.6429 14.0077 25.1892C14.0077 22.7355 14.3908 20.8498 15.1572 19.5321Z" fill="#646CAB"/>
</g>
<defs>
<clipPath id="clip0_1567_6">
<rect width="182" height="65" fill="white"/>
</clipPath>
</defs>
</svg>
