<svg width="180" height="65" viewBox="0 0 180 65" fill="none" xmlns="http://www.w3.org/2000/svg">
<g clip-path="url(#clip0_1567_13)">
<path d="M161 16H180V35H175V24.586L156.586 43L153 39.414L171.414 21H161V16Z" fill="#646CAB"/>
<path d="M-0.224 43L8.96 20.6H15.264L24.32 43H18.368L16.32 37.592H7.584L5.504 43H-0.224ZM9.248 33.208H14.688L12 26.04L9.248 33.208ZM30.1248 26.072V35.8C30.1248 36.7173 30.4021 37.464 30.9568 38.04C31.5328 38.5947 32.2794 38.872 33.1968 38.872C33.8581 38.872 34.4448 38.7547 34.9568 38.52C35.4688 38.2853 35.8954 37.9547 36.2368 37.528V26.072H41.4208V43H36.2368V41.848C35.6181 42.3173 34.9141 42.68 34.1248 42.936C33.3568 43.192 32.5461 43.32 31.6927 43.32C29.7088 43.32 28.0874 42.68 26.8288 41.4C25.5701 40.12 24.9408 38.488 24.9408 36.504V26.072H30.1248ZM47.0312 37.848V30.392H43.6073V26.072H47.0312V21.72L52.2153 20.6V26.072H56.9513V30.392H52.2153V36.824C52.2153 37.5707 52.3753 38.104 52.6953 38.424C53.0366 38.7227 53.6233 38.872 54.4553 38.872C54.8606 38.872 55.2446 38.8507 55.6073 38.808C55.9699 38.744 56.3646 38.648 56.7913 38.52V42.712C56.3219 42.8613 55.7246 42.9787 54.9993 43.064C54.2739 43.1707 53.6659 43.224 53.1753 43.224C51.1486 43.224 49.6126 42.776 48.5673 41.88C47.5433 40.9627 47.0312 39.6187 47.0312 37.848ZM58.207 34.552C58.207 33.336 58.4417 32.1947 58.911 31.128C59.4017 30.04 60.0523 29.1013 60.863 28.312C61.695 27.5227 62.6657 26.904 63.775 26.456C64.9057 25.9867 66.111 25.752 67.391 25.752C68.671 25.752 69.8657 25.9867 70.975 26.456C72.1057 26.904 73.0763 27.5227 73.887 28.312C74.719 29.1013 75.3697 30.04 75.839 31.128C76.3297 32.1947 76.575 33.336 76.575 34.552C76.575 35.768 76.3297 36.92 75.839 38.008C75.3697 39.0747 74.719 40.0027 73.887 40.792C73.0763 41.5813 72.1057 42.2 70.975 42.648C69.8657 43.096 68.671 43.32 67.391 43.32C66.111 43.32 64.9057 43.096 63.775 42.648C62.6657 42.2 61.695 41.5813 60.863 40.792C60.0523 40.0027 59.4017 39.0747 58.911 38.008C58.4417 36.92 58.207 35.768 58.207 34.552ZM67.391 38.84C68.543 38.84 69.5137 38.424 70.303 37.592C71.1137 36.76 71.519 35.7467 71.519 34.552C71.519 33.336 71.1137 32.312 70.303 31.48C69.5137 30.648 68.543 30.232 67.391 30.232C66.239 30.232 65.2577 30.648 64.447 31.48C63.6577 32.312 63.263 33.336 63.263 34.552C63.263 35.7467 63.6577 36.76 64.447 37.592C65.2577 38.424 66.239 38.84 67.391 38.84ZM77.9823 25.464V20.6H98.1423V25.464H90.8143V43H85.3103V25.464H77.9823ZM99.0375 43V26.072H104.222V27.768C104.776 27.1067 105.427 26.5947 106.174 26.232C106.92 25.8693 107.752 25.688 108.67 25.688C109.16 25.7093 109.555 25.752 109.854 25.816C110.152 25.8587 110.408 25.9547 110.622 26.104V30.616C110.28 30.4667 109.896 30.3493 109.47 30.264C109.043 30.1573 108.606 30.104 108.158 30.104C107.347 30.104 106.59 30.296 105.885 30.68C105.203 31.064 104.648 31.5867 104.222 32.248V43H99.0375ZM111.457 34.552C111.457 33.336 111.692 32.1947 112.161 31.128C112.652 30.04 113.302 29.1013 114.113 28.312C114.945 27.5227 115.916 26.904 117.025 26.456C118.156 25.9867 119.361 25.752 120.641 25.752C121.921 25.752 123.116 25.9867 124.225 26.456C125.356 26.904 126.326 27.5227 127.137 28.312C127.969 29.1013 128.62 30.04 129.089 31.128C129.58 32.1947 129.825 33.336 129.825 34.552C129.825 35.768 129.58 36.92 129.089 38.008C128.62 39.0747 127.969 40.0027 127.137 40.792C126.326 41.5813 125.356 42.2 124.225 42.648C123.116 43.096 121.921 43.32 120.641 43.32C119.361 43.32 118.156 43.096 117.025 42.648C115.916 42.2 114.945 41.5813 114.113 40.792C113.302 40.0027 112.652 39.0747 112.161 38.008C111.692 36.92 111.457 35.768 111.457 34.552ZM120.641 38.84C121.793 38.84 122.764 38.424 123.553 37.592C124.364 36.76 124.769 35.7467 124.769 34.552C124.769 33.336 124.364 32.312 123.553 31.48C122.764 30.648 121.793 30.232 120.641 30.232C119.489 30.232 118.508 30.648 117.697 31.48C116.908 32.312 116.513 33.336 116.513 34.552C116.513 35.7467 116.908 36.76 117.697 37.592C118.508 38.424 119.489 38.84 120.641 38.84ZM128.902 43L135.335 34.424L128.998 26.072H135.015L138.343 30.616L141.639 26.072H147.431L141.191 34.36L147.783 43H141.767L138.215 38.168L134.695 43H128.902Z" fill="#646CAB"/>
</g>
<defs>
<clipPath id="clip0_1567_13">
<rect width="180" height="65" fill="white"/>
</clipPath>
</defs>
</svg>
