<svg xmlns="http://www.w3.org/2000/svg" width="2390" height="323" viewBox="0 0 2390git  323">
  <g id="Group_9" data-name="Group 9" transform="translate(-446 -239)">
    <text id="COMPLAINBOS" transform="translate(838 498)" fill="#203881" font-size="275" font-family="Raleway" font-weight="800" letter-spacing="-0.024em"><tspan x="0" y="0">COMPLAIN</tspan><tspan y="0" fill="#5a5a5a">BOS</tspan></text>
    <path id="Path_18" data-name="Path 18" d="M30.486,28.339C39.8,20.39,52.472,12.042,64.357,7.6A124.419,124.419,0,0,1,102.028-.02L206.312-.053s40.9-.09,69.474,26.7,27.975,64.1,27.975,64.1A128.272,128.272,0,0,1,302.1,104.7a66.333,66.333,0,0,1-8,20.9c-12.347,21.678-23.149,22.753-23.149,22.753L244,140.056l-39.108-15.411s20.983-3.936,24.059-32.566-24.059-35.584-24.059-35.584H152.974a177.626,177.626,0,0,0-23.627,3.08,108.233,108.233,0,0,0-17.222,5.32,88.733,88.733,0,0,0-23.941,14S73.808,89.675,66.145,105.577s-8.516,35.1-8.516,35.1V165.49S57.5,184.854,65,201.128s23.41,29.466,23.41,29.466a117.208,117.208,0,0,0,27.149,15.281c15.119,5.8,32.882,8.716,32.882,8.716h55.216s26.439-4.834,24.891-35.137S200.9,186.482,200.9,186.482l-48.513-.2a33.889,33.889,0,0,1-6.99-1.132,34.611,34.611,0,0,1-5.454-2.623c-3.573-1.813-6.043-5.556-6.585-6.382-2.813-4.28-2.619-11.13-2.619-11.13V145.48a24.026,24.026,0,0,1,1.287-8.383,21.912,21.912,0,0,1,6.25-8.113c5.676-5,13.6-4.34,13.6-4.34h54.437l64.64,23.705a79.11,79.11,0,0,1,18.589,12.073,82.074,82.074,0,0,1,15.629,18.614c3.191,5.245,5.911,10.1,7.678,16.037a103.871,103.871,0,0,1,3.861,28.472s-2.023,28.341-13.462,47.531-28.418,31.288-49.253,37.755-49.011,7.148-49.011,7.148L0,316.429V87.089S.719,74.128,7.929,58.317A90.769,90.769,0,0,1,30.486,28.339Z" transform="translate(446 241.812)" fill="#203881"/>
  </g>
</svg>
