<?xml version="1.0" encoding="UTF-8" standalone="no"?>
<svg
   xmlns:dc="http://purl.org/dc/elements/1.1/"
   xmlns:cc="http://creativecommons.org/ns#"
   xmlns:rdf="http://www.w3.org/1999/02/22-rdf-syntax-ns#"
   xmlns:svg="http://www.w3.org/2000/svg"
   xmlns="http://www.w3.org/2000/svg"
   xmlns:sodipodi="http://sodipodi.sourceforge.net/DTD/sodipodi-0.dtd"
   xmlns:inkscape="http://www.inkscape.org/namespaces/inkscape"
   version="1.0"
   width="156.25pt"
   height="119.76744pt"
   viewBox="0 0 156.25 119.76743"
   preserveAspectRatio="xMidYMid meet"
   id="svg36"
   sodipodi:docname="nunukragang_icon.svg"
   inkscape:version="0.92.3 (2405546, 2018-03-11)">
  <metadata
     id="metadata42">
    <rdf:RDF>
      <cc:Work
         rdf:about="">
        <dc:format>image/svg+xml</dc:format>
        <dc:type
           rdf:resource="http://purl.org/dc/dcmitype/StillImage" />
        <dc:title></dc:title>
      </cc:Work>
    </rdf:RDF>
  </metadata>
  <defs
     id="defs40" />
  <sodipodi:namedview
     pagecolor="#ffffff"
     bordercolor="#666666"
     borderopacity="1"
     objecttolerance="10"
     gridtolerance="10"
     guidetolerance="10"
     inkscape:pageopacity="0"
     inkscape:pageshadow="2"
     inkscape:window-width="1920"
     inkscape:window-height="1036"
     id="namedview38"
     showgrid="false"
     inkscape:zoom="1.3199327"
     inkscape:cx="260.44093"
     inkscape:cy="72.434255"
     inkscape:window-x="0"
     inkscape:window-y="0"
     inkscape:window-maximized="1"
     inkscape:current-layer="g34"
     fit-margin-left="5"
     fit-margin-top="5"
     fit-margin-right="5"
     fit-margin-bottom="5" />
  <g
     transform="matrix(0.1,0,0,-0.1,-778.06022,1063.8151)"
     id="g34"
     style="fill:#000000;stroke:none">
    <path
       d="m 8451.5269,10478.368 c -60.2911,-60.291 -110.1416,-110.51 -110.8768,-111.612 -0.7353,-1.103 -1.1029,-2.574 -0.8823,-3.309 0.5147,-1.691 218.5184,-219.548 220.8712,-220.724 0.8823,-0.515 2.2058,-0.736 2.9411,-0.515 0.6617,0.221 50.8062,49.998 111.4649,110.656 105.4359,105.436 110.1416,110.289 109.7004,112.274 -0.3676,1.544 -32.5719,34.189 -110.215,111.833 -60.2911,60.291 -109.7739,109.994 -109.921,110.435 -0.147,0.441 -0.9558,0.809 -1.8381,0.735 -1.1029,-0.07 -36.5423,-34.998 -111.2444,-109.773 z m 178.741,-44.557 68.3789,-68.379 -68.3789,-68.379 c -37.5717,-37.645 -68.5995,-68.305 -68.8936,-68.232 -0.2941,0.147 -31.322,30.955 -68.8936,68.526 l -68.3054,68.232 68.1583,68.232 c 37.4246,37.572 68.4525,68.305 68.8201,68.305 0.4412,0.07 31.5425,-30.66 69.1142,-68.305 z"
       id="path2"
       inkscape:connector-curvature="0"
       style="stroke-width:0.07352572;fill:#eeeeec" />
    <path
       d="m 8312.5633,10343.448 c -5.735,-4.265 -219.4008,-218.813 -219.4008,-220.283 0,-2.059 221.1654,-223.1507 223.1506,-223.1507 0.9558,0 37.8657,36.4688 109.9945,108.6707 59.6293,59.703 109.4062,109.848 110.4356,111.318 1.1029,1.471 1.9852,3.309 1.9852,3.971 0,1.323 -208.666,210.283 -217.4156,217.783 -2.4998,2.059 -4.8527,3.823 -5.2203,3.823 -0.3676,0 -1.9852,-0.956 -3.5292,-2.132 z m 139.4047,-219.401 c 0,-0.956 -136.0225,-136.6841 -136.7578,-136.39 -0.8823,0.2941 -136.7578,136.023 -136.7578,136.611 0,0.22 30.8072,31.175 68.3789,68.746 l 68.3789,68.379 68.3789,-68.379 c 37.6452,-37.645 68.3789,-68.673 68.3789,-68.967 z"
       id="path4"
       inkscape:connector-curvature="0"
       style="stroke-width:0.07352572;fill:#eeeeec" />
    <path
       d="m 8694.0882,10232.424 c -60.2911,-60.512 -110.068,-110.95 -110.5827,-112.053 l -0.9558,-2.059 110.6562,-110.803 c 60.8058,-60.8794 110.8033,-110.8769 111.1709,-111.0239 0.5147,-0.2941 1.6175,0.5882 10.4406,8.1613 2.4264,2.1323 50.9534,50.2916 107.8623,107.1266 70.8788,70.806 103.5977,103.966 103.8918,105.363 0.2941,1.103 0.2941,2.867 0.073,4.044 -0.7352,2.867 -219.4007,221.533 -221.3859,221.312 -0.8823,-0.07 -46.0271,-44.777 -111.1709,-110.068 z m 246.6788,-112.2 c -0.1471,-0.662 -30.8073,-31.837 -68.2319,-69.188 l -67.9377,-67.9376 -68.2319,68.1586 c -37.4981,37.498 -68.2319,68.526 -68.2319,68.967 0,0.441 30.7338,31.469 68.3054,69.041 l 68.3054,68.305 68.1584,-68.085 c 44.1889,-44.189 68.0112,-68.526 67.8642,-69.261 z"
       id="path6"
       inkscape:connector-curvature="0"
       style="stroke-width:0.07352572;fill:#eeeeec" />
    <path
       d="m 8555.5658,10093.093 c -12.1318,-10.735 -216.8274,-216.2393 -216.8274,-217.7098 0,-1.397 203.4457,-205.725 215.7245,-216.6803 6.7643,-6.0291 7.3525,-6.0291 13.6758,-0.7352 6.4702,5.5144 210.5776,209.6953 213.5186,213.5922 1.4706,1.9852 2.647,3.9703 2.647,4.4115 0,0.8823 -219.5478,220.7976 -221.533,221.9746 -0.8088,0.367 -2.794,-0.956 -7.2055,-4.853 z m 73.7463,-148.0074 c 37.5716,-37.5717 68.2318,-68.3789 68.2318,-68.5995 0,-0.2206 -30.8073,-31.1749 -68.4524,-68.8201 l -68.4525,-68.526 -68.673,68.526 -68.5995,68.4525 68.526,68.5994 c 37.7187,37.6452 68.673,68.5261 68.8936,68.5261 0.2206,0 31.0278,-30.6603 68.526,-68.1584 z"
       id="path8"
       inkscape:connector-curvature="0"
       style="stroke-width:0.07352572;fill:#eeeeec" />
    <path
       d="m 8050.15,10082.285 c -1.2499,-1.177 -51.1004,-51.027 -110.8768,-110.5831 l -108.671,-108.4504 3.1616,-3.7499 c 1.7646,-2.0587 51.7621,-52.3503 111.1709,-111.759 71.614,-71.5406 108.5239,-108.0093 109.5533,-108.0093 0.9558,0 18.8226,17.2785 51.8356,50.218 27.7192,27.5722 58.8206,58.453 68.9672,68.5995 10.8818,10.8083 18.602,19.0432 18.602,19.852 0,0.8823 -17.6462,19.0431 -46.8359,48.1593 -25.8075,25.734 -56.8354,56.9824 -69.0407,69.4083 -14.9992,15.2933 -22.4988,22.4989 -23.3811,22.3518 -1.7647,-0.3676 -43.0861,-41.9096 -43.0861,-43.3066 0,-0.6618 10.1465,-11.2495 22.5724,-23.5283 12.4994,-12.3523 33.6748,-33.3071 47.0564,-46.6888 13.4552,-13.3081 24.4841,-24.7046 24.4841,-25.3664 0,-0.5882 -11.7641,-12.867 -26.1016,-27.2045 l -26.1017,-26.1016 -68.3789,68.3789 c -37.6451,37.5716 -68.3789,68.5995 -68.3789,68.9671 0,0.2941 30.7338,31.2485 68.3789,68.7466 l 68.3789,68.2314 69.1142,-69.1873 c 38.0128,-38.0128 70.07,-70.5111 71.32,-72.2757 2.8675,-3.9704 367.4815,-368.5109 368.5844,-368.5109 1.0293,0 371.0843,369.8343 371.0843,370.8637 0,1.2499 135.4343,135.802 136.4637,135.5814 1.397,-0.2941 136.3167,-134.9932 136.3167,-136.0961 0,-0.9558 -133.3757,-134.6991 -135.5814,-135.949 -1.1765,-0.6618 -4.7057,2.5734 -27.3516,25.2193 -14.3375,14.3375 -26.0281,26.3222 -26.0281,26.7633 0.074,0.3677 21.543,22.4254 47.7917,48.8946 26.3222,26.4693 47.7917,48.3064 47.7917,48.527 0,0.7353 -41.6891,41.9097 -42.4243,41.9097 -0.3677,0 -10.1466,-9.4849 -21.5431,-21.1019 -11.47,-11.6906 -42.5713,-42.8655 -69.1877,-69.3348 -26.5427,-26.4692 -48.5269,-48.9681 -48.821,-49.9239 -0.3677,-1.3235 -0.2206,-1.9117 0.8088,-2.4999 1.6175,-0.8088 22.2782,-21.1754 84.8486,-83.3782 24.4841,-24.337 45.8065,-45.2183 47.4241,-46.3947 1.6176,-1.1764 3.6028,-2.8675 4.338,-3.7498 1.9117,-2.1322 3.0146,-1.9852 6.985,0.9558 1.8381,1.397 51.615,50.8063 110.5827,109.7739 74.8491,74.9963 107.1269,107.7152 107.1269,108.8181 0,0.8823 -0.8823,2.6469 -1.9852,4.0439 -3.8233,4.7792 -210.9453,211.7545 -215.1362,214.9895 -4.7792,3.676 -5.588,3.897 -7.5732,1.691 -0.7352,-0.882 -2.5734,-2.353 -3.9704,-3.235 -1.4705,-0.883 -42.4978,-41.469 -91.1718,-90.0693 -48.7476,-48.6005 -89.922,-89.2603 -91.5396,-90.2161 -1.6175,-1.0294 -73.6727,-72.5699 -160.139,-158.9626 -86.3927,-86.3927 -157.6391,-157.198 -158.3008,-157.2715 -0.6618,-0.1471 -61.9822,60.5852 -163.9624,162.4918 -225.4298,225.2828 -335.2037,334.4687 -340.277,338.3657 -2.4263,1.838 -4.9262,3.382 -5.5144,3.382 -0.6618,0 -2.2058,-1.029 -3.3822,-2.279 z"
       id="path10"
       inkscape:connector-curvature="0"
       style="stroke-width:0.07352572;fill:#eeeeec" />
  </g>
</svg>
