<?xml version="1.0" encoding="UTF-8" standalone="no"?>
<!-- Generator: Adobe Illustrator 16.0.0, SVG Export Plug-In . SVG Version: 6.00 Build 0)  -->

<svg
   xmlns:dc="http://purl.org/dc/elements/1.1/"
   xmlns:cc="http://creativecommons.org/ns#"
   xmlns:rdf="http://www.w3.org/1999/02/22-rdf-syntax-ns#"
   xmlns:svg="http://www.w3.org/2000/svg"
   xmlns="http://www.w3.org/2000/svg"
   xmlns:sodipodi="http://sodipodi.sourceforge.net/DTD/sodipodi-0.dtd"
   xmlns:inkscape="http://www.inkscape.org/namespaces/inkscape"
   version="1.1"
   id="Layer_1"
   x="0px"
   y="0px"
   width="200.384"
   height="200.755"
   viewBox="0 0 200.384 200.755"
   enable-background="new 0 0 841.89 595.28"
   xml:space="preserve"
   sodipodi:docname="pestplanner_icon.svg"
   inkscape:version="0.92.3 (2405546, 2018-03-11)"><metadata
   id="metadata363"><rdf:RDF><cc:Work
       rdf:about=""><dc:format>image/svg+xml</dc:format><dc:type
         rdf:resource="http://purl.org/dc/dcmitype/StillImage" /><dc:title></dc:title></cc:Work></rdf:RDF></metadata><defs
   id="defs361" /><sodipodi:namedview
   pagecolor="#ffffff"
   bordercolor="#666666"
   borderopacity="1"
   objecttolerance="10"
   gridtolerance="10"
   guidetolerance="10"
   inkscape:pageopacity="0"
   inkscape:pageshadow="2"
   inkscape:window-width="1920"
   inkscape:window-height="1036"
   id="namedview359"
   showgrid="false"
   inkscape:zoom="0.32427039"
   inkscape:cx="-408.76908"
   inkscape:cy="125.72635"
   inkscape:window-x="0"
   inkscape:window-y="0"
   inkscape:window-maximized="1"
   inkscape:current-layer="v4"
   fit-margin-left="10"
   fit-margin-top="10"
   fit-margin-right="10"
   fit-margin-bottom="10" />

<g
   display="none"
   id="g4"
   style="display:none"
   transform="translate(-498.20062,-251.90793)">
</g>

<g
   display="none"
   id="g40"
   style="display:none"
   transform="translate(-498.20062,-251.90793)">
	<path
   display="inline"
   d="m 155.786,250.482 c 0,0 -17.618,23.315 -14.806,56.748 0,0 7.168,7.211 27.71,2.557 20.542,-4.652 33.432,-5.076 40.077,6.533 0,0 10.78,-13.303 7.35,-20.25 -3.431,-6.947 -10.4,-4.974 -24.396,-11.74 -13.997,-6.767 -40.356,-13.131 -35.935,-33.848 z"
   id="path8"
   inkscape:connector-curvature="0"
   style="display:inline" />
	<path
   display="inline"
   d="m 173.567,232.337 c 0,0 -8.005,21.192 7.851,34.013 15.855,12.819 41.793,7.241 44.745,30.892 0,0 16.084,-14.123 22.73,-7.059 3.45,3.664 4.418,8.291 4.55,11.89 0.123,3.338 11.091,-2.477 10.645,-3.39 -0.743,-1.527 -1.349,-5.16 2.936,-13.759 6.854,-13.764 21.479,-40.425 -11.984,-67.451 0.001,-0.001 -40.763,-26.057 -81.473,14.864 z"
   id="path10"
   inkscape:connector-curvature="0"
   style="display:inline" />
	<path
   display="inline"
   d="m 171.674,237.7 c 0,0 -7.738,36.315 23.932,42.468 0.46,0.09 0.929,0.174 1.408,0.25 33.304,5.336 15.768,28.222 15.768,28.222 0,0 2.394,-12.471 -12.932,-15.515 -15.325,-3.047 -38.444,-1.725 -51.641,-23.02 -0.001,-0.001 2.663,-24.338 23.465,-32.405 z"
   id="path12"
   inkscape:connector-curvature="0"
   style="display:inline" />
	<path
   display="inline"
   d="m 208.768,316.32 c 0,0 -6.298,-17.053 -38.035,-18.213 0,0 -21.335,3.236 -26.417,-7.213 0,0 -7.931,19.299 0.629,30.951 0,0 10.393,-1.107 25.658,-9.594 15.265,-8.487 28.937,-3.944 38.165,4.069 z"
   id="path14"
   inkscape:connector-curvature="0"
   style="display:inline" />
	<path
   display="inline"
   d="m 207.692,318.723 c 0,0 -12.368,-7.162 -23.522,-5.275 -11.155,1.887 -27.447,16.021 -35.473,14.375 0,0 0.442,0.896 1.502,2.096 2.907,3.285 10.459,8.82 26.291,4.287 0,0 8.851,-4.742 12,-8.729 3.149,-3.989 12.246,-8.166 19.202,-6.754 z"
   id="path16"
   inkscape:connector-curvature="0"
   style="display:inline" />
	<path
   display="inline"
   d="m 205.824,320.754 c 0,0 -8.831,3.805 -13.928,11.586 -5.099,7.791 -14.324,12.656 -21.4,9.984 -7.076,-2.67 -6.257,-1.832 -6.257,-1.832 0,0 2.652,7.113 20.93,13.313 18.276,6.201 22.067,-10.059 21.851,-15.66 -0.217,-5.602 -2.702,-12.34 -1.196,-17.391 z"
   id="path18"
   inkscape:connector-curvature="0"
   style="display:inline" />
	<path
   display="inline"
   d="m 174.781,230.699 c 0,0 -40.121,5.476 -69.796,27.164 -29.676,21.688 -29.863,33.916 -14.473,57.319 l 2.338,10.184 c 0,0 -20.751,4.52 -31.605,-28.436 -10.857,-32.958 27.516,-47.819 38.704,-53.475 11.186,-5.653 69.589,-22.045 84.948,-17.395 z"
   id="path20"
   inkscape:connector-curvature="0"
   style="display:inline" />
	<circle
   display="inline"
   cx="237.65401"
   cy="225.203"
   r="28.798"
   id="circle22"
   style="display:inline;fill:#ffffff" />
	<circle
   display="inline"
   cx="237.653"
   cy="225.201"
   r="26.049"
   id="circle24"
   style="display:inline;fill:#050606" />
	<path
   display="inline"
   d="m 264.219,215.322 c 0,0 3.832,8.323 3.273,11.542 l 2.42,4.361 c 0,0 2.684,-14.105 -9.412,-21.344"
   id="path26"
   inkscape:connector-curvature="0"
   style="display:inline" />
	<path
   display="inline"
   d="m 133.102,322.986 c 0,0 3.485,-0.703 10.558,-7.662 7.072,-6.959 24.611,-29.498 24.611,-29.498 0,0 -7.485,33.199 -15.407,42.385 -7.922,9.184 -22.221,2.645 -22.221,2.645 z"
   id="path28"
   inkscape:connector-curvature="0"
   style="display:inline;fill:#ffffff" />
	<path
   display="inline"
   d="m 185.002,226.068 c 0,0 -50.814,34.137 -67.822,53.289 -17.007,19.157 -37.038,45.326 -15.404,58.883 21.637,13.555 60.664,-41.646 62.745,-45.652 0,0 -2.345,29.477 -29.712,50.07 -27.369,20.59 -50.599,10.375 -57.859,-0.734 -7.259,-11.109 -15.175,-39.766 29.745,-72.747 44.92,-32.985 78.307,-43.109 78.307,-43.109 z"
   id="path30"
   inkscape:connector-curvature="0"
   style="display:inline" />
	<path
   display="inline"
   d="m 152.694,329.691 c 0,0 -2.643,0.129 -2.301,0.623 0.109,0.158 0.237,0.338 0.382,0.539 2.513,3.473 10.379,13.047 24.24,18.695 17.164,6.996 22.911,-3.674 22.911,-3.674 0,0 -1.266,-20.932 6.499,-24.439 7.766,-3.506 -0.706,-3.619 -2.049,-4.279 -0.997,-0.49 -3.03,-0.959 -7.093,-1.105 -9.542,-0.35 -42.589,13.64 -42.589,13.64 z"
   id="path32"
   inkscape:connector-curvature="0"
   style="display:inline" />
	<path
   display="inline"
   d="m 218.578,311.803 c 0,0 -2.938,4.203 -5.539,7.154 0,0 11.407,-0.826 23.771,-6.627 12.366,-5.801 -11.675,-0.894 -18.232,-0.527 z"
   id="path34"
   inkscape:connector-curvature="0"
   style="display:inline" />
	<path
   display="inline"
   d="m 211.539,323.012 c 0,0 -0.304,4.277 -3.815,6.672 0,0 40.937,-14.996 3.815,-6.672 z"
   id="path36"
   inkscape:connector-curvature="0"
   style="display:inline" />
	<path
   display="inline"
   d="m 225.788,300.883 -6.111,8.84 c 0,0 33.736,-10.917 20.407,-10.07 -13.331,0.847 -14.296,1.23 -14.296,1.23 z"
   id="path38"
   inkscape:connector-curvature="0"
   style="display:inline" />
</g>
<g
   display="none"
   id="g150"
   style="display:none;opacity:0.1"
   transform="translate(-498.20062,-251.90793)">
	<g
   display="inline"
   id="g58"
   style="display:inline">
		<line
   stroke-miterlimit="10"
   x1="99.82"
   y1="248.841"
   x2="197.39101"
   y2="346.41101"
   id="line42"
   style="stroke:#000000;stroke-miterlimit:10" />
		<line
   stroke-miterlimit="10"
   x1="93.07"
   y1="260.297"
   x2="190.64101"
   y2="357.867"
   id="line44"
   style="stroke:#000000;stroke-miterlimit:10" />
		<line
   stroke-miterlimit="10"
   x1="119.551"
   y1="229.944"
   x2="217.121"
   y2="327.51501"
   id="line46"
   style="stroke:#000000;stroke-miterlimit:10" />
		<line
   stroke-miterlimit="10"
   x1="112.801"
   y1="241.39999"
   x2="210.371"
   y2="338.97101"
   id="line48"
   style="stroke:#000000;stroke-miterlimit:10" />
		<line
   stroke-miterlimit="10"
   x1="138.42599"
   y1="210.39101"
   x2="235.99699"
   y2="307.961"
   id="line50"
   style="stroke:#000000;stroke-miterlimit:10" />
		<line
   stroke-miterlimit="10"
   x1="131.67599"
   y1="221.847"
   x2="229.24699"
   y2="319.418"
   id="line52"
   style="stroke:#000000;stroke-miterlimit:10" />
		<line
   stroke-miterlimit="10"
   x1="158.157"
   y1="191.495"
   x2="255.72701"
   y2="289.065"
   id="line54"
   style="stroke:#000000;stroke-miterlimit:10" />
		<line
   stroke-miterlimit="10"
   x1="151.407"
   y1="202.951"
   x2="248.97701"
   y2="300.521"
   id="line56"
   style="stroke:#000000;stroke-miterlimit:10" />
	</g>
	<g
   display="inline"
   id="g76"
   style="display:inline">
		<line
   stroke-miterlimit="10"
   x1="25.242001"
   y1="327.979"
   x2="122.812"
   y2="425.54901"
   id="line60"
   style="stroke:#000000;stroke-miterlimit:10" />
		<line
   stroke-miterlimit="10"
   x1="18.492001"
   y1="339.43399"
   x2="116.062"
   y2="437.004"
   id="line62"
   style="stroke:#000000;stroke-miterlimit:10" />
		<line
   stroke-miterlimit="10"
   x1="44.972"
   y1="309.082"
   x2="142.54201"
   y2="406.65201"
   id="line64"
   style="stroke:#000000;stroke-miterlimit:10" />
		<line
   stroke-miterlimit="10"
   x1="38.222"
   y1="320.53699"
   x2="135.79201"
   y2="418.10699"
   id="line66"
   style="stroke:#000000;stroke-miterlimit:10" />
		<line
   stroke-miterlimit="10"
   x1="63.848"
   y1="289.52802"
   x2="161.418"
   y2="387.09799"
   id="line68"
   style="stroke:#000000;stroke-miterlimit:10" />
		<line
   stroke-miterlimit="10"
   x1="57.098"
   y1="300.98401"
   x2="154.668"
   y2="398.55499"
   id="line70"
   style="stroke:#000000;stroke-miterlimit:10" />
		<line
   stroke-miterlimit="10"
   x1="83.578003"
   y1="270.63199"
   x2="181.14799"
   y2="368.202"
   id="line72"
   style="stroke:#000000;stroke-miterlimit:10" />
		<line
   stroke-miterlimit="10"
   x1="76.828003"
   y1="282.08801"
   x2="174.39799"
   y2="379.65799"
   id="line74"
   style="stroke:#000000;stroke-miterlimit:10" />
	</g>
	<g
   display="inline"
   id="g94"
   style="display:inline">
		<line
   stroke-miterlimit="10"
   x1="226.30299"
   y1="188.601"
   x2="128.73199"
   y2="286.172"
   id="line78"
   style="stroke:#000000;stroke-miterlimit:10" />
		<line
   stroke-miterlimit="10"
   x1="233.05299"
   y1="200.05701"
   x2="135.48199"
   y2="297.62701"
   id="line80"
   style="stroke:#000000;stroke-miterlimit:10" />
		<line
   stroke-miterlimit="10"
   x1="206.57201"
   y1="169.705"
   x2="109.002"
   y2="267.27499"
   id="line82"
   style="stroke:#000000;stroke-miterlimit:10" />
		<line
   stroke-miterlimit="10"
   x1="213.32201"
   y1="181.161"
   x2="115.752"
   y2="278.73001"
   id="line84"
   style="stroke:#000000;stroke-miterlimit:10" />
		<line
   stroke-miterlimit="10"
   x1="187.69701"
   y1="150.151"
   x2="90.125999"
   y2="247.72099"
   id="line86"
   style="stroke:#000000;stroke-miterlimit:10" />
		<line
   stroke-miterlimit="10"
   x1="194.44701"
   y1="161.60699"
   x2="96.875999"
   y2="259.17801"
   id="line88"
   style="stroke:#000000;stroke-miterlimit:10" />
		<line
   stroke-miterlimit="10"
   x1="167.966"
   y1="131.255"
   x2="70.396004"
   y2="228.825"
   id="line90"
   style="stroke:#000000;stroke-miterlimit:10" />
		<line
   stroke-miterlimit="10"
   x1="174.716"
   y1="142.711"
   x2="77.146004"
   y2="240.28101"
   id="line92"
   style="stroke:#000000;stroke-miterlimit:10" />
	</g>
	<g
   display="inline"
   id="g112"
   style="display:inline">
		<line
   stroke-miterlimit="10"
   x1="300.88101"
   y1="267.73801"
   x2="203.311"
   y2="365.30899"
   id="line96"
   style="stroke:#000000;stroke-miterlimit:10" />
		<line
   stroke-miterlimit="10"
   x1="307.63101"
   y1="279.19299"
   x2="210.061"
   y2="376.76401"
   id="line98"
   style="stroke:#000000;stroke-miterlimit:10" />
		<line
   stroke-miterlimit="10"
   x1="281.151"
   y1="248.842"
   x2="183.58099"
   y2="346.41199"
   id="line100"
   style="stroke:#000000;stroke-miterlimit:10" />
		<line
   stroke-miterlimit="10"
   x1="287.901"
   y1="260.297"
   x2="190.33099"
   y2="357.867"
   id="line102"
   style="stroke:#000000;stroke-miterlimit:10" />
		<line
   stroke-miterlimit="10"
   x1="262.27499"
   y1="229.289"
   x2="164.705"
   y2="326.85699"
   id="line104"
   style="stroke:#000000;stroke-miterlimit:10" />
		<line
   stroke-miterlimit="10"
   x1="269.02499"
   y1="240.744"
   x2="171.455"
   y2="338.314"
   id="line106"
   style="stroke:#000000;stroke-miterlimit:10" />
		<line
   stroke-miterlimit="10"
   x1="242.545"
   y1="210.392"
   x2="144.97501"
   y2="307.96301"
   id="line108"
   style="stroke:#000000;stroke-miterlimit:10" />
		<line
   stroke-miterlimit="10"
   x1="249.295"
   y1="221.84801"
   x2="151.72501"
   y2="319.418"
   id="line110"
   style="stroke:#000000;stroke-miterlimit:10" />
	</g>
	<g
   display="inline"
   id="g130"
   style="display:inline">
		<line
   stroke-miterlimit="10"
   x1="147.291"
   y1="267.73901"
   x2="49.721001"
   y2="365.31"
   id="line114"
   style="stroke:#000000;stroke-miterlimit:10" />
		<line
   stroke-miterlimit="10"
   x1="154.041"
   y1="279.19501"
   x2="56.471001"
   y2="376.76501"
   id="line116"
   style="stroke:#000000;stroke-miterlimit:10" />
		<line
   stroke-miterlimit="10"
   x1="127.561"
   y1="248.842"
   x2="29.99"
   y2="346.41299"
   id="line118"
   style="stroke:#000000;stroke-miterlimit:10" />
		<line
   stroke-miterlimit="10"
   x1="134.311"
   y1="260.298"
   x2="36.740002"
   y2="357.86801"
   id="line120"
   style="stroke:#000000;stroke-miterlimit:10" />
		<line
   stroke-miterlimit="10"
   x1="108.685"
   y1="229.289"
   x2="11.115"
   y2="326.858"
   id="line122"
   style="stroke:#000000;stroke-miterlimit:10" />
		<line
   stroke-miterlimit="10"
   x1="115.435"
   y1="240.745"
   x2="17.865"
   y2="338.315"
   id="line124"
   style="stroke:#000000;stroke-miterlimit:10" />
		<line
   stroke-miterlimit="10"
   x1="88.955002"
   y1="210.39301"
   x2="-8.6160002"
   y2="307.96301"
   id="line126"
   style="stroke:#000000;stroke-miterlimit:10" />
		<line
   stroke-miterlimit="10"
   x1="95.705002"
   y1="221.849"
   x2="-1.8660001"
   y2="319.41901"
   id="line128"
   style="stroke:#000000;stroke-miterlimit:10" />
	</g>
	<g
   display="inline"
   id="g148"
   style="display:inline">
		<line
   stroke-miterlimit="10"
   x1="221.87"
   y1="346.87601"
   x2="124.299"
   y2="444.44601"
   id="line132"
   style="stroke:#000000;stroke-miterlimit:10" />
		<line
   stroke-miterlimit="10"
   x1="228.62"
   y1="358.33099"
   x2="131.049"
   y2="455.901"
   id="line134"
   style="stroke:#000000;stroke-miterlimit:10" />
		<line
   stroke-miterlimit="10"
   x1="202.13901"
   y1="327.979"
   x2="104.569"
   y2="425.54999"
   id="line136"
   style="stroke:#000000;stroke-miterlimit:10" />
		<line
   stroke-miterlimit="10"
   x1="208.88901"
   y1="339.435"
   x2="111.319"
   y2="437.005"
   id="line138"
   style="stroke:#000000;stroke-miterlimit:10" />
		<line
   stroke-miterlimit="10"
   x1="183.26401"
   y1="308.427"
   x2="85.693001"
   y2="405.995"
   id="line140"
   style="stroke:#000000;stroke-miterlimit:10" />
		<line
   stroke-miterlimit="10"
   x1="190.01401"
   y1="319.88199"
   x2="92.443001"
   y2="417.452"
   id="line142"
   style="stroke:#000000;stroke-miterlimit:10" />
		<line
   stroke-miterlimit="10"
   x1="163.533"
   y1="289.53"
   x2="65.962997"
   y2="387.10101"
   id="line144"
   style="stroke:#000000;stroke-miterlimit:10" />
		<line
   stroke-miterlimit="10"
   x1="170.283"
   y1="300.98499"
   x2="72.712997"
   y2="398.556"
   id="line146"
   style="stroke:#000000;stroke-miterlimit:10" />
	</g>
</g>
<g
   display="none"
   id="g218"
   style="display:none"
   transform="translate(-498.20062,-251.90793)">
	
		<ellipse
   display="inline"
   stroke-miterlimit="10"
   cx="185.5"
   cy="300.54099"
   rx="41.910999"
   ry="61.362"
   id="ellipse152"
   style="display:inline;fill:#ffffff;stroke:#000000;stroke-width:4;stroke-miterlimit:10" />
	<path
   display="inline"
   stroke-miterlimit="10"
   d="m 209.75,250 v -17 c 0,0 -9.876,-24 -24.25,-24 -14.374,0 -26.5,23.5 -26.5,23.5 v 17.5 3.002"
   id="path154"
   inkscape:connector-curvature="0"
   style="display:inline;fill:none;stroke:#000000;stroke-width:4;stroke-miterlimit:10" />
	
		<line
   display="inline"
   stroke-miterlimit="10"
   x1="185.28101"
   y1="240.338"
   x2="185.5"
   y2="363"
   id="line156"
   style="display:inline;fill:#ffffff;stroke:#000000;stroke-width:4;stroke-miterlimit:10" />
	<polyline
   display="inline"
   stroke-miterlimit="10"
   points="223.803,273.584    243.5,260 243.5,227.5  "
   id="polyline158"
   style="display:inline;fill:none;stroke:#000000;stroke-width:4;stroke-miterlimit:10" />
	<polyline
   display="inline"
   stroke-miterlimit="10"
   points="227.25,309.09    250,302.5 263.5,322.5  "
   id="polyline160"
   style="display:inline;fill:none;stroke:#000000;stroke-width:4;stroke-miterlimit:10" />
	<polyline
   display="inline"
   stroke-miterlimit="10"
   points="214.452,345.341    242.564,349.048 248.689,378.466 511.085,378.466 683.576,378.466 756.662,378.466  "
   id="polyline162"
   style="display:inline;fill:none;stroke:#000000;stroke-width:4;stroke-miterlimit:10" />
	<polyline
   display="inline"
   stroke-miterlimit="10"
   points="147.251,273.669    127.554,260.085 127.554,227.585  "
   id="polyline164"
   style="display:inline;fill:none;stroke:#000000;stroke-width:4;stroke-miterlimit:10" />
	<polyline
   display="inline"
   stroke-miterlimit="10"
   points="143.804,310.175    121.054,303.585 107.554,323.585  "
   id="polyline166"
   style="display:inline;fill:none;stroke:#000000;stroke-width:4;stroke-miterlimit:10" />
	<polyline
   display="inline"
   stroke-miterlimit="10"
   points="158.37,347.19    130.257,350.897 124.132,380.315  "
   id="polyline168"
   style="display:inline;fill:none;stroke:#000000;stroke-width:4;stroke-miterlimit:10" />
	
		<circle
   display="inline"
   stroke-miterlimit="10"
   cx="762.37402"
   cy="378.466"
   r="5.7119999"
   id="circle170"
   style="display:inline;fill:none;stroke:#000000;stroke-width:4;stroke-miterlimit:10" />
	
		<circle
   display="inline"
   stroke-miterlimit="10"
   cx="265.5"
   cy="326.181"
   r="5.7119999"
   id="circle172"
   style="display:inline;fill:none;stroke:#000000;stroke-width:4;stroke-miterlimit:10" />
	<circle
   display="inline"
   stroke-miterlimit="10"
   cx="243.5"
   cy="222.5"
   r="5.7119999"
   id="circle174"
   style="display:inline;fill:none;stroke:#000000;stroke-width:4;stroke-miterlimit:10" />
	
		<line
   display="inline"
   stroke-miterlimit="10"
   x1="219.73599"
   y1="265.147"
   x2="208.535"
   y2="265.147"
   id="line176"
   style="display:inline;fill:none;stroke:#000000;stroke-width:4;stroke-miterlimit:10" />
	
		<line
   display="inline"
   stroke-miterlimit="10"
   x1="223.80299"
   y1="327.66699"
   x2="206"
   y2="327.66699"
   id="line178"
   style="display:inline;fill:none;stroke:#000000;stroke-width:4;stroke-miterlimit:10" />
	
		<line
   display="inline"
   stroke-miterlimit="10"
   x1="194.401"
   y1="343"
   x2="185.5"
   y2="343"
   id="line180"
   style="display:inline;fill:none;stroke:#000000;stroke-width:4;stroke-miterlimit:10" />
	
		<line
   display="inline"
   stroke-miterlimit="10"
   x1="213.48"
   y1="300.36099"
   x2="184.845"
   y2="300.36099"
   id="line182"
   style="display:inline;fill:none;stroke:#000000;stroke-width:4;stroke-miterlimit:10" />
	
		<circle
   display="inline"
   stroke-miterlimit="10"
   cx="204.877"
   cy="265.39301"
   r="3.658"
   id="circle184"
   style="display:inline;fill:none;stroke:#000000;stroke-width:4;stroke-miterlimit:10" />
	
		<line
   display="inline"
   stroke-miterlimit="10"
   x1="224.158"
   y1="285.5"
   x2="206"
   y2="285.5"
   id="line186"
   style="display:inline;fill:none;stroke:#000000;stroke-width:4;stroke-miterlimit:10" />
	
		<circle
   display="inline"
   stroke-miterlimit="10"
   cx="201.299"
   cy="285.746"
   r="3.658"
   id="circle188"
   style="display:inline;fill:none;stroke:#000000;stroke-width:4;stroke-miterlimit:10" />
	
		<circle
   display="inline"
   stroke-miterlimit="10"
   cx="214.89999"
   cy="300.54099"
   r="3.5380001"
   id="circle190"
   style="display:inline;fill:none;stroke:#000000;stroke-width:4;stroke-miterlimit:10" />
	
		<circle
   display="inline"
   stroke-miterlimit="10"
   cx="204.24899"
   cy="327.72198"
   r="3.4130001"
   id="circle192"
   style="display:inline;fill:none;stroke:#000000;stroke-width:4;stroke-miterlimit:10" />
	
		<circle
   display="inline"
   stroke-miterlimit="10"
   cx="195.88"
   cy="341.59698"
   r="2.9560001"
   id="circle194"
   style="display:inline;fill:none;stroke:#000000;stroke-width:4;stroke-miterlimit:10" />
	<path
   display="inline"
   d="m 208.535,315.293 c 0,0.942 -0.765,1.707 -1.708,1.707 h -12.196 c -0.943,0 -1.708,-0.765 -1.708,-1.707 v 0 c 0,-0.943 0.765,-1.708 1.708,-1.708 h 12.196 c 0.944,0 1.708,0.765 1.708,1.708 z"
   id="path196"
   inkscape:connector-curvature="0"
   style="display:inline" />
	<path
   display="inline"
   d="m 197.642,249.521 c 0,0.564 -0.457,1.021 -1.021,1.021 h -6.85 c -0.564,0 -1.021,-0.457 -1.021,-1.021 v 0 c 0,-0.564 0.457,-1.021 1.021,-1.021 h 6.85 c 0.564,0 1.021,0.457 1.021,1.021 z"
   id="path198"
   inkscape:connector-curvature="0"
   style="display:inline" />
	<path
   display="inline"
   d="m 207.662,274.709 c 0,0.575 0.466,1.041 1.041,1.041 h 5.336 c 0.575,0 1.041,-0.466 1.041,-1.041 v 0 c 0,-0.575 -0.466,-1.041 -1.041,-1.041 h -5.336 c -0.576,10e-4 -1.041,0.467 -1.041,1.041 z"
   id="path200"
   inkscape:connector-curvature="0"
   style="display:inline" />
	<path
   display="inline"
   d="m 199.163,352.966 c 0,0.295 -0.239,0.534 -0.535,0.534 h -5.17 c -0.295,0 -0.534,-0.239 -0.534,-0.534 v 0 c 0,-0.296 0.239,-0.534 0.534,-0.534 h 5.17 c 0.295,0 0.535,0.238 0.535,0.534 z"
   id="path202"
   inkscape:connector-curvature="0"
   style="display:inline" />
	<path
   display="inline"
   d="m 206,339.32 c 0,0.376 0.304,0.68 0.679,0.68 h 4.012 c 0.375,0 0.679,-0.304 0.679,-0.68 v 0 c 0,-0.375 -0.304,-0.679 -0.679,-0.679 h -4.012 c -0.375,10e-4 -0.679,0.304 -0.679,0.679 z"
   id="path204"
   inkscape:connector-curvature="0"
   style="display:inline" />
	<path
   display="inline"
   d="m 196.043,266.196 c 0,0.444 -0.359,0.804 -0.803,0.804 h -4.486 c -0.443,0 -0.803,-0.36 -0.803,-0.804 v 0 c 0,-0.443 0.36,-0.803 0.803,-0.803 h 4.486 c 0.444,0 0.803,0.36 0.803,0.803 z"
   id="path206"
   inkscape:connector-curvature="0"
   style="display:inline" />
	<path
   display="inline"
   d="m 196.043,280.243 c 0,0.28 -0.227,0.507 -0.507,0.507 h -3.529 c -0.28,0 -0.507,-0.227 -0.507,-0.507 v 0 c 0,-0.28 0.227,-0.507 0.507,-0.507 h 3.529 c 0.28,0 0.507,0.227 0.507,0.507 z"
   id="path208"
   inkscape:connector-curvature="0"
   style="display:inline" />
	<path
   display="inline"
   d="m 219.736,310.625 c 0,0.345 -0.28,0.625 -0.625,0.625 h -5.006 c -0.345,0 -0.625,-0.28 -0.625,-0.625 v 0 c 0,-0.345 0.28,-0.625 0.625,-0.625 h 5.006 c 0.346,0 0.625,0.28 0.625,0.625 z"
   id="path210"
   inkscape:connector-curvature="0"
   style="display:inline" />
	<path
   display="inline"
   d="m 199.008,306.5 c 0,0.345 -0.28,0.625 -0.625,0.625 h -5.006 c -0.345,0 -0.625,-0.28 -0.625,-0.625 v 0 c 0,-0.345 0.28,-0.625 0.625,-0.625 h 5.006 c 0.345,0 0.625,0.28 0.625,0.625 z"
   id="path212"
   inkscape:connector-curvature="0"
   style="display:inline" />
	<path
   display="inline"
   d="m 195.88,327.722 c 0,0.345 -0.28,0.625 -0.625,0.625 h -5.006 c -0.345,0 -0.625,-0.28 -0.625,-0.625 v 0 c 0,-0.345 0.28,-0.625 0.625,-0.625 h 5.006 c 0.345,0 0.625,0.28 0.625,0.625 z"
   id="path214"
   inkscape:connector-curvature="0"
   style="display:inline" />
	<path
   display="inline"
   d="m 219.736,320.5 c 0,0.553 -0.448,1 -1,1 h -6.366 c -0.552,0 -1,-0.447 -1,-1 v 0 c 0,-0.553 0.448,-1 1,-1 h 6.366 c 0.553,0 1,0.447 1,1 z"
   id="path216"
   inkscape:connector-curvature="0"
   style="display:inline" />
</g>

<text
   display="none"
   font-size="72"
   id="text222"
   style="font-size:72px;font-family:KeepCalm-Medium;display:none;fill:#445a84"
   x="-298.78363"
   y="269.28156">PestPlanner</text>

<g
   id="v4"
   transform="translate(-498.20062,-251.90793)">
	<g
   id="g264"
   transform="translate(447.1577,53.341544)"
   style="fill:#eeeeec">
		<g
   id="g242"
   style="fill:#eeeeec">
			<g
   id="g228"
   style="fill:#eeeeec">
				<g
   id="g226"
   style="fill:#eeeeec">
					<path
   d="m 161.417,352.957 c -12.462,0 -22.599,-9.822 -22.599,-21.895 0,-12.073 10.137,-21.895 22.599,-21.895 12.462,0 22.601,9.821 22.601,21.895 0,12.073 -10.139,21.895 -22.601,21.895 z m 0,-37.421 c -8.836,0 -16.025,6.966 -16.025,15.526 0,8.56 7.189,15.525 16.025,15.525 8.836,0 16.027,-6.965 16.027,-15.525 0,-8.56 -7.191,-15.526 -16.027,-15.526 z"
   id="path224"
   inkscape:connector-curvature="0"
   style="fill:#eeeeec" />
				</g>
			</g>
			<g
   display="none"
   id="g234"
   style="display:none;fill:#eeeeec">
				<g
   display="inline"
   id="g232"
   style="display:inline;fill:#eeeeec">
					<path
   d="m 443.638,263.941 c -5.688,0 -10.314,-4.483 -10.314,-9.994 0,-5.51 4.627,-9.993 10.314,-9.993 5.687,0 10.316,4.483 10.316,9.993 0,5.511 -4.629,9.994 -10.316,9.994 z m 0,-11.804 c -1.029,0 -1.869,0.812 -1.869,1.81 0,1 0.84,1.811 1.869,1.811 1.031,0 1.869,-0.812 1.869,-1.811 0,-0.998 -0.838,-1.81 -1.869,-1.81 z"
   id="path230"
   inkscape:connector-curvature="0"
   style="fill:#eeeeec" />
				</g>
			</g>
			<g
   id="g240"
   style="fill:#eeeeec">
				<g
   id="g238"
   style="fill:#eeeeec">
					<path
   d="m 141.882,376.986 v 0 c -1.65,0 -2.988,-1.297 -2.988,-2.896 v -44.582 h 5.976 v 44.582 c 0,1.599 -1.337,2.896 -2.988,2.896 z"
   id="path236"
   inkscape:connector-curvature="0"
   style="fill:#eeeeec" />
				</g>
			</g>
		</g>
		<g
   id="g262"
   style="fill:#eeeeec">
			<g
   id="g248"
   style="fill:#eeeeec">
				<g
   id="g246"
   style="fill:#eeeeec">
					<path
   d="m 158.329,300.613 c -21.335,0 -38.693,-17.357 -38.693,-38.691 0,-21.335 17.358,-38.691 38.693,-38.691 21.333,0 38.691,17.356 38.691,38.691 0,21.334 -17.358,38.691 -38.691,38.691 z m 0,-66.128 c -15.13,0 -27.438,12.308 -27.438,27.437 0,15.128 12.308,27.437 27.438,27.437 15.128,0 27.436,-12.309 27.436,-27.437 0,-15.129 -12.308,-27.437 -27.436,-27.437 z"
   id="path244"
   inkscape:connector-curvature="0"
   style="fill:#eeeeec" />
				</g>
			</g>
			<g
   display="none"
   id="g254"
   style="display:none;fill:#eeeeec">
				<g
   display="inline"
   id="g252"
   style="display:inline;fill:#eeeeec">
					<path
   d="m 439.67,182.773 c -9.738,0 -17.661,-7.922 -17.661,-17.661 0,-9.738 7.923,-17.66 17.661,-17.66 9.737,0 17.66,7.922 17.66,17.66 0,9.739 -7.923,17.661 -17.66,17.661 z m 0,-20.86 c -1.766,0 -3.2,1.435 -3.2,3.199 0,1.766 1.435,3.2 3.2,3.2 1.764,0 3.199,-1.435 3.199,-3.2 0,-1.765 -1.435,-3.199 -3.199,-3.199 z"
   id="path250"
   inkscape:connector-curvature="0"
   style="fill:#eeeeec" />
				</g>
			</g>
			<g
   id="g260"
   style="fill:#eeeeec">
				<g
   id="g258"
   style="fill:#eeeeec">
					<path
   d="m 124.884,376.986 v 0 c -2.825,0 -5.116,-3.217 -5.116,-7.184 V 259.175 H 130 v 110.628 c 0,3.967 -2.29,7.183 -5.116,7.183 z"
   id="path256"
   inkscape:connector-curvature="0"
   style="fill:#eeeeec" />
				</g>
			</g>
		</g>
	</g>
	
	
</g>
<g
   id="v3"
   display="none"
   style="display:none"
   transform="translate(-498.20062,-251.90793)">
	<rect
   x="-51.854"
   y="487.61401"
   display="inline"
   width="515.50098"
   height="92"
   id="rect271"
   style="display:inline;fill:none" />
	
		<text
   transform="translate(-18.9551,547.373)"
   display="inline"
   font-size="72"
   id="text273"
   style="font-size:72px;font-family:KeepCalm-Medium;display:inline;fill:#445a84">PestPlanner</text>

	<g
   display="inline"
   id="g303"
   style="display:inline">
		<g
   id="g287">
			<polygon
   points="278.182,440.133 254.087,454.044 229.991,440.133 225.71,437.661 302.277,393.456 302.277,398.398 302.277,426.222 "
   id="polygon275"
   style="clip-rule:evenodd;fill:#e62683;fill-rule:evenodd" />
			<polygon
   points="229.991,440.133 205.896,426.222 205.896,398.398 205.896,393.612 282.327,437.739 278.182,440.133 254.087,454.044 "
   id="polygon277"
   style="clip-rule:evenodd;fill:#c72480;fill-rule:evenodd" />
			<polygon
   points="234.312,354.17 234.311,465.555 205.896,481.959 205.896,398.398 205.896,370.575 229.991,356.664 "
   id="polygon279"
   style="clip-rule:evenodd;fill:#f4d553;fill-rule:evenodd" />
			<polygon
   points="205.896,403.306 205.896,398.398 205.896,370.575 229.991,356.664 254.087,342.753 278.182,356.664 282.433,359.118 "
   id="polygon281"
   style="clip-rule:evenodd;fill:#faa549;fill-rule:evenodd" />
			<polygon
   points="302.277,393.456 293.77,398.368 225.766,359.104 229.991,356.664 254.087,342.753 278.182,356.664 302.277,370.575 "
   id="polygon283"
   style="clip-rule:evenodd;fill:#09a9e2;fill-rule:evenodd" />
			<polygon
   points="273.934,354.211 278.182,356.664 302.277,370.575 302.277,393.456 273.934,409.819 "
   id="polygon285"
   style="clip-rule:evenodd;fill:#0679bc;fill-rule:evenodd" />
		</g>
		<g
   id="g301">
			<polygon
   points="133.611,440.133 157.707,454.044 181.802,440.133 186.084,437.661 109.516,393.456 109.516,398.398 109.516,426.222 "
   id="polygon289"
   style="clip-rule:evenodd;fill:#e62683;fill-rule:evenodd" />
			<polygon
   points="181.802,440.133 205.896,426.222 205.896,398.398 205.896,393.612 129.466,437.739 133.611,440.133 157.707,454.044 "
   id="polygon291"
   style="clip-rule:evenodd;fill:#c72480;fill-rule:evenodd" />
			<polygon
   points="177.482,354.17 177.483,465.555 205.896,481.959 205.896,398.398 205.896,370.575 181.802,356.664 "
   id="polygon293"
   style="clip-rule:evenodd;fill:#f4d553;fill-rule:evenodd" />
			<polygon
   points="205.896,403.306 205.896,398.398 205.896,370.575 181.802,356.664 157.707,342.753 133.611,356.664 129.361,359.118 "
   id="polygon295"
   style="clip-rule:evenodd;fill:#faa549;fill-rule:evenodd" />
			<polygon
   points="109.516,393.456 118.023,398.368 186.027,359.104 181.802,356.664 157.707,342.753 133.611,356.664 109.516,370.575 "
   id="polygon297"
   style="clip-rule:evenodd;fill:#09a9e2;fill-rule:evenodd" />
			<polygon
   points="137.86,354.211 133.611,356.664 109.516,370.575 109.516,393.456 137.86,409.819 "
   id="polygon299"
   style="clip-rule:evenodd;fill:#0679bc;fill-rule:evenodd" />
		</g>
	</g>
</g>
<g
   id="v2"
   display="none"
   style="display:none"
   transform="translate(-498.20062,-251.90793)">
	<g
   display="inline"
   id="g318"
   style="display:inline">
		<g
   id="g310">
			<path
   d="m 93.297,93.918 -5.302,21.503 c 0,0 8.3,12.542 -5.249,31.939 -13.55,19.394 -41.753,23.729 -41.753,23.729 0,0 36.542,7.019 62.385,-13.616 25.843,-20.636 2.995,-55.506 2.995,-55.506 z"
   id="path306"
   inkscape:connector-curvature="0"
   style="clip-rule:evenodd;fill:#445a84;fill-rule:evenodd" />
			<path
   d="m 37.046,243.309 c 0,0 -64.678,-34.665 -50.252,-102.757 C 6.612,47.007 137.282,59.144 118.5,137.25 c -3.154,13.128 -15.122,20.223 -15.122,20.223 19.063,-90.089 -163.366,-38.125 -66.332,85.836 z"
   id="path308"
   inkscape:connector-curvature="0"
   style="clip-rule:evenodd;fill:#22b6c6;fill-rule:evenodd" />
		</g>
		<g
   id="g316">
			<path
   d="m -123.907,92.218 5.301,21.503 c 0,0 -8.3,12.542 5.251,31.939 13.549,19.394 41.752,23.729 41.752,23.729 0,0 -36.541,7.019 -62.385,-13.616 -25.841,-20.636 -2.996,-55.506 -2.996,-55.506 z"
   id="path312"
   inkscape:connector-curvature="0"
   style="clip-rule:evenodd;fill:#445a84;fill-rule:evenodd" />
			<path
   d="m -67.655,241.61 c 0,0 64.677,-34.665 50.253,-102.759 -19.819,-93.545 -150.49,-81.408 -131.708,-3.302 3.155,13.128 15.122,20.223 15.122,20.223 -19.063,-90.088 163.366,-38.124 66.333,85.838 z"
   id="path314"
   inkscape:connector-curvature="0"
   style="clip-rule:evenodd;fill:#22b6c6;fill-rule:evenodd" />
		</g>
	</g>
	<rect
   x="-376.31201"
   y="243.312"
   display="inline"
   width="722.013"
   height="128.855"
   id="rect320"
   style="display:inline;fill:none" />
	
		<text
   transform="translate(-330.2349,327.0107)"
   display="inline"
   font-size="100.8435"
   id="text322"
   style="font-size:100.84349823px;font-family:KeepCalm-Medium;display:inline;fill:#445a84">PestPlanner</text>

</g>
<g
   id="v1"
   display="none"
   style="display:none"
   transform="translate(-498.20062,-251.90793)">
	<rect
   x="632.71997"
   y="479.07901"
   display="inline"
   width="515.50098"
   height="92"
   id="rect325"
   style="display:inline;fill:none" />
	
		<text
   transform="translate(665.6182,538.8379)"
   display="inline"
   font-size="72"
   id="text327"
   style="font-size:72px;font-family:KeepCalm-Medium;display:inline;fill:#445a84">PestPlanner</text>

	<g
   display="inline"
   id="g355"
   style="display:inline">
		<g
   id="g339">
			<polygon
   points="889.866,461.184 852.635,437.914 852.635,352.691 889.866,328.84 "
   id="polygon329"
   style="clip-rule:evenodd;fill:#fcbe42;fill-rule:evenodd" />
			<polygon
   points="852.635,392.845 962.356,318.926 962.356,363.818 852.635,437.737 "
   id="polygon331"
   style="clip-rule:evenodd;fill:#44c5ee;fill-rule:evenodd" />
			<polygon
   points="852.635,392.845 889.866,367.764 889.866,412.654 852.635,437.737 "
   id="polygon333"
   style="clip-rule:evenodd;fill:#67b74d;fill-rule:evenodd" />
			<polygon
   points="843.564,283.649 962.356,363.68 962.356,318.787 910.198,283.649 "
   id="polygon335"
   style="clip-rule:evenodd;fill:#e84282;fill-rule:evenodd" />
			<polygon
   points="962.356,318.926 962.356,363.68 929.14,341.303 "
   id="polygon337"
   style="clip-rule:evenodd;fill:#5c499d;fill-rule:evenodd" />
		</g>
		<g
   id="g353">
			<polygon
   points="843.029,429.673 805.798,406.403 805.798,321.181 843.029,297.33 "
   id="polygon341"
   style="clip-rule:evenodd;fill:#fcbe42;fill-rule:evenodd" />
			<g
   id="g345">
				<polygon
   points="805.798,361.334 915.521,287.415 915.521,332.307 805.798,406.227 "
   id="polygon343"
   style="clip-rule:evenodd;fill:#44c5ee;fill-rule:evenodd" />
			</g>
			<polygon
   points="805.798,361.334 843.029,336.254 843.029,381.144 805.798,406.227 "
   id="polygon347"
   style="clip-rule:evenodd;fill:#67b74d;fill-rule:evenodd" />
			<polygon
   points="796.729,252.139 915.521,332.169 915.521,287.277 863.361,252.139 "
   id="polygon349"
   style="clip-rule:evenodd;fill:#e84282;fill-rule:evenodd" />
			<polygon
   points="915.521,287.415 915.521,332.169 882.303,309.791 "
   id="polygon351"
   style="clip-rule:evenodd;fill:#5c499d;fill-rule:evenodd" />
		</g>
	</g>
</g>
</svg>