<?xml version="1.0" encoding="UTF-8" standalone="no"?>
<svg
   xmlns:dc="http://purl.org/dc/elements/1.1/"
   xmlns:cc="http://creativecommons.org/ns#"
   xmlns:rdf="http://www.w3.org/1999/02/22-rdf-syntax-ns#"
   xmlns:svg="http://www.w3.org/2000/svg"
   xmlns="http://www.w3.org/2000/svg"
   xmlns:sodipodi="http://sodipodi.sourceforge.net/DTD/sodipodi-0.dtd"
   xmlns:inkscape="http://www.inkscape.org/namespaces/inkscape"
   version="1.0"
   width="600pt"
   height="600pt"
   viewBox="0 0 600 600"
   preserveAspectRatio="xMidYMid meet"
   id="svg4739"
   sodipodi:docname="rentgoer_icon.svg"
   inkscape:version="0.92.3 (2405546, 2018-03-11)">
  <metadata
     id="metadata4745">
    <rdf:RDF>
      <cc:Work
         rdf:about="">
        <dc:format>image/svg+xml</dc:format>
        <dc:type
           rdf:resource="http://purl.org/dc/dcmitype/StillImage" />
        <dc:title></dc:title>
      </cc:Work>
    </rdf:RDF>
  </metadata>
  <defs
     id="defs4743" />
  <sodipodi:namedview
     pagecolor="#ffffff"
     bordercolor="#666666"
     borderopacity="1"
     objecttolerance="10"
     gridtolerance="10"
     guidetolerance="10"
     inkscape:pageopacity="0"
     inkscape:pageshadow="2"
     inkscape:window-width="1920"
     inkscape:window-height="1036"
     id="namedview4741"
     showgrid="false"
     inkscape:zoom="0.22721438"
     inkscape:cx="-944.21468"
     inkscape:cy="459.91808"
     inkscape:window-x="0"
     inkscape:window-y="0"
     inkscape:window-maximized="1"
     inkscape:current-layer="svg4739" />
  <g
     transform="matrix(0.08555021,0,0,-0.08555021,29.095369,685.1552)"
     id="g4737"
     style="fill:#eeeeec;stroke:none">
    <path
       d="M 3035,7354 C 2342,7283 1755,7016 1281,6555 1121,6400 1013,6270 891,6088 643,5720 493,5321 428,4860 c -18,-127 -18,-583 0,-710 65,-456 215,-858 456,-1220 378,-565 944,-983 1579,-1166 438,-126 914,-149 1352,-64 60,12 116,25 124,29 10,6 -33,59 -165,200 -154,167 -181,191 -201,186 -13,-3 -89,-10 -168,-15 -1037,-65 -1997,547 -2385,1520 -156,393 -204,866 -130,1293 175,1006 971,1795 1980,1961 215,36 518,39 735,7 518,-76 984,-310 1355,-681 610,-609 844,-1481 624,-2320 -138,-526 -451,-985 -904,-1323 -86,-64 -269,-177 -286,-177 -7,0 -159,159 -338,352 l -327,353 580,3 581,2 2,1320 3,1320 H 3258 c -1524,0 -1637,-1 -1640,-17 -2,-9 -2,-603 0,-1320 l 2,-1303 h 313 312 v 205 205 h -97 -98 v 910 910 h 1205 1205 v -910 -910 l -841,-2 c -840,-3 -840,-3 -822,-23 11,-11 336,-362 723,-780 388,-418 724,-782 747,-809 l 43,-49 82,38 c 347,156 617,337 867,580 160,155 268,285 390,467 242,360 392,753 458,1193 22,152 25,599 5,745 -66,461 -215,860 -463,1228 -395,590 -986,1009 -1665,1183 -243,61 -392,80 -669,84 -132,2 -258,1 -280,-1 z"
       id="path4735"
       inkscape:connector-curvature="0"
       style="fill:#eeeeec" />
  </g>
</svg>
