<?xml version="1.0" encoding="UTF-8"?>
<svg xmlns="http://www.w3.org/2000/svg" xmlns:xlink="http://www.w3.org/1999/xlink" width="404.88pt" height="269.999989pt" viewBox="0 0 404.88 269.999989" version="1.2">
<defs>
<clipPath id="clip1">
  <path d="M 67.480469 0.0390625 L 337.398438 0.0390625 L 337.398438 269.960938 L 67.480469 269.960938 Z M 67.480469 0.0390625 "/>
</clipPath>
</defs>
<g id="surface1">
<path style=" stroke:none;fill-rule:nonzero;fill:rgb(41.569519%,41.569519%,41.569519%);fill-opacity:1;" d="M 334.738281 134.984375 C 334.738281 61.910156 275.5 2.671875 202.425781 2.671875 C 129.347656 2.671875 70.109375 61.910156 70.109375 134.984375 C 70.109375 208.0625 129.347656 267.296875 202.425781 267.296875 C 275.5 267.296875 334.738281 208.0625 334.738281 134.984375 "/>
<g clip-path="url(#clip1)" clip-rule="nonzero">
<path style=" stroke:none;fill-rule:nonzero;fill:rgb(52.549744%,0%,0%);fill-opacity:1;" d="M 202.425781 5.300781 C 130.917969 5.300781 72.742188 63.480469 72.742188 134.984375 C 72.742188 206.492188 130.917969 264.667969 202.425781 264.667969 C 273.929688 264.667969 332.109375 206.492188 332.109375 134.984375 C 332.109375 63.480469 273.929688 5.300781 202.425781 5.300781 Z M 202.425781 269.929688 C 166.378906 269.929688 132.492188 255.894531 107.003906 230.40625 C 81.515625 204.917969 67.480469 171.03125 67.480469 134.984375 C 67.480469 98.9375 81.515625 65.054688 107.003906 39.566406 C 132.492188 14.078125 166.378906 0.0390625 202.425781 0.0390625 C 238.46875 0.0390625 272.355469 14.078125 297.84375 39.566406 C 323.332031 65.054688 337.371094 98.9375 337.371094 134.984375 C 337.371094 171.03125 323.332031 204.917969 297.84375 230.40625 C 272.355469 255.894531 238.46875 269.929688 202.425781 269.929688 "/>
</g>
<path style=" stroke:none;fill-rule:nonzero;fill:rgb(65.098572%,65.098572%,65.098572%);fill-opacity:1;" d="M 323.613281 134.984375 C 323.613281 68.054688 269.355469 13.796875 202.425781 13.796875 C 135.496094 13.796875 81.238281 68.054688 81.238281 134.984375 C 81.238281 201.914062 135.496094 256.171875 202.425781 256.171875 C 269.355469 256.171875 323.613281 201.914062 323.613281 134.984375 "/>
<path style=" stroke:none;fill-rule:nonzero;fill:rgb(100%,100%,100%);fill-opacity:1;" d="M 314.890625 134.984375 C 314.890625 72.871094 264.539062 22.519531 202.425781 22.519531 C 140.3125 22.519531 89.957031 72.871094 89.957031 134.984375 C 89.957031 197.097656 140.3125 247.453125 202.425781 247.453125 C 264.539062 247.453125 314.890625 197.097656 314.890625 134.984375 "/>
<path style=" stroke:none;fill-rule:nonzero;fill:rgb(52.549744%,0%,0%);fill-opacity:1;" d="M 229.484375 202.820312 C 228.109375 202.355469 226.617188 203.09375 226.152344 204.472656 C 224.796875 208.46875 224.613281 214.761719 224.5 218.523438 C 224.46875 219.554688 224.4375 220.617188 224.394531 220.929688 C 224.195312 222.371094 225.203125 223.699219 226.640625 223.894531 C 226.765625 223.910156 226.882812 223.921875 227.003906 223.921875 C 228.296875 223.921875 229.425781 222.964844 229.605469 221.648438 C 229.683594 221.082031 229.710938 220.242188 229.757812 218.683594 C 229.855469 215.441406 230.035156 209.410156 231.136719 206.15625 C 231.601562 204.777344 230.859375 203.285156 229.484375 202.820312 "/>
<path style=" stroke:none;fill-rule:nonzero;fill:rgb(52.549744%,0%,0%);fill-opacity:1;" d="M 277.660156 133.710938 C 272.414062 127.863281 262.648438 116.980469 260.785156 113.542969 C 260.054688 112.1875 260.566406 110.6875 261.464844 108.351562 C 261.910156 107.191406 262.371094 105.992188 262.597656 104.730469 C 263.472656 99.824219 258.34375 88.21875 255.871094 83.675781 C 252.417969 77.335938 246.117188 68.289062 235.710938 61.199219 C 223.808594 53.09375 209.433594 49.460938 193 50.40625 C 174 51.5 157.929688 59.460938 147.746094 72.824219 C 136.417969 87.695312 133.054688 107.820312 138.027344 131.027344 C 140.171875 141.023438 143.480469 148.988281 146.683594 156.6875 C 153.449219 172.964844 159.839844 188.339844 153.523438 220.785156 C 153.246094 222.210938 154.175781 223.59375 155.601562 223.871094 C 155.773438 223.90625 155.941406 223.921875 156.109375 223.921875 C 157.339844 223.921875 158.441406 223.050781 158.6875 221.792969 C 165.308594 187.785156 158.621094 171.699219 151.542969 154.667969 C 148.429688 147.183594 145.214844 139.449219 143.171875 129.925781 C 138.53125 108.265625 141.5625 89.625 151.933594 76.015625 C 161.167969 63.890625 175.859375 56.664062 193.304688 55.660156 C 228.171875 53.648438 244.570312 73.929688 251.25 86.191406 C 254.722656 92.570312 257.832031 101.460938 257.414062 103.800781 C 257.277344 104.574219 256.925781 105.492188 256.550781 106.460938 C 255.574219 109.007812 254.234375 112.492188 256.160156 116.046875 C 258.148438 119.726562 265.9375 128.527344 273.742188 137.226562 C 276.671875 140.492188 276.417969 141.78125 276.382812 141.917969 C 276.117188 142.847656 273.398438 143.644531 272.238281 143.984375 C 271.65625 144.15625 271.105469 144.316406 270.636719 144.496094 C 269.738281 144.84375 266.738281 146.222656 265.890625 149.453125 C 265.257812 151.863281 266.03125 154.421875 268.195312 157.046875 C 268.9375 157.953125 268.832031 158.410156 268.796875 158.558594 C 268.5625 159.589844 266.851562 160.808594 265.777344 161.300781 C 264.816406 161.730469 264.207031 162.691406 264.226562 163.742188 C 264.242188 164.796875 264.886719 165.738281 265.859375 166.132812 C 266.882812 166.554688 268.101562 167.886719 268.136719 168.976562 C 268.164062 169.835938 267.164062 170.507812 266.316406 170.921875 C 261.335938 173.351562 259.636719 177.402344 261.402344 182.632812 C 262.984375 187.324219 262.863281 189.015625 262.535156 190.058594 C 260.972656 195.015625 251.277344 195.804688 245.53125 195.140625 L 244.148438 194.980469 C 232.539062 193.667969 210.925781 191.21875 203.769531 174.980469 C 203.1875 173.648438 201.632812 173.046875 200.304688 173.632812 C 198.972656 174.21875 198.371094 175.773438 198.953125 177.101562 C 207.332031 196.105469 231.796875 198.878906 243.558594 200.210938 L 244.925781 200.367188 C 252.050781 201.195312 264.828125 200.28125 267.554688 191.644531 C 268.394531 188.984375 268.054688 185.886719 266.390625 180.949219 C 265.476562 178.25 266.039062 176.914062 268.625 175.652344 C 272.90625 173.5625 273.453125 170.464844 273.394531 168.804688 C 273.335938 166.945312 272.496094 165.222656 271.328125 163.855469 C 272.457031 162.832031 273.519531 161.464844 273.917969 159.765625 C 274.253906 158.332031 274.242188 156.113281 272.257812 153.703125 C 271.273438 152.507812 270.808594 151.445312 270.984375 150.789062 C 271.140625 150.191406 271.898438 149.652344 272.527344 149.40625 C 272.800781 149.304688 273.246094 149.175781 273.71875 149.035156 C 276.210938 148.304688 280.382812 147.078125 281.441406 143.355469 C 282.230469 140.582031 280.992188 137.429688 277.660156 133.710938 "/>
<path style=" stroke:none;fill-rule:nonzero;fill:rgb(0%,0%,0%);fill-opacity:1;" d="M 210.226562 101.515625 C 207.46875 98.761719 203.804688 97.242188 199.910156 97.242188 C 198.453125 97.242188 197.277344 98.421875 197.277344 99.875 C 197.277344 101.328125 198.453125 102.503906 199.910156 102.503906 C 202.398438 102.503906 204.742188 103.476562 206.503906 105.238281 C 207.242188 105.976562 207.847656 106.828125 208.304688 107.765625 C 208.757812 108.703125 209.695312 109.25 210.671875 109.25 C 211.058594 109.25 211.449219 109.160156 211.820312 108.984375 C 213.128906 108.347656 213.671875 106.773438 213.035156 105.464844 C 212.324219 104 211.378906 102.671875 210.226562 101.515625 "/>
<path style=" stroke:none;fill-rule:nonzero;fill:rgb(0%,0%,0%);fill-opacity:1;" d="M 209.929688 132.160156 C 209.023438 132.691406 208.457031 133.675781 208.457031 134.722656 L 208.457031 142.523438 L 189.003906 142.523438 L 189.003906 134.722656 C 189.003906 133.671875 188.4375 132.691406 187.535156 132.164062 C 179.921875 127.703125 175.664062 119.140625 176.683594 110.34375 C 177.859375 100.230469 186.058594 92.074219 196.179688 90.949219 C 197.046875 90.855469 197.90625 90.808594 198.757812 90.808594 C 204.238281 90.808594 209.40625 92.769531 213.53125 96.464844 C 218.234375 100.671875 220.933594 106.703125 220.933594 113.007812 C 220.933594 120.84375 216.714844 128.183594 209.929688 132.160156 Z M 208.457031 151.144531 C 208.457031 155.941406 204.554688 159.839844 199.761719 159.839844 L 197.699219 159.839844 C 192.90625 159.839844 189.003906 155.941406 189.003906 151.144531 L 189.003906 147.785156 L 208.457031 147.785156 Z M 226.195312 113.007812 C 226.195312 105.210938 222.859375 97.75 217.042969 92.542969 C 211.234375 87.339844 203.417969 84.851562 195.601562 85.71875 C 183.0625 87.109375 172.910156 97.210938 171.457031 109.738281 C 170.246094 120.15625 175.039062 130.316406 183.742188 136 L 183.742188 151.144531 C 183.742188 158.84375 190.003906 165.101562 197.699219 165.101562 L 199.761719 165.101562 C 207.457031 165.101562 213.71875 158.84375 213.71875 151.144531 L 213.71875 145.160156 C 213.71875 145.15625 213.71875 145.15625 213.71875 145.152344 C 213.71875 145.152344 213.71875 145.148438 213.71875 145.148438 L 213.71875 136 C 221.449219 130.949219 226.195312 122.261719 226.195312 113.007812 "/>
<path style=" stroke:none;fill-rule:nonzero;fill:rgb(0%,0%,0%);fill-opacity:1;" d="M 239.054688 110.90625 L 235.082031 110.90625 C 233.625 110.90625 232.449219 112.085938 232.449219 113.539062 C 232.449219 114.992188 233.625 116.167969 235.082031 116.167969 L 239.054688 116.167969 C 240.507812 116.167969 241.6875 114.992188 241.6875 113.539062 C 241.6875 112.085938 240.507812 110.90625 239.054688 110.90625 "/>
<path style=" stroke:none;fill-rule:nonzero;fill:rgb(0%,0%,0%);fill-opacity:1;" d="M 162.378906 110.90625 L 158.40625 110.90625 C 156.953125 110.90625 155.773438 112.085938 155.773438 113.539062 C 155.773438 114.992188 156.953125 116.167969 158.40625 116.167969 L 162.378906 116.167969 C 163.835938 116.167969 165.011719 114.992188 165.011719 113.539062 C 165.011719 112.085938 163.835938 110.90625 162.378906 110.90625 "/>
<path style=" stroke:none;fill-rule:nonzero;fill:rgb(0%,0%,0%);fill-opacity:1;" d="M 198.730469 79.820312 C 200.183594 79.820312 201.359375 78.644531 201.359375 77.1875 L 201.359375 73.214844 C 201.359375 71.761719 200.183594 70.582031 198.730469 70.582031 C 197.277344 70.582031 196.097656 71.761719 196.097656 73.214844 L 196.097656 77.1875 C 196.097656 78.644531 197.277344 79.820312 198.730469 79.820312 "/>
<path style=" stroke:none;fill-rule:nonzero;fill:rgb(0%,0%,0%);fill-opacity:1;" d="M 224.433594 90.46875 C 225.105469 90.46875 225.78125 90.210938 226.292969 89.695312 L 229.105469 86.886719 C 230.132812 85.859375 230.132812 84.191406 229.105469 83.164062 C 228.078125 82.136719 226.410156 82.136719 225.386719 83.164062 L 222.574219 85.976562 C 221.542969 87.003906 221.542969 88.667969 222.574219 89.695312 C 223.085938 90.210938 223.757812 90.46875 224.433594 90.46875 "/>
<path style=" stroke:none;fill-rule:nonzero;fill:rgb(0%,0%,0%);fill-opacity:1;" d="M 171.167969 137.382812 L 168.359375 140.191406 C 167.328125 141.21875 167.328125 142.886719 168.355469 143.914062 C 168.871094 144.425781 169.542969 144.683594 170.214844 144.683594 C 170.890625 144.683594 171.5625 144.425781 172.078125 143.914062 L 174.886719 141.101562 C 175.914062 140.074219 175.914062 138.40625 174.886719 137.382812 C 173.863281 136.351562 172.195312 136.351562 171.167969 137.382812 "/>
<path style=" stroke:none;fill-rule:nonzero;fill:rgb(0%,0%,0%);fill-opacity:1;" d="M 171.167969 89.695312 C 171.683594 90.210938 172.355469 90.46875 173.027344 90.46875 C 173.703125 90.46875 174.375 90.210938 174.886719 89.695312 C 175.914062 88.667969 175.914062 87.003906 174.886719 85.976562 L 172.078125 83.164062 C 171.050781 82.136719 169.382812 82.136719 168.355469 83.164062 C 167.328125 84.191406 167.328125 85.859375 168.355469 86.886719 L 171.167969 89.695312 "/>
<path style=" stroke:none;fill-rule:nonzero;fill:rgb(0%,0%,0%);fill-opacity:1;" d="M 226.292969 137.382812 C 225.265625 136.351562 223.597656 136.355469 222.574219 137.382812 C 221.542969 138.40625 221.542969 140.074219 222.574219 141.101562 L 225.386719 143.914062 C 225.898438 144.425781 226.570312 144.683594 227.246094 144.683594 C 227.917969 144.683594 228.589844 144.425781 229.105469 143.914062 C 230.132812 142.886719 230.132812 141.21875 229.105469 140.191406 L 226.292969 137.382812 "/>
</g>
</svg>
