<?xml version="1.0" encoding="UTF-8" standalone="no"?>
<!-- Created with Inkscape (http://www.inkscape.org/) -->

<svg
   xmlns:dc="http://purl.org/dc/elements/1.1/"
   xmlns:cc="http://creativecommons.org/ns#"
   xmlns:rdf="http://www.w3.org/1999/02/22-rdf-syntax-ns#"
   xmlns:svg="http://www.w3.org/2000/svg"
   xmlns="http://www.w3.org/2000/svg"
   xmlns:sodipodi="http://sodipodi.sourceforge.net/DTD/sodipodi-0.dtd"
   xmlns:inkscape="http://www.inkscape.org/namespaces/inkscape"
   width="70mm"
   height="68.825584mm"
   viewBox="0 0 70 68.825584"
   version="1.1"
   id="svg824"
   inkscape:version="0.92.3 (2405546, 2018-03-11)"
   sodipodi:docname="dentallink_icon.svg">
  <defs
     id="defs818" />
  <sodipodi:namedview
     id="base"
     pagecolor="#ffffff"
     bordercolor="#666666"
     borderopacity="1.0"
     inkscape:pageopacity="0.0"
     inkscape:pageshadow="2"
     inkscape:zoom="0.35"
     inkscape:cx="-1582.035"
     inkscape:cy="-31.449328"
     inkscape:document-units="mm"
     inkscape:current-layer="layer1"
     showgrid="false"
     fit-margin-top="10"
     fit-margin-left="10"
     fit-margin-right="10"
     fit-margin-bottom="10"
     inkscape:window-width="1920"
     inkscape:window-height="1036"
     inkscape:window-x="0"
     inkscape:window-y="0"
     inkscape:window-maximized="1" />
  <metadata
     id="metadata821">
    <rdf:RDF>
      <cc:Work
         rdf:about="">
        <dc:format>image/svg+xml</dc:format>
        <dc:type
           rdf:resource="http://purl.org/dc/dcmitype/StillImage" />
        <dc:title />
      </cc:Work>
    </rdf:RDF>
  </metadata>
  <g
     inkscape:label="Layer 1"
     inkscape:groupmode="layer"
     id="layer1"
     transform="translate(-78.023561,-99.279042)">
    <path
       inkscape:connector-curvature="0"
       id="path56-0"
       style="fill:#eeeeec;fill-opacity:1;fill-rule:evenodd;stroke:none;stroke-width:0.89023167;stroke-miterlimit:4;stroke-dasharray:none"
       d="m 113.85871,126.89822 c 0.56877,-0.9337 1.28322,-2.34815 1.90096,-3.20743 0.53861,-0.74776 1.59038,-1.8752 2.4154,-2.71595 3.64367,3.9414 7.58506,11.15301 8.99546,17.08581 0.38378,1.61394 0.68367,2.97847 1.11804,2.71374 0.19038,-0.11665 0.58098,-1.15946 1.0263,-2.54005 1.35015,-4.18886 3.07113,-12.06659 2.03035,-16.88856 -1.31147,-6.07918 -5.85612,-7.35078 -13.02662,-2.29106 -7.45626,5.61434 -14.71217,23.28113 -15.66406,34.93381 -0.34578,4.23217 -2.926333,5.09835 -5.782363,0.36245 -3.509817,-5.81978 -10.064435,-21.40469 -8.652456,-33.40626 0.629378,-5.35053 2.970625,-8.66162 5.929664,-10.33868 4.978962,-2.82209 12.059925,-0.96602 17.813375,3.8921 -1.68269,1.40192 -3.08841,2.96373 -4.31759,4.55658 -2.80892,-1.98166 -5.21329,-2.99198 -7.17926,-3.12201 -3.400564,-0.37593 -5.08734,2.16823 -5.847349,5.41307 -0.975743,4.17 0.54962,13.93265 2.08125,17.96794 0.440606,1.16107 0.747738,1.52631 0.988303,1.42612 0.309028,-0.12745 0.509069,-1.0188 0.745263,-1.97761 0.288279,-1.17391 0.744605,-2.43986 1.259309,-3.69738 2.466274,-6.03388 6.300544,-13.10576 10.780844,-17.45758 5.77328,-5.60871 14.45937,-11.10311 21.56608,-6.62216 7.00273,4.41468 6.68649,13.96064 4.89575,21.85251 -2.11737,9.33587 -6.43365,19.15605 -8.68605,22.82294 -3.22252,5.24875 -4.54499,1.0753 -5.27672,-3.44897 -1.80709,-11.16617 -5.12443,-19.22198 -9.11388,-25.31337" />
  </g>
</svg>
