<?xml version="1.0" encoding="UTF-8"?>
<svg xmlns="http://www.w3.org/2000/svg" xmlns:xlink="http://www.w3.org/1999/xlink" width="404.88pt" height="269.999989pt" viewBox="0 0 404.88 269.999989" version="1.2">
<defs>
<clipPath id="clip1">
  <path d="M 67.480469 0.0390625 L 337.398438 0.0390625 L 337.398438 269.960938 L 67.480469 269.960938 Z M 67.480469 0.0390625 "/>
</clipPath>
</defs>
<g id="surface1">
<path style=" stroke:none;fill-rule:nonzero;fill:rgb(41.569519%,41.569519%,41.569519%);fill-opacity:1;" d="M 334.738281 134.984375 C 334.738281 61.910156 275.5 2.671875 202.425781 2.671875 C 129.347656 2.671875 70.109375 61.910156 70.109375 134.984375 C 70.109375 208.0625 129.347656 267.296875 202.425781 267.296875 C 275.5 267.296875 334.738281 208.0625 334.738281 134.984375 "/>
<g clip-path="url(#clip1)" clip-rule="nonzero">
<path style=" stroke:none;fill-rule:nonzero;fill:rgb(52.549744%,0%,0%);fill-opacity:1;" d="M 202.425781 5.300781 C 130.917969 5.300781 72.742188 63.480469 72.742188 134.984375 C 72.742188 206.492188 130.917969 264.667969 202.425781 264.667969 C 273.929688 264.667969 332.109375 206.492188 332.109375 134.984375 C 332.109375 63.480469 273.929688 5.300781 202.425781 5.300781 Z M 202.425781 269.929688 C 166.378906 269.929688 132.492188 255.894531 107.003906 230.40625 C 81.515625 204.917969 67.480469 171.03125 67.480469 134.984375 C 67.480469 98.9375 81.515625 65.054688 107.003906 39.566406 C 132.492188 14.078125 166.378906 0.0390625 202.425781 0.0390625 C 238.46875 0.0390625 272.355469 14.078125 297.84375 39.566406 C 323.332031 65.054688 337.371094 98.9375 337.371094 134.984375 C 337.371094 171.03125 323.332031 204.917969 297.84375 230.40625 C 272.355469 255.894531 238.46875 269.929688 202.425781 269.929688 "/>
</g>
<path style=" stroke:none;fill-rule:nonzero;fill:rgb(65.098572%,65.098572%,65.098572%);fill-opacity:1;" d="M 323.613281 134.984375 C 323.613281 68.054688 269.355469 13.796875 202.425781 13.796875 C 135.496094 13.796875 81.238281 68.054688 81.238281 134.984375 C 81.238281 201.914062 135.496094 256.171875 202.425781 256.171875 C 269.355469 256.171875 323.613281 201.914062 323.613281 134.984375 "/>
<path style=" stroke:none;fill-rule:nonzero;fill:rgb(100%,100%,100%);fill-opacity:1;" d="M 314.890625 134.984375 C 314.890625 72.871094 264.539062 22.519531 202.425781 22.519531 C 140.3125 22.519531 89.957031 72.871094 89.957031 134.984375 C 89.957031 197.097656 140.3125 247.453125 202.425781 247.453125 C 264.539062 247.453125 314.890625 197.097656 314.890625 134.984375 "/>
<path style=" stroke:none;fill-rule:nonzero;fill:rgb(52.549744%,0%,0%);fill-opacity:1;" d="M 253.277344 113.753906 C 252.664062 112.4375 251.101562 111.867188 249.78125 112.480469 C 248.464844 113.097656 247.894531 114.660156 248.507812 115.976562 C 251.703125 122.824219 253.320312 130.15625 253.320312 137.769531 C 253.320312 166.234375 230.164062 189.390625 201.699219 189.390625 C 173.234375 189.390625 150.078125 166.234375 150.078125 137.769531 C 150.078125 109.308594 173.234375 86.148438 201.699219 86.148438 C 209.351562 86.148438 216.710938 87.78125 223.582031 91.003906 C 224.894531 91.617188 226.464844 91.050781 227.082031 89.738281 C 227.699219 88.421875 227.132812 86.855469 225.816406 86.238281 C 218.242188 82.6875 210.128906 80.886719 201.699219 80.886719 C 170.332031 80.886719 144.816406 106.40625 144.816406 137.769531 C 144.816406 169.132812 170.332031 194.652344 201.699219 194.652344 C 233.066406 194.652344 258.582031 169.132812 258.582031 137.769531 C 258.582031 129.378906 256.796875 121.296875 253.277344 113.753906 "/>
<path style=" stroke:none;fill-rule:nonzero;fill:rgb(52.549744%,0%,0%);fill-opacity:1;" d="M 235.234375 137.769531 C 235.234375 156.261719 220.191406 171.308594 201.699219 171.308594 C 183.207031 171.308594 168.164062 156.261719 168.164062 137.769531 C 168.164062 119.277344 183.207031 104.230469 201.699219 104.230469 C 207.285156 104.230469 212.8125 105.632812 217.683594 108.28125 C 218.960938 108.976562 220.558594 108.5 221.253906 107.222656 C 221.945312 105.945312 221.472656 104.351562 220.195312 103.65625 C 214.554688 100.589844 208.15625 98.96875 201.699219 98.96875 C 180.304688 98.96875 162.898438 116.375 162.898438 137.769531 C 162.898438 159.164062 180.304688 176.570312 201.699219 176.570312 C 223.09375 176.570312 240.496094 159.164062 240.496094 137.769531 C 240.496094 131.386719 238.917969 125.0625 235.921875 119.476562 C 235.234375 118.191406 233.644531 117.710938 232.359375 118.394531 C 231.078125 119.082031 230.597656 120.675781 231.285156 121.960938 C 233.867188 126.785156 235.234375 132.253906 235.234375 137.769531 "/>
<path style=" stroke:none;fill-rule:nonzero;fill:rgb(52.549744%,0%,0%);fill-opacity:1;" d="M 201.699219 124.324219 C 202.421875 124.324219 203.144531 124.386719 203.851562 124.496094 C 205.289062 124.726562 206.636719 123.75 206.867188 122.316406 C 207.097656 120.882812 206.121094 119.535156 204.6875 119.304688 C 203.707031 119.144531 202.699219 119.0625 201.699219 119.0625 C 191.386719 119.0625 182.992188 127.457031 182.992188 137.769531 C 182.992188 148.085938 191.386719 156.476562 201.699219 156.476562 C 212.015625 156.476562 220.40625 148.085938 220.40625 137.769531 C 220.40625 136.921875 220.347656 136.0625 220.234375 135.222656 C 220.039062 133.785156 218.714844 132.777344 217.273438 132.972656 C 215.832031 133.167969 214.824219 134.492188 215.019531 135.933594 C 215.101562 136.539062 215.140625 137.15625 215.140625 137.769531 C 215.140625 145.183594 209.109375 151.214844 201.699219 151.214844 C 194.285156 151.214844 188.257812 145.183594 188.257812 137.769531 C 188.257812 130.355469 194.285156 124.324219 201.699219 124.324219 "/>
<path style=" stroke:none;fill-rule:nonzero;fill:rgb(0%,0%,0%);fill-opacity:1;" d="M 264.539062 102.886719 L 240.339844 102.941406 L 266.652344 76.628906 L 290.855469 76.574219 Z M 236.671875 75.019531 L 262.988281 48.703125 L 262.933594 72.90625 L 236.617188 99.222656 Z M 299.011719 72.136719 L 298.9375 72.066406 C 298.445312 71.574219 297.773438 71.296875 297.078125 71.296875 C 297.078125 71.296875 297.070312 71.296875 297.070312 71.296875 L 268.195312 71.363281 L 268.265625 42.488281 C 268.265625 41.789062 267.988281 41.117188 267.492188 40.621094 L 267.421875 40.550781 C 266.390625 39.523438 264.730469 39.523438 263.699219 40.550781 L 232.109375 72.136719 C 231.441406 72.808594 231.207031 73.75 231.410156 74.605469 L 231.34375 104.496094 L 200.523438 135.320312 C 199.496094 136.34375 199.496094 138.011719 200.523438 139.039062 C 201.035156 139.550781 201.707031 139.808594 202.382812 139.808594 C 203.058594 139.808594 203.730469 139.550781 204.242188 139.039062 L 235.0625 108.21875 L 264.953125 108.148438 C 265.808594 108.351562 266.75 108.117188 267.421875 107.449219 L 299.011719 75.859375 C 300.035156 74.832031 300.035156 73.167969 299.011719 72.136719 "/>
<path style=" stroke:none;fill-rule:nonzero;fill:rgb(0%,0%,0%);fill-opacity:1;" d="M 147.167969 182.171875 C 146.253906 181.042969 144.59375 180.875 143.46875 181.792969 C 142.339844 182.710938 142.171875 184.367188 143.089844 185.496094 C 143.351562 185.816406 143.617188 186.132812 143.882812 186.449219 C 144.402344 187.070312 145.144531 187.386719 145.894531 187.386719 C 146.496094 187.386719 147.097656 187.183594 147.589844 186.765625 C 148.699219 185.828125 148.839844 184.171875 147.90625 183.058594 C 147.65625 182.765625 147.414062 182.46875 147.167969 182.171875 "/>
<path style=" stroke:none;fill-rule:nonzero;fill:rgb(0%,0%,0%);fill-opacity:1;" d="M 143.546875 98.21875 C 144.367188 97.019531 144.054688 95.382812 142.855469 94.566406 C 141.652344 93.746094 140.019531 94.054688 139.199219 95.257812 C 138.96875 95.601562 138.738281 95.945312 138.507812 96.292969 C 137.710938 97.507812 138.050781 99.136719 139.261719 99.933594 C 139.707031 100.226562 140.210938 100.367188 140.707031 100.367188 C 141.5625 100.367188 142.398438 99.949219 142.90625 99.179688 C 143.117188 98.859375 143.332031 98.539062 143.546875 98.21875 "/>
<path style=" stroke:none;fill-rule:nonzero;fill:rgb(0%,0%,0%);fill-opacity:1;" d="M 153.347656 83.082031 C 152.347656 82.027344 150.679688 81.988281 149.628906 82.988281 C 149.332031 83.273438 149.03125 83.5625 148.734375 83.851562 C 147.699219 84.871094 147.6875 86.535156 148.707031 87.570312 C 149.21875 88.09375 149.898438 88.359375 150.582031 88.359375 C 151.246094 88.359375 151.914062 88.105469 152.425781 87.605469 C 152.699219 87.332031 152.976562 87.066406 153.257812 86.800781 C 154.308594 85.800781 154.351562 84.132812 153.347656 83.082031 "/>
<path style=" stroke:none;fill-rule:nonzero;fill:rgb(0%,0%,0%);fill-opacity:1;" d="M 162.40625 73.191406 C 162.054688 73.40625 161.703125 73.625 161.355469 73.847656 C 160.128906 74.625 159.761719 76.25 160.539062 77.476562 C 161.039062 78.269531 161.890625 78.703125 162.765625 78.703125 C 163.246094 78.703125 163.730469 78.570312 164.167969 78.292969 C 164.492188 78.089844 164.820312 77.886719 165.148438 77.683594 C 166.390625 76.929688 166.78125 75.308594 166.023438 74.070312 C 165.269531 72.828125 163.648438 72.4375 162.40625 73.191406 "/>
<path style=" stroke:none;fill-rule:nonzero;fill:rgb(0%,0%,0%);fill-opacity:1;" d="M 158.726562 193.429688 C 158.417969 193.195312 158.117188 192.960938 157.816406 192.71875 C 156.679688 191.808594 155.027344 191.992188 154.117188 193.128906 C 153.210938 194.261719 153.394531 195.917969 154.53125 196.824219 C 154.851562 197.085938 155.179688 197.34375 155.507812 197.597656 C 155.984375 197.964844 156.550781 198.144531 157.113281 198.144531 C 157.902344 198.144531 158.679688 197.792969 159.199219 197.121094 C 160.085938 195.972656 159.875 194.320312 158.726562 193.429688 "/>
<path style=" stroke:none;fill-rule:nonzero;fill:rgb(0%,0%,0%);fill-opacity:1;" d="M 138.992188 169.617188 C 138.332031 168.324219 136.746094 167.808594 135.453125 168.46875 C 134.15625 169.128906 133.640625 170.710938 134.300781 172.007812 C 134.488281 172.375 134.675781 172.742188 134.871094 173.105469 C 135.34375 173.996094 136.253906 174.503906 137.199219 174.503906 C 137.613281 174.503906 138.035156 174.40625 138.425781 174.199219 C 139.710938 173.519531 140.199219 171.929688 139.523438 170.644531 C 139.339844 170.300781 139.164062 169.960938 138.992188 169.617188 "/>
<path style=" stroke:none;fill-rule:nonzero;fill:rgb(0%,0%,0%);fill-opacity:1;" d="M 133.96875 156.734375 C 133.863281 156.363281 133.765625 155.992188 133.667969 155.617188 C 133.296875 154.214844 131.859375 153.367188 130.457031 153.738281 C 129.046875 154.105469 128.207031 155.542969 128.574219 156.949219 C 128.679688 157.351562 128.789062 157.753906 128.898438 158.152344 C 129.226562 159.3125 130.28125 160.074219 131.433594 160.074219 C 131.664062 160.074219 131.90625 160.039062 132.144531 159.976562 C 133.542969 159.585938 134.359375 158.132812 133.96875 156.734375 "/>
<path style=" stroke:none;fill-rule:nonzero;fill:rgb(0%,0%,0%);fill-opacity:1;" d="M 221.871094 70.386719 C 222.242188 70.5 222.609375 70.609375 222.976562 70.726562 C 223.238281 70.8125 223.507812 70.851562 223.769531 70.851562 C 224.886719 70.851562 225.921875 70.132812 226.277344 69.015625 C 226.71875 67.628906 225.949219 66.148438 224.566406 65.710938 C 224.171875 65.585938 223.777344 65.464844 223.382812 65.347656 C 221.984375 64.929688 220.523438 65.71875 220.105469 67.113281 C 219.6875 68.503906 220.480469 69.96875 221.871094 70.386719 "/>
<path style=" stroke:none;fill-rule:nonzero;fill:rgb(0%,0%,0%);fill-opacity:1;" d="M 171.488281 201.285156 C 171.140625 201.121094 170.796875 200.953125 170.449219 200.78125 C 169.148438 200.132812 167.570312 200.664062 166.921875 201.960938 C 166.273438 203.261719 166.804688 204.84375 168.105469 205.492188 C 168.476562 205.675781 168.851562 205.859375 169.226562 206.039062 C 169.589844 206.210938 169.976562 206.292969 170.355469 206.292969 C 171.339844 206.292969 172.28125 205.738281 172.734375 204.792969 C 173.359375 203.480469 172.800781 201.910156 171.488281 201.285156 "/>
<path style=" stroke:none;fill-rule:nonzero;fill:rgb(0%,0%,0%);fill-opacity:1;" d="M 132.652344 114.019531 C 132.960938 114.140625 133.285156 114.195312 133.597656 114.195312 C 134.652344 114.195312 135.648438 113.554688 136.054688 112.511719 C 136.191406 112.148438 136.332031 111.789062 136.480469 111.429688 C 137.023438 110.085938 136.375 108.550781 135.023438 108.003906 C 133.679688 107.460938 132.144531 108.113281 131.601562 109.460938 C 131.445312 109.84375 131.292969 110.230469 131.144531 110.617188 C 130.621094 111.972656 131.296875 113.496094 132.652344 114.019531 "/>
<path style=" stroke:none;fill-rule:nonzero;fill:rgb(0%,0%,0%);fill-opacity:1;" d="M 129.203125 129.183594 C 129.335938 129.207031 129.472656 129.214844 129.605469 129.214844 C 130.882812 129.214844 132.003906 128.285156 132.203125 126.984375 C 132.261719 126.601562 132.324219 126.222656 132.390625 125.84375 C 132.632812 124.410156 131.667969 123.050781 130.234375 122.808594 C 128.804688 122.566406 127.445312 123.527344 127.199219 124.960938 C 127.132812 125.367188 127.066406 125.777344 127.003906 126.183594 C 126.78125 127.621094 127.765625 128.964844 129.203125 129.183594 "/>
<path style=" stroke:none;fill-rule:nonzero;fill:rgb(0%,0%,0%);fill-opacity:1;" d="M 129.03125 144.738281 C 130.484375 144.652344 131.589844 143.40625 131.503906 141.957031 C 131.480469 141.574219 131.460938 141.191406 131.445312 140.804688 C 131.382812 139.351562 130.15625 138.214844 128.707031 138.285156 C 127.257812 138.347656 126.128906 139.574219 126.1875 141.023438 C 126.207031 141.4375 126.226562 141.851562 126.25 142.265625 C 126.332031 143.664062 127.492188 144.742188 128.875 144.742188 C 128.925781 144.742188 128.980469 144.742188 129.03125 144.738281 "/>
<path style=" stroke:none;fill-rule:nonzero;fill:rgb(0%,0%,0%);fill-opacity:1;" d="M 207.136719 67.65625 C 207.519531 67.6875 207.90625 67.722656 208.285156 67.757812 C 208.371094 67.765625 208.453125 67.769531 208.535156 67.769531 C 209.878906 67.769531 211.027344 66.746094 211.152344 65.382812 C 211.285156 63.933594 210.222656 62.652344 208.777344 62.519531 C 208.363281 62.476562 207.953125 62.441406 207.539062 62.410156 C 206.09375 62.296875 204.824219 63.382812 204.714844 64.835938 C 204.601562 66.285156 205.6875 67.546875 207.136719 67.65625 "/>
<path style=" stroke:none;fill-rule:nonzero;fill:rgb(0%,0%,0%);fill-opacity:1;" d="M 271.035156 117.671875 C 271.308594 117.671875 271.585938 117.628906 271.855469 117.539062 C 273.238281 117.085938 273.988281 115.601562 273.539062 114.21875 C 273.410156 113.828125 273.277344 113.433594 273.140625 113.042969 C 272.667969 111.671875 271.171875 110.941406 269.796875 111.417969 C 268.421875 111.894531 267.695312 113.390625 268.167969 114.765625 C 268.296875 115.128906 268.417969 115.492188 268.539062 115.859375 C 268.902344 116.96875 269.929688 117.671875 271.035156 117.671875 "/>
<path style=" stroke:none;fill-rule:nonzero;fill:rgb(0%,0%,0%);fill-opacity:1;" d="M 271.519531 129.367188 C 271.566406 129.75 271.609375 130.132812 271.648438 130.515625 C 271.789062 131.871094 272.929688 132.878906 274.261719 132.878906 C 274.355469 132.878906 274.445312 132.871094 274.539062 132.863281 C 275.980469 132.714844 277.03125 131.421875 276.882812 129.976562 C 276.839844 129.566406 276.796875 129.15625 276.746094 128.746094 C 276.574219 127.300781 275.257812 126.273438 273.824219 126.441406 C 272.378906 126.613281 271.347656 127.921875 271.519531 129.367188 "/>
<path style=" stroke:none;fill-rule:nonzero;fill:rgb(0%,0%,0%);fill-opacity:1;" d="M 266.304688 171.785156 C 265.046875 171.0625 263.4375 171.492188 262.710938 172.753906 C 262.519531 173.089844 262.324219 173.421875 262.125 173.753906 C 261.382812 175 261.789062 176.613281 263.035156 177.363281 C 263.457031 177.613281 263.921875 177.734375 264.382812 177.734375 C 265.277344 177.734375 266.152344 177.273438 266.644531 176.449219 C 266.855469 176.097656 267.066406 175.738281 267.273438 175.378906 C 267.996094 174.117188 267.566406 172.511719 266.304688 171.785156 "/>
<path style=" stroke:none;fill-rule:nonzero;fill:rgb(0%,0%,0%);fill-opacity:1;" d="M 272.046875 157.324219 C 270.660156 156.886719 269.183594 157.652344 268.742188 159.039062 C 268.625 159.410156 268.507812 159.773438 268.382812 160.140625 C 267.921875 161.519531 268.667969 163.011719 270.042969 163.46875 C 270.320312 163.5625 270.601562 163.609375 270.878906 163.609375 C 271.980469 163.609375 273.003906 162.914062 273.375 161.8125 C 273.507812 161.417969 273.636719 161.023438 273.757812 160.628906 C 274.199219 159.242188 273.429688 157.765625 272.046875 157.324219 "/>
<path style=" stroke:none;fill-rule:nonzero;fill:rgb(0%,0%,0%);fill-opacity:1;" d="M 274.578125 141.980469 C 273.128906 141.847656 271.847656 142.910156 271.714844 144.355469 C 271.679688 144.742188 271.640625 145.121094 271.597656 145.503906 C 271.4375 146.949219 272.480469 148.25 273.925781 148.40625 C 274.023438 148.417969 274.121094 148.421875 274.214844 148.421875 C 275.539062 148.421875 276.679688 147.425781 276.828125 146.078125 C 276.871094 145.667969 276.914062 145.257812 276.953125 144.84375 C 277.089844 143.394531 276.023438 142.113281 274.578125 141.980469 "/>
<path style=" stroke:none;fill-rule:nonzero;fill:rgb(0%,0%,0%);fill-opacity:1;" d="M 253.902344 184.882812 C 253.644531 185.167969 253.382812 185.453125 253.121094 185.734375 C 252.128906 186.796875 252.1875 188.460938 253.253906 189.453125 C 253.761719 189.925781 254.402344 190.160156 255.046875 190.160156 C 255.75 190.160156 256.453125 189.875 256.972656 189.324219 C 257.25 189.019531 257.53125 188.714844 257.808594 188.410156 C 258.78125 187.332031 258.699219 185.667969 257.617188 184.691406 C 256.542969 183.71875 254.875 183.804688 253.902344 184.882812 "/>
<path style=" stroke:none;fill-rule:nonzero;fill:rgb(0%,0%,0%);fill-opacity:1;" d="M 185.625 206.242188 C 185.25 206.15625 184.875 206.066406 184.503906 205.972656 C 183.09375 205.613281 181.664062 206.46875 181.308594 207.878906 C 180.953125 209.289062 181.808594 210.71875 183.21875 211.074219 C 183.617188 211.175781 184.023438 211.273438 184.425781 211.367188 C 184.628906 211.414062 184.828125 211.4375 185.027344 211.4375 C 186.222656 211.4375 187.304688 210.617188 187.585938 209.40625 C 187.917969 207.988281 187.039062 206.574219 185.625 206.242188 "/>
<path style=" stroke:none;fill-rule:nonzero;fill:rgb(0%,0%,0%);fill-opacity:1;" d="M 192.675781 62.722656 C 192.265625 62.773438 191.851562 62.824219 191.445312 62.878906 C 190.003906 63.074219 188.996094 64.402344 189.191406 65.84375 C 189.371094 67.160156 190.5 68.117188 191.792969 68.117188 C 191.910156 68.117188 192.035156 68.113281 192.152344 68.09375 C 192.535156 68.042969 192.914062 67.992188 193.296875 67.945312 C 194.742188 67.777344 195.773438 66.46875 195.597656 65.023438 C 195.425781 63.578125 194.121094 62.546875 192.675781 62.722656 "/>
<path style=" stroke:none;fill-rule:nonzero;fill:rgb(0%,0%,0%);fill-opacity:1;" d="M 200.492188 208.078125 C 200.105469 208.074219 199.722656 208.0625 199.339844 208.046875 C 199.308594 208.046875 199.277344 208.046875 199.25 208.046875 C 197.835938 208.046875 196.667969 209.171875 196.621094 210.59375 C 196.574219 212.046875 197.714844 213.261719 199.167969 213.308594 C 199.578125 213.324219 199.992188 213.332031 200.40625 213.339844 C 200.421875 213.339844 200.4375 213.339844 200.453125 213.339844 C 201.882812 213.339844 203.058594 212.191406 203.082031 210.75 C 203.105469 209.296875 201.945312 208.101562 200.492188 208.078125 "/>
<path style=" stroke:none;fill-rule:nonzero;fill:rgb(0%,0%,0%);fill-opacity:1;" d="M 176.976562 66.324219 C 176.585938 66.460938 176.195312 66.601562 175.808594 66.742188 C 174.445312 67.238281 173.738281 68.75 174.238281 70.113281 C 174.625 71.183594 175.636719 71.84375 176.710938 71.84375 C 177.007812 71.84375 177.3125 71.796875 177.609375 71.6875 C 177.972656 71.554688 178.335938 71.425781 178.699219 71.300781 C 180.070312 70.824219 180.800781 69.324219 180.324219 67.953125 C 179.851562 66.578125 178.355469 65.851562 176.976562 66.324219 "/>
<path style=" stroke:none;fill-rule:nonzero;fill:rgb(0%,0%,0%);fill-opacity:1;" d="M 242.734375 194.882812 C 242.421875 195.105469 242.105469 195.328125 241.792969 195.546875 C 240.601562 196.378906 240.308594 198.015625 241.136719 199.210938 C 241.648438 199.945312 242.464844 200.335938 243.296875 200.335938 C 243.816406 200.335938 244.339844 200.183594 244.800781 199.867188 C 245.136719 199.628906 245.476562 199.390625 245.8125 199.148438 C 246.988281 198.300781 247.257812 196.65625 246.410156 195.476562 C 245.558594 194.296875 243.914062 194.03125 242.734375 194.882812 "/>
<path style=" stroke:none;fill-rule:nonzero;fill:rgb(0%,0%,0%);fill-opacity:1;" d="M 215.421875 206.75 C 215.046875 206.824219 214.667969 206.894531 214.289062 206.964844 C 212.859375 207.222656 211.910156 208.589844 212.164062 210.023438 C 212.394531 211.292969 213.503906 212.1875 214.75 212.1875 C 214.90625 212.1875 215.0625 212.171875 215.222656 212.144531 C 215.628906 212.070312 216.039062 211.992188 216.445312 211.914062 C 217.871094 211.628906 218.796875 210.246094 218.515625 208.820312 C 218.230469 207.394531 216.84375 206.46875 215.421875 206.75 "/>
<path style=" stroke:none;fill-rule:nonzero;fill:rgb(0%,0%,0%);fill-opacity:1;" d="M 229.714844 202.285156 C 229.363281 202.4375 229.011719 202.589844 228.65625 202.738281 C 227.316406 203.292969 226.679688 204.832031 227.234375 206.175781 C 227.65625 207.1875 228.632812 207.796875 229.667969 207.796875 C 230.003906 207.796875 230.347656 207.734375 230.675781 207.59375 C 231.054688 207.4375 231.433594 207.277344 231.8125 207.113281 C 233.144531 206.535156 233.757812 204.984375 233.175781 203.652344 C 232.597656 202.316406 231.046875 201.707031 229.714844 202.285156 "/>
</g>
</svg>
