<?xml version="1.0" encoding="UTF-8" standalone="no"?>
<!-- Created with Inkscape (http://www.inkscape.org/) -->

<svg
   xmlns:dc="http://purl.org/dc/elements/1.1/"
   xmlns:cc="http://creativecommons.org/ns#"
   xmlns:rdf="http://www.w3.org/1999/02/22-rdf-syntax-ns#"
   xmlns:svg="http://www.w3.org/2000/svg"
   xmlns="http://www.w3.org/2000/svg"
   xmlns:sodipodi="http://sodipodi.sourceforge.net/DTD/sodipodi-0.dtd"
   xmlns:inkscape="http://www.inkscape.org/namespaces/inkscape"
   width="69.999947mm"
   height="77.217285mm"
   viewBox="0 0 69.999946 77.217284"
   version="1.1"
   id="SVGRoot"
   inkscape:export-filename="/home/paragasu/Documents/roompillow/roompillow_icon.png"
   inkscape:export-xdpi="64.975304"
   inkscape:export-ydpi="64.975304"
   inkscape:version="0.92.3 (2405546, 2018-03-11)"
   sodipodi:docname="roompillow_icon.svg">
  <sodipodi:namedview
     id="base"
     pagecolor="#ffffff"
     bordercolor="#666666"
     borderopacity="1.0"
     inkscape:pageopacity="0.0"
     inkscape:pageshadow="2"
     inkscape:zoom="0.35"
     inkscape:cx="-576.19965"
     inkscape:cy="55.108007"
     inkscape:document-units="mm"
     inkscape:current-layer="layer1"
     showgrid="false"
     inkscape:window-width="1920"
     inkscape:window-height="1036"
     inkscape:window-x="0"
     inkscape:window-y="0"
     inkscape:window-maximized="1"
     fit-margin-top="10"
     fit-margin-left="10"
     fit-margin-right="10"
     fit-margin-bottom="10" />
  <defs
     id="defs8518" />
  <metadata
     id="metadata8521">
    <rdf:RDF>
      <cc:Work
         rdf:about="">
        <dc:format>image/svg+xml</dc:format>
        <dc:type
           rdf:resource="http://purl.org/dc/dcmitype/StillImage" />
        <dc:title />
      </cc:Work>
    </rdf:RDF>
  </metadata>
  <g
     id="layer1"
     inkscape:groupmode="layer"
     inkscape:label="Layer 1"
     transform="translate(-5.3754435,-63.152054)">
    <path
       style="clip-rule:evenodd;fill:#888a85;fill-rule:evenodd;stroke-width:0.0159926;image-rendering:optimizeQuality;shape-rendering:geometricPrecision;text-rendering:geometricPrecision"
       inkscape:connector-curvature="0"
       id="path4187-80"
       d="m 65.298852,81.595488 c 0,-1.807396 0.174853,-5.804898 -0.004,-6.965851 -0.324529,-1.939002 -3.807689,-1.412318 -5.904961,-1.412318 l -36.977309,-0.02355 c -1.310776,0 -2.634136,0.049 -3.944867,0.02355 -3.595437,-0.03601 -3.033623,1.208768 -3.02115,4.607998 l -0.004,47.384883 c 0,3.48298 -0.811446,5.07487 3.208385,5.07487 h 2.122217 l 27.951465,0.0836 c 1.223372,0.004 2.334552,-0.004 3.033534,-0.19159 1.485568,-0.38291 1.747799,-1.93888 0.823929,-2.81252 -0.761481,-0.73016 -2.783827,-0.53878 -4.356824,-0.53878 l -24.668288,-0.0358 c -2.521746,0 -4.531811,0.25136 -4.519218,-3.04003 V 83.606167 c 0,-1.328537 0.03783,-2.69306 -0.004,-4.009574 -0.03793,-1.544087 0.249683,-1.927011 1.323249,-2.621156 0.911307,-0.586523 5.442983,-0.335138 7.377946,-0.335138 l 27.97648,-0.02352 c 2.047301,0 3.645249,-0.33512 4.993554,0.730124 1.21098,0.945494 1.173462,2.968302 1.073566,4.83544 l 0.02388,36.014457 c 0,1.41242 0.174787,6.67862 -0.287146,7.33703 -1.073631,0.34701 -1.622907,-0.77812 -2.084749,-1.35263 L 45.032184,107.16148 c -1.148507,-1.26868 -2.059859,-2.62128 -3.208432,-3.78217 -0.411921,-0.40692 -1.0735,-0.53856 -1.785116,-0.51471 l -2.284486,0.0493 c -0.437043,0.004 -0.786551,0.0837 -1.323364,0.65833 -0.44942,0.50272 -0.649172,1.53205 -0.649172,2.59727 l 0.02413,9.77862 c 0,1.47213 -0.574221,2.83653 -1.885028,3.19563 -0.886397,0.2394 -3.894905,0.22739 -4.569043,-0.17946 -1.722823,-1.02935 -1.473181,-3.65054 -1.460633,-5.99637 V 90.538076 c 0,-2.621175 -0.312146,-5.194422 1.660376,-6.116104 0.399519,-0.191493 1.44808,-0.299206 2.659005,-0.28717 l 9.837319,0.07118 c 2.521792,0.0041 4.93118,0.502783 6.641476,1.651762 4.781359,3.21955 5.967213,9.611051 2.109735,13.848015 -1.073677,1.172941 -4.107161,1.795411 -3.944882,3.470991 0.09996,1.02933 0.761506,1.52012 1.597962,1.65174 1.735281,0.26318 3.308218,-0.92162 4.556626,-1.93887 3.55787,-2.86061 4.656487,-9.395749 3.283197,-13.453174 C 55.143401,86.0612 52.359439,83.428094 48.888877,82.12349 47.128696,81.453132 44.806661,81.201861 42.284995,81.189813 l -11.248048,-0.07166 c -2.671523,-0.0043 -5.343091,0.04915 -5.780064,0.335107 -1.672782,1.125078 -1.148476,3.04017 -1.148476,5.697203 l -0.04997,30.209507 c 0,2.14247 -0.424374,3.37528 0.936398,4.47639 0.873779,0.71831 3.258166,0.53865 4.344336,0.55055 2.34701,0 5.467968,-0.0974 7.577662,-0.036 1.260911,0.0239 1.997482,-0.49073 2.509295,-1.26873 0.424399,-0.6581 0.199711,-1.83125 0.199711,-2.88452 l -0.03778,-8.98869 c 0,-0.83775 0.187239,-1.47217 0.436932,-1.5918 0.89883,-0.33511 1.610425,1.05324 1.997411,1.50806 l 15.080581,18.03721 c 1.186046,1.42428 2.297035,2.63307 2.758937,2.83653 0.823974,0.35913 4.007275,0.50279 4.943683,-0.29915 0.836381,-0.71813 0.474295,-4.10533 0.474295,-5.72117 z"
       class="fil1"
       inkscape:export-filename="/home/rogon/sumisix/theme/roompillow/img/roompillow.png"
       inkscape:export-xdpi="64.975304"
       inkscape:export-ydpi="64.975304" />
  </g>
</svg>
