<?xml version="1.0" encoding="UTF-8"?>
<svg xmlns="http://www.w3.org/2000/svg" xmlns:xlink="http://www.w3.org/1999/xlink" width="375pt" height="374.999991pt" viewBox="0 0 375 374.999991" version="1.2">
<g id="surface1">
<path style=" stroke:none;fill-rule:nonzero;fill:rgb(52.549744%,0%,0%);fill-opacity:1;" d="M 187.5 0 C 83.945312 0 0 83.945312 0 187.5 C 0 291.050781 83.945312 375 187.5 375 C 291.050781 375 375 291.050781 375 187.5 C 375 83.945312 291.050781 0 187.5 0 Z M 187.5 0 "/>
<path style=" stroke:none;fill-rule:nonzero;fill:rgb(100%,100%,100%);fill-opacity:1;" d="M 278.730469 107.859375 L 245.242188 276.710938 C 245.242188 276.710938 240.554688 288.414062 227.679688 282.789062 L 150.394531 223.550781 L 122.296875 209.957031 L 74.992188 194.035156 C 74.992188 194.035156 67.734375 191.457031 67.03125 185.847656 C 66.328125 180.222656 75.226562 177.175781 75.226562 177.175781 L 263.285156 103.410156 C 263.269531 103.410156 278.722656 96.617188 278.722656 107.859375 "/>
<path style=" stroke:none;fill-rule:nonzero;fill:rgb(65.098572%,65.098572%,65.098572%);fill-opacity:1;" d="M 144.460938 274.804688 C 144.460938 274.804688 142.203125 274.597656 139.394531 265.691406 C 136.582031 256.800781 122.296875 209.957031 122.296875 209.957031 L 235.882812 137.832031 C 235.882812 137.832031 242.429688 133.851562 242.195312 137.832031 C 242.195312 137.832031 243.367188 138.535156 239.851562 141.8125 C 236.351562 145.09375 150.628906 222.144531 150.628906 222.144531 "/>
<path style=" stroke:none;fill-rule:nonzero;fill:rgb(41.569519%,41.569519%,41.569519%);fill-opacity:1;" d="M 180.027344 246.269531 L 149.457031 274.128906 C 149.457031 274.128906 147.070312 275.945312 144.460938 274.804688 L 150.308594 223.035156 "/>
</g>
</svg>
